<?xml version="1.0" standalone="no"?>
<!DOCTYPE svg PUBLIC "-//W3C//DTD SVG 1.1//EN" "http://www.w3.org/Graphics/SVG/1.1/DTD/svg11.dtd" >
<svg>
<metadata>
Created by FontForge 20090914 at Fri Jan 13 20:11:56 2023
 By www-data
Copyright &#194;&#169; 2016 by Radomir Tinkov. All rights reserved.
</metadata>
<defs>
<font id="Gilroy-Heavy" horiz-adv-x="575" >
  <font-face 
    font-family="Gilroy-Heavy"
    font-weight="400"
    font-stretch="normal"
    units-per-em="1000"
    panose-1="0 0 10 0 0 0 0 0 0 0"
    ascent="775"
    descent="-225"
    x-height="500"
    cap-height="700"
    bbox="-487 -284.001 1253 990"
    underline-thickness="50"
    underline-position="-50"
    unicode-range="U+0020-U+FB02"
  />
<missing-glyph horiz-adv-x="500" 
d="M410 800v-1000h-317v1000h317zM333 733h-165v-33h65v-37h-66v-33h166v33h-66v37h66v33zM267 604h-100v-104h166v34h-66v70zM233 570v-36h-33v36h33zM333 473h-166v-33h66v-37h-66v-33h100v70h66v33zM333 413h-33v-66h-133v-34h166v100zM333 291h-100v-56h34v23h33v-47
h-100v80h-33v-113h166v113zM333 118h-166v-113h166v113zM300 85v-47h-100v47h100zM333 -18h-166v-33h70l-70 -47v-33h166v33h-102l70 47h32v33z" />
    <glyph glyph-name="fi" unicode="fi" 
d="M535 500v-500.001h-185v324h-97v-324h-185v324h-58v176h58c0 70.667 22 124.334 66 161.001s109.333 55 196 55c48 0 93 -5.33301 135 -16v-152c-44.667 6.66699 -84.667 10 -120 10c-61.333 0 -92 -19.333 -92 -58h282z" />
    <glyph glyph-name="fl" unicode="fl" 
d="M330 716c70.667 0 138.998 -5.33301 204.998 -16v-700h-185v562c-5.33301 0.666992 -13.666 1 -24.999 1c-21.333 0 -38.666 -5.33301 -51.999 -16s-20 -26.334 -20 -47.001h57v-176h-57v-324h-185v324h-58v176h58c0 70.667 22 124.334 66 161.001s109.333 55 196 55z
" />
    <glyph glyph-name="f_f" unicode="ff" horiz-adv-x="615" 
d="M615 560c-24 2 -42.833 -1.66504 -56.5 -10.998s-20.5 -22.333 -20.5 -39v-10h77v-176h-77v-324h-185v324h-100v-324h-185v324h-58v176h58c0 72 22.333 127.167 67 165.5s109.667 55.166 195 50.499v-166c-24 2 -42.833 -1.66699 -56.5 -11s-20.5 -22.333 -20.5 -39h100
v10c0 72 22.333 127.167 67 165.5s109.667 55.166 195 50.499v-166z" />
    <glyph glyph-name="f_f_i" unicode="ffi" horiz-adv-x="860" 
d="M820 500v-500h-185v324h-97v-324h-185v324h-100v-324h-185v324h-58v176h58c0 72 22.333 127.167 67 165.5s109.667 55.166 195 50.499v-166c-24 2 -42.833 -1.66699 -56.5 -11s-20.5 -22.333 -20.5 -39h100v10c0 70.667 22 124.334 66 161.001s109.333 55 196 55
c48 0 93 -5.33301 135 -16v-152c-44.667 6.66699 -84.667 10 -120 10c-61.333 0 -92 -19.333 -92 -58v-10h282z" />
    <glyph glyph-name="f_f_l" unicode="ffl" horiz-adv-x="860" 
d="M615 726c70.667 0 138.998 -5.33203 204.998 -15.999v-710h-185v572c-5.33301 0.666992 -13.666 1 -24.999 1c-21.333 0 -38.666 -5.33301 -51.999 -16s-20 -26.334 -20 -47.001v-10h57v-176h-57v-324h-185v324h-100v-324h-185v324h-58v176h58
c0 72 22.333 127.167 67 165.5s109.667 55.166 195 50.499v-166c-24 2 -42.833 -1.66699 -56.5 -11s-20.5 -22.333 -20.5 -39h100v10c0 70.667 22 124.334 66 161.001s109.333 55 196 55z" />
    <glyph glyph-name=".notdef" horiz-adv-x="500" 
d="M410 800v-1000h-317v1000h317zM333 733h-165v-33h65v-37h-66v-33h166v33h-66v37h66v33zM267 604h-100v-104h166v34h-66v70zM233 570v-36h-33v36h33zM333 473h-166v-33h66v-37h-66v-33h100v70h66v33zM333 413h-33v-66h-133v-34h166v100zM333 291h-100v-56h34v23h33v-47
h-100v80h-33v-113h166v113zM333 118h-166v-113h166v113zM300 85v-47h-100v47h100zM333 -18h-166v-33h70l-70 -47v-33h166v33h-102l70 47h32v33z" />
    <glyph glyph-name="space" unicode=" " horiz-adv-x="200" 
 />
    <glyph glyph-name="exclam" unicode="!" horiz-adv-x="310" 
d="M75 260l-35 240v200h230v-200l-35 -240h-160zM155 -15c-32 0 -59.167 11.167 -81.5 33.5s-33.5 49.5 -33.5 81.5s11.167 59.167 33.5 81.5s49.5 33.5 81.5 33.5s59.167 -11.167 81.5 -33.5s33.5 -49.5 33.5 -81.5s-11.167 -59.167 -33.5 -81.5s-49.5 -33.5 -81.5 -33.5z
" />
    <glyph glyph-name="quotedbl" unicode="&#x22;" horiz-adv-x="490" 
d="M70 420l-20 280h170l-20 -280h-130zM290 420l-20 280h170l-20 -280h-130z" />
    <glyph glyph-name="numbersign" unicode="#" horiz-adv-x="643" 
d="M602 380h-95l-10 -60h96l-21 -130h-97l-23 -140h-144l23 140h-72l-23 -140h-144l23 140h-95l21 130h96l10 60h-96l21 130h97l23 140h144l-23 -140h72l23 140h144l-23 -140h94zM353 320l10 60h-72l-10 -60h72z" />
    <glyph glyph-name="dollar" unicode="$" horiz-adv-x="565" 
d="M550 209c0 -64.667 -20.333 -116.5 -61 -155.5s-95.334 -61.5 -164.001 -67.5v-86h-70v85c-60.667 4 -112 20.5 -154 49.5s-70.667 67.5 -86 115.5l176 95c10 -40.667 31.333 -65.667 64 -75v95l-4 1c-36.667 12.667 -66.667 24.667 -90 36s-45.666 25.5 -66.999 42.5
s-37 37.5 -47 61.5s-15 52 -15 84c0 64 20.667 116.167 62 156.5s95 63.166 161 68.499v85h70v-86c100 -11.333 170.667 -61.666 212 -150.999l-171 -92c-9.33301 29.333 -23 48 -41 56v-99c0.666992 0 1.66699 -0.333008 3 -1s2.33301 -1 3 -1
c68 -24.667 113.333 -44.667 136 -60c55.333 -36 83 -88.333 83 -157zM222 491c0 -14.667 11 -27 33 -37v77c-22 -6.66699 -33 -20 -33 -40zM325 169c23.333 4.66699 35 16.667 35 36c0 14 -11.667 25.667 -35 35v-71z" />
    <glyph glyph-name="percent" unicode="%" horiz-adv-x="868" 
d="M225 336c-55.333 0 -101.666 18.5 -138.999 55.5s-56 81.833 -56 134.5s18.667 97.5 56 134.5s83.666 55.5 138.999 55.5c54.667 0 100.5 -18.5 137.5 -55.5s55.5 -81.833 55.5 -134.5s-18.5 -97.5 -55.5 -134.5s-82.833 -55.5 -137.5 -55.5zM157 111l470 498l73 -42
l-471 -497zM224 476c14 0 25.667 5 35 15s14 21.667 14 35c0 14 -4.66699 25.833 -14 35.5s-21 14.5 -35 14.5s-25.5 -4.83301 -34.5 -14.5s-13.5 -21.5 -13.5 -35.5s4.5 -25.833 13.5 -35.5s20.5 -14.5 34.5 -14.5zM645 -16c-55.333 0 -101.666 18.5 -138.999 55.5
s-56 81.833 -56 134.5s18.667 97.5 56 134.5s83.666 55.5 138.999 55.5c54.667 0 100.5 -18.5 137.5 -55.5s55.5 -81.833 55.5 -134.5s-18.5 -97.5 -55.5 -134.5s-82.833 -55.5 -137.5 -55.5zM644 124c14 0 25.667 5 35 15s14 21.667 14 35c0 14 -4.66699 25.833 -14 35.5
s-21 14.5 -35 14.5s-25.5 -4.83301 -34.5 -14.5s-13.5 -21.5 -13.5 -35.5s4.5 -25.833 13.5 -35.5s20.5 -14.5 34.5 -14.5z" />
    <glyph glyph-name="ampersand" unicode="&#x26;" horiz-adv-x="683" 
d="M673 59l-151 -87.002l-55 61c-55.333 -32.667 -116.333 -49 -183 -49c-78.667 0 -140.667 20.833 -186 62.5s-68 93.5 -68 155.5c0 80 37.667 143 113 189c-24 36 -36 74.333 -36 115c0 60.667 22.333 110.834 67 150.501s101 59.5 169 59.5
c119.333 0 204.333 -54 255 -162l-167 -97c-18.667 48.667 -44 73 -76 73c-28.667 0 -43 -13.667 -43 -41c0 -2.66699 0.166992 -5.33398 0.5 -8.00098s1.16602 -5.33398 2.49902 -8.00098s2.5 -5.16699 3.5 -7.5s2.83301 -5.16602 5.5 -8.49902
s4.66699 -6.16602 6 -8.49902s3.83301 -5.66602 7.5 -9.99902l8.5 -10l10 -11.5c4.66699 -5.33301 8.33398 -9.33301 11.001 -12l105 -119c14 29.333 24 60.333 30 93l156 -91c-15.333 -49.333 -37.333 -95 -66 -137zM308 149.998c15.333 0 30.333 2.66699 45 8l-98 107
c-16 -15.333 -24 -33 -24 -53c0 -17.333 6.5 -32 19.5 -44s32.167 -18 57.5 -18z" />
    <glyph glyph-name="quotesingle" unicode="'" horiz-adv-x="270" 
d="M70 420l-20 280h170l-20 -280h-130z" />
    <glyph glyph-name="parenleft" unicode="(" horiz-adv-x="335" 
d="M150 -100c-73.333 146.667 -110 296.667 -110 450s36.667 303.333 110 450h185c-73.333 -146.667 -110 -296.667 -110 -450s36.667 -303.333 110 -450h-185z" />
    <glyph glyph-name="parenright" unicode=")" horiz-adv-x="335" 
d="M185 -100h-185c73.333 146.667 110 296.667 110 450s-36.667 303.333 -110 450h185c73.333 -146.667 110 -296.667 110 -450s-36.667 -303.333 -110 -450z" />
    <glyph glyph-name="asterisk" unicode="*" horiz-adv-x="410" 
d="M370 601v-104l-92 10l58 -71l-88 -54l-43 79l-43 -79l-88 54l58 71l-92 -10v104l92 -10l-58 71l88 54l43 -79l43 79l88 -54l-58 -71z" />
    <glyph glyph-name="plus" unicode="+" horiz-adv-x="560" 
d="M530 440v-180h-160v-160h-180v160h-160v180h160v160h180v-160h160z" />
    <glyph glyph-name="comma" unicode="," horiz-adv-x="315" 
d="M280 195l-90 -335h-150l30 335h210z" />
    <glyph glyph-name="hyphen" unicode="-" horiz-adv-x="500" 
d="M50 217v174h400v-174h-400z" />
    <glyph glyph-name="period" unicode="." horiz-adv-x="300" 
d="M150 -15c-32 0 -59.167 11.167 -81.5 33.5s-33.5 49.5 -33.5 81.5s11.167 59.167 33.5 81.5s49.5 33.5 81.5 33.5s59.167 -11.167 81.5 -33.5s33.5 -49.5 33.5 -81.5s-11.167 -59.167 -33.5 -81.5s-49.5 -33.5 -81.5 -33.5z" />
    <glyph glyph-name="slash" unicode="/" horiz-adv-x="520" 
d="M100 -100h-80l400 900h80z" />
    <glyph glyph-name="zero" unicode="0" horiz-adv-x="630" 
d="M315 -16c-94 0 -166.667 33.167 -218 99.5s-77 155.166 -77 266.499s25.667 200.166 77 266.499s124 99.5 218 99.5s166.667 -33.167 218 -99.5s77 -155.166 77 -266.499s-25.667 -200.166 -77 -266.499s-124 -99.5 -218 -99.5zM315 178c63.333 0 95 57.333 95 172
s-31.667 172 -95 172s-95 -57.333 -95 -172s31.667 -172 95 -172z" />
    <glyph glyph-name="one" unicode="1" horiz-adv-x="427" 
d="M197 700h170v-700h-200v491l-121 -29l-46 167z" />
    <glyph glyph-name="two" unicode="2" horiz-adv-x="546" 
d="M20 0l-0.00195312 145.999l228 247c4 4.66699 9.83301 11 17.5 19l16 17l12 13.5c5 5.66699 8.33301 10.334 10 14.001s3.33398 7.66699 5.00098 12s2.5 8.83301 2.5 13.5c0 11.333 -4 20.833 -12 28.5s-19.667 11.5 -35 11.5c-37.333 0 -65 -23.667 -83 -71l-176 96
c23.333 55.333 57.833 97.333 103.5 126s96.5 43 152.5 43c68.667 0 127.5 -19.5 176.5 -58.5s73.5 -92.833 73.5 -161.5c0 -42 -9.16699 -78.667 -27.5 -110s-47.166 -69 -86.499 -113l-71 -79h200v-194h-506z" />
    <glyph glyph-name="three" unicode="3" horiz-adv-x="545" 
d="M376 414c45.333 -13.333 81.5 -36.5 108.5 -69.5s40.5 -74.5 40.5 -124.5c0 -77.333 -24.667 -136 -74 -176s-111.333 -60 -186 -60c-61.333 0 -115 14 -161 42s-79 69.333 -99 124l176 101c14 -48.667 42 -73 84 -73c18 0 32.5 4.66699 43.5 14s16.5 22 16.5 38
c0 33.333 -20 50 -60 50h-43l-78 116l94 110h-211v194h460v-154z" />
    <glyph glyph-name="four" unicode="4" 
d="M570 282v-180h-70v-102h-196v102h-294v180l193 418h227l-196 -418h70v98h196v-98h70z" />
    <glyph glyph-name="five" unicode="5" horiz-adv-x="550" 
d="M295 455c69.333 0 126.667 -19.501 172 -58.501s68 -95.167 68 -168.5c0 -78 -24.667 -138.167 -74 -180.5s-111.333 -63.5 -186 -63.5c-66 0 -122.5 14 -169.5 42s-80.5 69.333 -100.5 124l176 101c14 -48.667 45.333 -73 94 -73c18 0 32.5 4.33301 43.5 13
s16.5 21.334 16.5 38.001c0 32.667 -20 49 -60 49h-230l29 422h421v-194h-238l-4 -51h42z" />
    <glyph glyph-name="six" unicode="6" horiz-adv-x="560" 
d="M337 474c65.333 -10.667 117.166 -37.833 155.499 -81.5s57.5 -97.5 57.5 -161.5c0 -73.333 -24.667 -132.833 -74 -178.5s-114.666 -68.5 -195.999 -68.5c-82 0 -147.5 22.833 -196.5 68.5s-73.5 105.167 -73.5 178.5c0 52 12.667 97.333 38 136l208 333h224z
M280 163.001c46.667 0 70 22.667 70 68s-23.333 68 -70 68s-70 -22.667 -70 -68s23.333 -68 70 -68z" />
    <glyph glyph-name="seven" unicode="7" horiz-adv-x="490" 
d="M-10 700h490v-164l-208 -536h-220l196 506h-258v194z" />
    <glyph glyph-name="eight" unicode="8" horiz-adv-x="564" 
d="M454 366c63.333 -38 95.002 -94.333 95.002 -169c0 -65.333 -23 -116.833 -69 -154.5s-112 -56.5 -198 -56.5s-152 18.833 -198 56.5s-69 89.167 -69 154.5c0 74.667 31.667 131 95 169c-47.333 35.333 -71 82 -71 140c0 64.667 22.667 115.5 68 152.5
s103.666 55.5 174.999 55.5s129.666 -18.5 174.999 -55.5s68 -87.833 68 -152.5c0 -58 -23.667 -104.667 -71 -140zM282.002 538c-42 0 -63 -17.002 -63 -51.002s21 -51 63 -51c18.667 0 33.834 4.33301 45.501 13s17.5 21.334 17.5 38.001s-5.83301 29.334 -17.5 38.001
s-26.834 13 -45.501 13zM282.002 165.998c21.333 0 37.833 5.16699 49.5 15.5s17.5 24.833 17.5 43.5s-5.83301 33.167 -17.5 43.5s-28.167 15.5 -49.5 15.5s-37.833 -5.16699 -49.5 -15.5s-17.5 -24.833 -17.5 -43.5s5.83301 -33.167 17.5 -43.5s28.167 -15.5 49.5 -15.5z
" />
    <glyph glyph-name="nine" unicode="9" horiz-adv-x="560" 
d="M550 469c0 -52 -12.667 -97.334 -38 -136.001l-208 -333h-224l143 226c-65.333 10.667 -117.166 37.834 -155.499 81.501s-57.5 97.5 -57.5 161.5c0 73.333 24.667 132.833 74 178.5s114.666 68.5 195.999 68.5c82 0 147.5 -22.833 196.5 -68.5
s73.5 -105.167 73.5 -178.5zM280 536.999c-46.667 0 -70 -22.667 -70 -68s23.333 -68 70 -68s70 22.667 70 68s-23.333 68 -70 68z" />
    <glyph glyph-name="colon" unicode=":" horiz-adv-x="300" 
d="M150 285c-32 0 -59.167 11.167 -81.5 33.5s-33.5 49.5 -33.5 81.5s11.167 59.167 33.5 81.5s49.5 33.5 81.5 33.5s59.167 -11.167 81.5 -33.5s33.5 -49.5 33.5 -81.5s-11.167 -59.167 -33.5 -81.5s-49.5 -33.5 -81.5 -33.5zM150 -15c-32 0 -59.167 11.167 -81.5 33.5
s-33.5 49.5 -33.5 81.5s11.167 59.167 33.5 81.5s49.5 33.5 81.5 33.5s59.167 -11.167 81.5 -33.5s33.5 -49.5 33.5 -81.5s-11.167 -59.167 -33.5 -81.5s-49.5 -33.5 -81.5 -33.5z" />
    <glyph glyph-name="semicolon" unicode=";" horiz-adv-x="320" 
d="M170 285c-32 0 -59.167 11.167 -81.5 33.5s-33.5 49.5 -33.5 81.5s11.167 59.167 33.5 81.5s49.5 33.5 81.5 33.5s59.167 -11.167 81.5 -33.5s33.5 -49.5 33.5 -81.5s-11.167 -59.167 -33.5 -81.5s-49.5 -33.5 -81.5 -33.5zM280 195l-90 -335h-150l30 335h210z" />
    <glyph glyph-name="less" unicode="&#x3c;" horiz-adv-x="510" 
d="M480 630v-194l-260 -86l260 -86v-194l-450 195v170z" />
    <glyph glyph-name="equal" unicode="=" horiz-adv-x="500" 
d="M30 375v180h440v-180h-440zM30 145v180h440v-180h-440z" />
    <glyph glyph-name="greater" unicode="&#x3e;" horiz-adv-x="510" 
d="M30 630l450 -195v-170l-450 -195v194l260 86l-260 86v194z" />
    <glyph glyph-name="question" unicode="?" horiz-adv-x="532" 
d="M165 260c0 28.667 7.16797 55.332 21.501 79.999s30 44 47 58s32.667 29 47 45s21.5 31 21.5 45c0 10.667 -3.66699 19.334 -11 26.001s-17.333 10 -30 10c-32.667 0 -60 -24.333 -82 -73l-169 96c24 56.667 59 99 105 127s97.333 42 154 42
c67.333 0 123 -17.833 167 -53.5s66 -83.5 66 -143.5c0 -28 -5.33301 -54 -16 -78s-23.667 -43.833 -39 -59.5s-30.833 -30.167 -46.5 -43.5s-28.834 -26.5 -39.501 -39.5s-16 -25.833 -16 -38.5h-180zM255.001 -15.002c-32 0 -59.167 11.167 -81.5 33.5
s-33.5 49.5 -33.5 81.5s11.167 59.167 33.5 81.5s49.5 33.5 81.5 33.5s59.167 -11.167 81.5 -33.5s33.5 -49.5 33.5 -81.5s-11.167 -59.167 -33.5 -81.5s-49.5 -33.5 -81.5 -33.5z" />
    <glyph glyph-name="at" unicode="@" horiz-adv-x="764" 
d="M389 612c70.667 0 133.332 -17.1699 187.999 -51.5029s95.334 -77.166 122.001 -128.499s40 -105.333 40 -162c0 -152.667 -56 -229 -168 -229c-36.667 0 -67.5 7.83301 -92.5 23.5s-42.5 36.5 -52.5 62.5c-24 -28 -55.333 -42 -94 -42c-46 0 -82.833 15.333 -110.5 46
s-41.5 70.334 -41.5 119.001s13.833 88.334 41.5 119.001s64.5 46 110.5 46c34 0 62.667 -11 86 -33v21h152v-236c0 -40 14.667 -60 44 -60c22 0 40 12.833 54 38.5s21 67.167 21 124.5c0 83.333 -28.833 153.5 -86.5 210.5s-128.834 85.5 -213.501 85.5
c-88.667 0 -163.167 -30.333 -223.5 -91s-90.5 -135.667 -90.5 -225c0 -91.333 31.333 -166.833 94 -226.5s142 -89.5 238 -89.5c54.667 0 102.334 6.66699 143.001 20v-49c-41.333 -11.333 -89 -17 -143 -17c-109.333 0 -200.333 34.167 -273 102.5
s-109 154.833 -109 259.5c0 100.667 34.833 186.167 104.5 256.5s156.167 105.5 259.5 105.5zM374.998 202.997c12.667 0 22.834 4.33301 30.501 13s11.5 20 11.5 34s-3.83301 25.333 -11.5 34s-17.834 13 -30.501 13s-23 -4.33301 -31 -13s-12 -20 -12 -34
s4 -25.333 12 -34s18.333 -13 31 -13z" />
    <glyph glyph-name="A" unicode="A" horiz-adv-x="660" 
d="M455 0l-24 90h-202l-24 -90h-215l223 700h234l223 -700h-215zM272 250h116l-58 215z" />
    <glyph glyph-name="B" unicode="B" horiz-adv-x="605" 
d="M500 361c60 -34 90 -85.667 90 -155c0 -64 -20.833 -114.333 -62.5 -151s-102.167 -55 -181.5 -55h-296v700h278c78.667 0 138.667 -17 180 -51s62 -82.667 62 -146c0 -60.667 -23.333 -108 -70 -142zM316 528h-65.999v-94l77 1c28.667 4 43 19.333 43 46
c0 15.333 -5.33301 27 -16 35s-23.334 12 -38.001 12zM334.001 172c16 0 29.333 4.66699 40 14s16 21.333 16 36c0 28 -15 44.333 -45 49l-95 1v-100h84z" />
    <glyph glyph-name="C" unicode="C" horiz-adv-x="718" 
d="M391 -16c-105.333 0 -192.666 35.002 -261.999 105.002s-104 157 -104 261s34.667 191 104 261s156.666 105 261.999 105c64.667 0 124.334 -15.333 179.001 -46s97.334 -72 128.001 -124l-174 -100c-11.333 22.667 -29 40.667 -53 54s-50.667 20 -80 20
c-49.333 0 -89.333 -16 -120 -48s-46 -72.667 -46 -122s15.333 -90 46 -122s70.667 -48 120 -48c30 0 56.833 6.66699 80.5 20s41.167 31.666 52.5 54.999l174 -100c-30.667 -52.667 -73.334 -94.334 -128.001 -125.001s-114.334 -46 -179.001 -46z" />
    <glyph glyph-name="D" unicode="D" horiz-adv-x="705" 
d="M340 700c96.667 0 177.5 -33.5 242.5 -100.5s97.5 -150.167 97.5 -249.5s-32.5 -182.5 -97.5 -249.5s-145.833 -100.5 -242.5 -100.5h-290v700h290zM340 194c40.667 0 74.167 14.5 100.5 43.5s39.5 66.5 39.5 112.5s-13.167 83.5 -39.5 112.5s-59.833 43.5 -100.5 43.5
h-80v-312h80z" />
    <glyph glyph-name="E" unicode="E" horiz-adv-x="540" 
d="M250 184h260v-184h-460v700h455v-182h-255v-76h230v-180h-230v-78z" />
    <glyph glyph-name="F" unicode="F" horiz-adv-x="515" 
d="M485 506h-235v-91h230v-194h-230v-221h-200v700h435v-194z" />
    <glyph glyph-name="G" unicode="G" horiz-adv-x="772" 
d="M747 413l0.00195312 -83c0 -100 -32.167 -182.667 -96.5 -248s-148.833 -98 -253.5 -98c-109.333 0 -198.666 34.833 -267.999 104.5s-104 156.5 -104 260.5s34.667 191.167 104 261.5s156 105.5 260 105.5c65.333 0 125.166 -14.667 179.499 -44
s97.166 -69 128.499 -119l-170 -97c-28 42.667 -72.667 64 -134 64c-50 0 -90.5 -16 -121.5 -48s-46.5 -73.333 -46.5 -124c0 -48 14.333 -89.833 43 -125.5s73 -53.5 133 -53.5c69.333 0 115.666 24.667 138.999 74h-149v170h356z" />
    <glyph glyph-name="H" unicode="H" horiz-adv-x="670" 
d="M420 700h200v-700h-200v258h-170v-258h-200v700h200v-248h170v248z" />
    <glyph glyph-name="I" unicode="I" horiz-adv-x="300" 
d="M50 700h200v-700h-200v700z" />
    <glyph glyph-name="J" unicode="J" horiz-adv-x="567" 
d="M267 -16c-118 0 -200.333 48.001 -247 144.001l168 99c16 -32.667 42 -49 78 -49c40.667 0 61 19 61 57v465h200v-470c0 -76.667 -22.667 -136.834 -68 -180.501s-109.333 -65.5 -192 -65.5z" />
    <glyph glyph-name="K" unicode="K" horiz-adv-x="636" 
d="M646 0h-222l-174 300v-300h-200v700h200v-280l164 280h222l-208 -340z" />
    <glyph glyph-name="L" unicode="L" horiz-adv-x="490" 
d="M250 194h230v-194h-430v700h200v-506z" />
    <glyph glyph-name="M" unicode="M" horiz-adv-x="830" 
d="M780 700v-700h-200v341l-156 -262h-18l-156 262v-341h-200v700h200l165 -285l165 285h200z" />
    <glyph glyph-name="N" unicode="N" horiz-adv-x="680" 
d="M430 700h200v-700h-160l-220 320v-320h-200v700h160l220 -320v320z" />
    <glyph glyph-name="O" unicode="O" horiz-adv-x="792" 
d="M396 -16c-104 0 -191.833 35.167 -263.5 105.5s-107.5 157.166 -107.5 260.499s35.833 190.166 107.5 260.499s159.5 105.5 263.5 105.5s191.833 -35.167 263.5 -105.5s107.5 -157.166 107.5 -260.499s-35.833 -190.166 -107.5 -260.499s-159.5 -105.5 -263.5 -105.5z
M396 180c49.333 0 90.166 16.167 122.499 48.5s48.5 72.833 48.5 121.5s-16.167 89.167 -48.5 121.5s-73.166 48.5 -122.499 48.5s-90.166 -16.167 -122.499 -48.5s-48.5 -72.833 -48.5 -121.5s16.167 -89.167 48.5 -121.5s73.166 -48.5 122.499 -48.5z" />
    <glyph glyph-name="P" unicode="P" horiz-adv-x="595" 
d="M330 700c72.667 0 133.334 -22.833 182.001 -68.5s73 -106.5 73 -182.5s-24.333 -136.833 -73 -182.5s-109.334 -68.5 -182.001 -68.5h-80v-198h-200v700h280zM330 392c15.333 0 28.333 5.16895 39 15.502s16 24.166 16 41.499s-5.33301 31.166 -16 41.499
s-23.667 15.5 -39 15.5h-80v-114h80z" />
    <glyph glyph-name="Q" unicode="Q" horiz-adv-x="797" 
d="M767 350c0 -82 -23.668 -154.999 -71.001 -218.999l56 -61l-137 -120l-62 67c-49.333 -22 -101.666 -33 -156.999 -33c-104 0 -191.833 35.167 -263.5 105.5s-107.5 157.166 -107.5 260.499s35.833 190.166 107.5 260.499s159.5 105.5 263.5 105.5
s191.833 -35.167 263.5 -105.5s107.5 -157.166 107.5 -260.499zM395.999 180.001h6.99902l-86 94l138 119l100 -109c8 20 12 42 12 66c0 48.667 -16.167 89.167 -48.5 121.5s-73.166 48.5 -122.499 48.5s-90.166 -16.167 -122.499 -48.5s-48.5 -72.833 -48.5 -121.5
s16.167 -89.167 48.5 -121.5s73.166 -48.5 122.499 -48.5z" />
    <glyph glyph-name="R" unicode="R" horiz-adv-x="625" 
d="M411 1l-111 219.999h-50v-220h-200v700h280c76.667 0 140 -22.5 190 -67.5s75 -104.5 75 -178.5c0 -41.333 -9.5 -78.666 -28.5 -111.999s-45.5 -60.333 -79.5 -81l138 -261h-214zM250 516.999v-130h76c21.333 -0.666992 38.166 4.66602 50.499 15.999
s18.5 27.333 18.5 48s-6.16699 36.834 -18.5 48.501s-29.166 17.5 -50.499 17.5h-76z" />
    <glyph glyph-name="S" unicode="S" horiz-adv-x="585" 
d="M302 -16c-76 0 -139.332 15.833 -189.999 47.5s-84.667 74.5 -102 128.5l171 99c23.333 -59.333 65.333 -89 126 -89c45.333 0 68 12 68 36c0 6.66699 -1.66699 12.667 -5 18s-9.66602 10 -18.999 14s-17.5 7.16699 -24.5 9.5s-19.167 5.83301 -36.5 10.5
s-30.333 8.33398 -39 11.001c-139.333 42 -209 117 -209 225c0 64 23.167 117 69.5 159s107.166 63 182.499 63c59.333 0 112.5 -14 159.5 -42s81.5 -68.333 103.5 -121l-166 -97c-19.333 49.333 -51.333 74 -96 74c-17.333 0 -30.5 -3.5 -39.5 -10.5
s-13.5 -15.833 -13.5 -26.5c0 -14.667 7.83301 -26 23.5 -34s45.834 -18.333 90.501 -31c33.333 -10 60.666 -19.5 81.999 -28.5s43.666 -21.667 66.999 -38s40.833 -37.333 52.5 -63s17.5 -55.834 17.5 -90.501c0 -71.333 -24.5 -126.5 -73.5 -165.5
s-115.5 -58.5 -199.5 -58.5z" />
    <glyph glyph-name="T" unicode="T" horiz-adv-x="550" 
d="M540 700v-194h-165v-506h-200v506h-165v194h530z" />
    <glyph glyph-name="U" unicode="U" horiz-adv-x="650" 
d="M325 -16c-84.667 0 -153.332 23 -205.999 69s-79 106.333 -79 181v466h200v-444c0 -52 28.333 -78 85 -78s85 26 85 78v444h200v-466c0 -74.667 -26.333 -135 -79 -181s-121.334 -69 -206.001 -69z" />
    <glyph glyph-name="V" unicode="V" horiz-adv-x="670" 
d="M223 0l-223 700h220l115 -445l115 445h220l-223 -700h-224z" />
    <glyph glyph-name="W" unicode="W" horiz-adv-x="1010" 
d="M198 0l-198 700h220l95 -385l113 385h154l113 -385l95 385h220l-198 -700h-197l-110 374l-110 -374h-197z" />
    <glyph glyph-name="X" unicode="X" horiz-adv-x="645" 
d="M645 0h-222l-100 168l-101 -168h-222l212 354l-207 346h222l96 -160l95 160h222l-206 -346z" />
    <glyph glyph-name="Y" unicode="Y" horiz-adv-x="674" 
d="M674 700l-237 -434v-266h-200v266l-237 434h222l115 -246l115 246h222z" />
    <glyph glyph-name="Z" unicode="Z" horiz-adv-x="545" 
d="M292 194h233v-194h-495v154l223 352h-218v194h480v-154z" />
    <glyph glyph-name="bracketleft" unicode="[" horiz-adv-x="340" 
d="M320 624h-95v-548h95v-176h-280v900h280v-176z" />
    <glyph glyph-name="backslash" unicode="\" horiz-adv-x="520" 
d="M420 -100l-400 900h80l400 -900h-80z" />
    <glyph glyph-name="bracketright" unicode="]" horiz-adv-x="340" 
d="M300 800v-900h-280v176h95v548h-95v176h280z" />
    <glyph glyph-name="asciicircum" unicode="^" horiz-adv-x="580" 
d="M354 700l206 -370h-200l-70 147l-70 -147h-200l206 370h128z" />
    <glyph glyph-name="underscore" unicode="_" horiz-adv-x="510" 
d="M20 -191v174h470v-174h-470z" />
    <glyph glyph-name="grave" unicode="`" horiz-adv-x="330" 
d="M310 550l-80 150h-210l116 -150h174z" />
    <glyph glyph-name="a" unicode="a" horiz-adv-x="606" 
d="M381 500h185v-500h-185v45c-32 -39.333 -76.667 -59 -134 -59c-67.333 0 -122.333 25 -165 75s-64 113 -64 189s21.333 139 64 189s97.667 75 165 75c57.333 0 102 -19.667 134 -59v45zM292 156c26.667 0 48.167 9 64.5 27s24.5 40.333 24.5 67s-8.16699 49 -24.5 67
s-37.833 27 -64.5 27s-48.167 -9 -64.5 -27s-24.5 -40.333 -24.5 -67s8.16699 -49 24.5 -67s37.833 -27 64.5 -27z" />
    <glyph glyph-name="b" unicode="b" horiz-adv-x="606" 
d="M359 514c67.333 0 122.333 -25 165 -75s64 -113 64 -189s-21.333 -139 -64 -189s-97.667 -75 -165 -75c-57.333 0 -102 19.667 -134 59v-45h-185v700h185v-245c32 39.333 76.667 59 134 59zM314 156c26.667 0 48.167 9 64.5 27s24.5 40.333 24.5 67s-8.16699 49 -24.5 67
s-37.833 27 -64.5 27s-48.167 -9 -64.5 -27s-24.5 -40.333 -24.5 -67s8.16699 -49 24.5 -67s37.833 -27 64.5 -27z" />
    <glyph glyph-name="c" unicode="c" horiz-adv-x="525" 
d="M285 -14c-76.667 0 -140.334 25.1689 -191.001 75.502s-76 113.166 -76 188.499s25.333 138.166 76 188.499s114.334 75.5 191.001 75.5c49.333 0 94.5 -11.833 135.5 -35.5s72.5 -55.5 94.5 -95.5l-156 -89c-16.667 28 -41.334 42 -74.001 42
c-23.333 0 -42.833 -8.16699 -58.5 -24.5s-23.5 -36.833 -23.5 -61.5s7.83301 -45.167 23.5 -61.5s35.167 -24.5 58.5 -24.5c34.667 0 59.334 14.333 74.001 43l156 -90c-22 -40.667 -53.5 -72.667 -94.5 -96s-86.167 -35 -135.5 -35z" />
    <glyph glyph-name="d" unicode="d" horiz-adv-x="606" 
d="M381 700h185v-700h-185v45c-32 -39.333 -76.667 -59 -134 -59c-67.333 0 -122.333 25 -165 75s-64 113 -64 189s21.333 139 64 189s97.667 75 165 75c57.333 0 102 -19.667 134 -59v245zM292 156c26.667 0 48.167 9 64.5 27s24.5 40.333 24.5 67s-8.16699 49 -24.5 67
s-37.833 27 -64.5 27s-48.167 -9 -64.5 -27s-24.5 -40.333 -24.5 -67s8.16699 -49 24.5 -67s37.833 -27 64.5 -27z" />
    <glyph glyph-name="e" unicode="e" horiz-adv-x="560" 
d="M205 187c16 -33.333 50 -50 102 -50c30.667 0 59 10.667 85 32l121 -102c-50 -54 -120.667 -81 -212 -81c-85.333 0 -153.833 24.833 -205.5 74.5s-77.5 112.167 -77.5 187.5c0 76 25.167 139.333 75.5 190s113.833 76 190.5 76c76 0 138.5 -24.833 187.5 -74.5
s73.5 -112.167 73.5 -187.5c0 -22 -2.66699 -43.667 -8 -65h-332zM202 306h168c-11.333 40 -38.333 60 -81 60c-43.333 0 -72.333 -20 -87 -60z" />
    <glyph glyph-name="f" unicode="f" horiz-adv-x="330" 
d="M330 550c-24 2 -42.833 -1.66602 -56.5 -10.999s-20.5 -22.333 -20.5 -39h77v-176h-77v-324h-185v324h-58v176h58c0 72 22.333 127.167 67 165.5s109.667 55.166 195 50.499v-166z" />
    <glyph glyph-name="g" unicode="g" horiz-adv-x="613" 
d="M388 500l184.999 0.00195312v-485c0 -40 -7.5 -75.333 -22.5 -106s-35.167 -54.834 -60.5 -72.501s-53.166 -30.834 -83.499 -39.501s-62.166 -13 -95.499 -13c-58.667 0 -110.667 10.667 -156 32s-79 51.333 -101 90l150 87c24 -32.667 56.333 -49 97 -49
c23.333 0 43.666 5.83301 60.999 17.5s26 29.5 26 53.5v50c-32 -39.333 -76.667 -59 -134 -59c-66.667 0 -121.5 24.333 -164.5 73s-64.5 109 -64.5 181s21.5 132.333 64.5 181s97.833 73 164.5 73c57.333 0 102 -19.667 134 -59v45zM298.999 170.002
c26.667 0 48.167 8.66699 64.5 26s24.5 38.666 24.5 63.999s-8.16699 46.666 -24.5 63.999s-37.833 26 -64.5 26s-48.167 -8.66699 -64.5 -26s-24.5 -38.666 -24.5 -63.999s8.16699 -46.666 24.5 -63.999s37.833 -26 64.5 -26z" />
    <glyph glyph-name="h" unicode="h" 
d="M359 514c54.667 0 98.499 -18.832 131.499 -56.499s49.5 -93.834 49.5 -168.501v-289h-185v269c0 44.667 -20.667 67 -62 67c-22 0 -38.833 -7 -50.5 -21s-17.5 -33.333 -17.5 -58v-257h-185v700h185v-249c30.667 42 75.334 63 134.001 63z" />
    <glyph glyph-name="i" unicode="i" horiz-adv-x="265" 
d="M133 538c-28 0 -52.167 10.167 -72.5 30.5s-30.5 44.166 -30.5 71.499s10.167 51.166 30.5 71.499s44.5 30.5 72.5 30.5c27.333 0 51.166 -10.167 71.499 -30.5s30.5 -44.166 30.5 -71.499s-10.167 -51.166 -30.5 -71.499s-44.166 -30.5 -71.499 -30.5zM40 0v500h185
v-500h-185z" />
    <glyph glyph-name="j" unicode="j" horiz-adv-x="280" 
d="M148 538c-28 0 -52.167 10.167 -72.5 30.5s-30.5 44.166 -30.5 71.499s10.167 51.166 30.5 71.499s44.5 30.5 72.5 30.5c27.333 0 51.166 -10.167 71.499 -30.5s30.5 -44.166 30.5 -71.499s-10.167 -51.166 -30.5 -71.499s-44.166 -30.5 -71.499 -30.5zM55 0v500h185
v-500c0 -78.667 -20.167 -135.5 -60.5 -170.5s-103.5 -50.167 -189.5 -45.5v166c43.333 -4 65 12.667 65 50z" />
    <glyph glyph-name="k" unicode="k" horiz-adv-x="550" 
d="M550 0h-205l-120 200v-200h-185v700h185v-394l105 194h210l-152 -250z" />
    <glyph glyph-name="l" unicode="l" horiz-adv-x="265" 
d="M40 0v730h185v-730h-185z" />
    <glyph glyph-name="m" unicode="m" horiz-adv-x="850" 
d="M630 514c58 0 103.333 -18.168 136 -54.501s49 -88.166 49 -155.499v-304h-185v279c0 38 -17 57 -51 57c-39.333 0 -59 -24.667 -59 -74v-262h-185v279c0 38 -17 57 -51 57c-39.333 0 -59 -24.667 -59 -74v-262h-185v500h185v-47c32.667 40.667 78 61 136 61
c57.333 0 99 -20.667 125 -62c36 41.333 84 62 144 62z" />
    <glyph glyph-name="n" unicode="n" 
d="M359 514c54.667 0 98.499 -18.832 131.499 -56.499s49.5 -93.834 49.5 -168.501v-289h-185v269c0 44.667 -20.667 67 -62 67c-22 0 -38.833 -7 -50.5 -21s-17.5 -33.333 -17.5 -58v-257h-185v500h185v-49c30.667 42 75.334 63 134.001 63z" />
    <glyph glyph-name="o" unicode="o" horiz-adv-x="574" 
d="M287 -14c-74.667 0 -138.167 25.333 -190.5 76s-78.5 113.334 -78.5 188.001s26 137.334 78 188.001s115.667 76 191 76s139 -25.333 191 -76s78 -113.334 78 -188.001s-26 -137.334 -78 -188.001s-115.667 -76 -191 -76zM287 162c24.667 0 44.834 8.16699 60.501 24.5
s23.5 37.5 23.5 63.5s-7.83301 47.167 -23.5 63.5s-35.834 24.5 -60.501 24.5s-44.834 -8.16699 -60.501 -24.5s-23.5 -37.5 -23.5 -63.5s7.83301 -47.167 23.5 -63.5s35.834 -24.5 60.501 -24.5z" />
    <glyph glyph-name="p" unicode="p" horiz-adv-x="606" 
d="M359 514c67.333 0 122.333 -25 165 -75s64 -113 64 -189s-21.333 -139 -64 -189s-97.667 -75 -165 -75c-57.333 0 -102 19.667 -134 59v-245h-185v700h185v-45c32 39.333 76.667 59 134 59zM314 156c26.667 0 48.167 9 64.5 27s24.5 40.333 24.5 67s-8.16699 49 -24.5 67
s-37.833 27 -64.5 27s-48.167 -9 -64.5 -27s-24.5 -40.333 -24.5 -67s8.16699 -49 24.5 -67s37.833 -27 64.5 -27z" />
    <glyph glyph-name="q" unicode="q" horiz-adv-x="606" 
d="M381 500h185v-700h-185v245c-32 -39.333 -76.667 -59 -134 -59c-67.333 0 -122.333 25 -165 75s-64 113 -64 189s21.333 139 64 189s97.667 75 165 75c57.333 0 102 -19.667 134 -59v45zM292 156c26.667 0 48.167 9 64.5 27s24.5 40.333 24.5 67s-8.16699 49 -24.5 67
s-37.833 27 -64.5 27s-48.167 -9 -64.5 -27s-24.5 -40.333 -24.5 -67s8.16699 -49 24.5 -67s37.833 -27 64.5 -27z" />
    <glyph glyph-name="r" unicode="r" horiz-adv-x="390" 
d="M225 403c9.33301 34 27.667 60.333 55 79s59 28 95 28v-200c-40 5.33301 -75 -2.5 -105 -23.5s-45 -54.5 -45 -100.5v-186h-185v500h185v-97z" />
    <glyph glyph-name="s" unicode="s" horiz-adv-x="484" 
d="M219 353c0 -8 6.16504 -14.334 18.498 -19.001s27.833 -8.16699 46.5 -10.5s38.667 -6.83301 60 -13.5s41.333 -15 60 -25s34.167 -25.833 46.5 -47.5s18.5 -47.834 18.5 -78.501c0 -32 -7.16699 -60 -21.5 -84s-33.166 -42 -56.499 -54s-47.166 -20.833 -71.499 -26.5
s-49.5 -8.5 -75.5 -8.5c-120.667 0 -198.667 39.667 -234 119l161 72c12.667 -34 36.334 -51 71.001 -51c22.667 0 34 7.33301 34 22c0 8.66699 -8.33301 15.667 -25 21s-36.667 10.833 -60 16.5s-46.833 13.334 -70.5 23.001s-43.834 25.834 -60.501 48.501s-25 51 -25 85
c0 54.667 20.833 97 62.5 127s89.834 45 144.501 45c109.333 0 181.666 -42.333 216.999 -127l-153 -55c-12 28 -30.667 42 -56 42c-20.667 0 -31 -7 -31 -21z" />
    <glyph glyph-name="t" unicode="t" horiz-adv-x="400" 
d="M370 324l-105.001 -0.000976562v-108c0 -16.667 4 -29 12 -37s19.833 -12.5 35.5 -13.5s34.834 -0.833008 57.501 0.5v-166c-104.667 -14.667 -179.167 -5.66699 -223.5 27s-66.5 92.334 -66.5 179.001v118h-70v176h70v85l185 55v-140h105v-176z" />
    <glyph glyph-name="u" unicode="u" 
d="M350 500l185.001 -0.000976562v-500h-185v49c-30.667 -42 -75.334 -63 -134.001 -63c-54.667 0 -98.5 18.833 -131.5 56.5s-49.5 93.834 -49.5 168.501v289h185v-269c0 -44.667 20.667 -67 62 -67c22 0 38.833 7 50.5 21s17.5 33.333 17.5 58v257z" />
    <glyph glyph-name="v" unicode="v" horiz-adv-x="570" 
d="M365 500h205l-190 -500h-190l-190 500h205l80 -250z" />
    <glyph glyph-name="w" unicode="w" horiz-adv-x="830" 
d="M615 500h195l-145 -500h-188l-62 235l-62 -235h-188l-145 500h195l58 -277l72 277h140l72 -277z" />
    <glyph glyph-name="x" unicode="x" horiz-adv-x="570" 
d="M570 0h-205l-80 112l-80 -112h-205l183 256l-175 244h205l72 -101l72 101h205l-174 -244z" />
    <glyph glyph-name="y" unicode="y" horiz-adv-x="570" 
d="M360 500h210l-170 -499c-24.667 -72.667 -63 -125.167 -115 -157.5s-120.667 -46.833 -206 -43.5v175c34 0 60 2.5 78 7.5s32.333 14.167 43 27.5l-200 490h210l89 -267z" />
    <glyph glyph-name="z" unicode="z" horiz-adv-x="495" 
d="M286 170h174v-170h-420v130l164 200h-154v170h400v-130z" />
    <glyph glyph-name="braceleft" unicode="{" horiz-adv-x="365" 
d="M345 -107c-80 -4.66699 -140 10.168 -180 44.501s-60 84.833 -60 151.5v125c0 37.333 -25 54 -75 50v175c50 -4 75 12.667 75 50v125c0 66.667 20 117.167 60 151.5s100 49.166 180 44.499v-166c-36.667 4 -55 -6 -55 -30v-125c0 -69.333 -27.667 -115 -83 -137
c55.333 -23.333 83 -69.333 83 -138v-125c0 -24 18.333 -34 55 -30v-166z" />
    <glyph glyph-name="bar" unicode="|" horiz-adv-x="285" 
d="M50 -200v920h185v-920h-185z" />
    <glyph glyph-name="braceright" unicode="}" horiz-adv-x="365" 
d="M20 -107v165.998c36.667 -4 55 6 55 30v125c0 68.667 27.667 114.667 83 138c-55.333 22 -83 67.667 -83 137v125c0 24 -18.333 34 -55 30v166c80 4.66699 140 -10.166 180 -44.499s60 -84.833 60 -151.5v-125c0 -37.333 25 -54 75 -50v-175c-50 4 -75 -12.667 -75 -50
v-125c0 -66.667 -20 -117.167 -60 -151.5s-100 -49.166 -180 -44.499z" />
    <glyph glyph-name="asciitilde" unicode="~" horiz-adv-x="612" 
d="M438 471l144.001 -65c-16.667 -79.333 -50.834 -133.833 -102.501 -163.5s-109.5 -29.167 -173.5 1.5c-46 21.333 -77.333 30.666 -94 27.999s-29.334 -18.334 -38.001 -47.001l-144 65c16.667 79.333 50.834 133.833 102.501 163.5s109.5 29.167 173.5 -1.5
c45.333 -21.333 76.333 -30.666 93 -27.999s29.667 18.334 39 47.001z" />
    <glyph glyph-name="exclamdown" unicode="&#xa1;" horiz-adv-x="310" 
d="M155 515c32 0 59.167 -11.167 81.5 -33.5s33.5 -49.5 33.5 -81.5s-11.167 -59.167 -33.5 -81.5s-49.5 -33.5 -81.5 -33.5s-59.167 11.167 -81.5 33.5s-33.5 49.5 -33.5 81.5s11.167 59.167 33.5 81.5s49.5 33.5 81.5 33.5zM75 240h160l35 -240v-200h-230v200z" />
    <glyph glyph-name="cent" unicode="&#xa2;" horiz-adv-x="525" 
d="M288 264c32.667 1.33301 56.333 15.667 71 43l156 -90c-22 -40.667 -53.5 -72.667 -94.5 -96s-86.167 -35 -135.5 -35c-16.667 0 -34.334 1.66699 -53.001 5l-29 -91h-65l35 109c-47.333 20 -85 51.5 -113 94.5s-42 91.833 -42 146.5c0 75.333 25.333 138.166 76 188.499
s114.334 75.5 191.001 75.5c12 0 28.667 -1.33301 50 -4l29 90h65l-35 -108c52.667 -23.333 93 -59.666 121 -108.999l-156 -89c-4.66699 9.33301 -11.667 17.333 -21 24zM202.999 350.001c0 -27.333 9 -49 27 -65l49 151c-22 -1.33301 -40.167 -10 -54.5 -26
s-21.5 -36 -21.5 -60z" />
    <glyph glyph-name="sterling" unicode="&#xa3;" horiz-adv-x="570" 
d="M277 194l293.001 -0.000976562v-194h-550v194h57v81h-47v140h47v67c0 74.667 23.5 132.334 70.5 173.001s101.833 61 164.5 61c119.333 0 202.333 -54.667 249 -164l-173 -93c-14 46 -36 69 -66 69c-14.667 0 -25.834 -5.5 -33.501 -16.5s-11.5 -25.167 -11.5 -42.5v-54
h183v-140h-183v-81z" />
    <glyph glyph-name="currency" unicode="&#xa4;" horiz-adv-x="526" 
d="M480 350c0 -48.667 -14.667 -91.332 -44 -127.999l70 -69l-46 -46l-71 71c-36.667 -25.333 -78.667 -38 -126 -38s-89.333 12.667 -126 38l-71 -71l-46 46l69 69c-28.667 37.333 -43 80 -43 128s14.333 90.667 43 128l-69 69l46 46l71 -71
c36.667 25.333 78.667 38 126 38s89.333 -12.667 126 -38l71 71l46 -46l-70 -69c29.333 -36.667 44 -79.334 44 -128.001zM263 308.002c13.333 0 23.833 3.83301 31.5 11.5s11.5 17.834 11.5 30.501s-3.83301 22.834 -11.5 30.501s-18.167 11.5 -31.5 11.5
s-23.833 -3.83301 -31.5 -11.5s-11.5 -17.834 -11.5 -30.501s3.83301 -22.834 11.5 -30.501s18.167 -11.5 31.5 -11.5z" />
    <glyph glyph-name="yen" unicode="&#xa5;" horiz-adv-x="654" 
d="M674 700l-176 -323h79v-100h-134l-6 -11v-31h140v-100h-140v-135h-200v135h-160v100h160v31l-6 11h-154v100h99l-176 323h222l115 -246l115 246h222z" />
    <glyph glyph-name="brokenbar" unicode="&#xa6;" horiz-adv-x="285" 
d="M50 350v370h185v-370h-185zM50 -200v370h185v-370h-185z" />
    <glyph glyph-name="section" unicode="&#xa7;" horiz-adv-x="537" 
d="M517 290c0 -49.333 -17.332 -88.998 -51.999 -118.998c21.333 -28 32 -63.333 32 -106c0 -56.667 -22 -100.334 -66 -131.001s-98 -46 -162 -46c-116.667 0 -193.667 42.333 -231 127l153 78c17.333 -38 43.333 -57 78 -57c29.333 0 44 9.66699 44 29
c0 6 -2.16699 11.5 -6.5 16.5s-11.166 9.66699 -20.499 14s-18.5 8.16602 -27.5 11.499l-36 13l-38.5 14c-102.667 41.333 -154 103.333 -154 186c0 51.333 18.333 92 55 122c-16.667 28 -25 60.333 -25 97c0 56 20.833 99.5 62.5 130.5s90.167 46.5 145.5 46.5
c104 0 177.667 -44 221 -132l-148 -70c-12.667 41.333 -33.667 62 -63 62c-10 0 -18.167 -2.5 -24.5 -7.5s-9.5 -11.5 -9.5 -19.5c0 -7.33301 2.5 -14 7.5 -20s12.5 -11.667 22.5 -17s20 -10 30 -14s23.167 -9 39.5 -15s30.166 -11.333 41.499 -16
c41.333 -18 73.666 -40.5 96.999 -67.5s35 -63.5 35 -109.5zM210.001 325.002c0 -15.333 11.6689 -28.668 35.002 -40.001c2 -0.666992 12.333 -5 31 -13c9.33301 -4 24.666 -9.33301 45.999 -16c10 6.66699 15 16.334 15 29.001c0 4 -0.666992 7.66699 -2 11
s-2.83301 6 -4.5 8s-4.66699 4.33301 -9 7s-7.83301 4.66699 -10.5 6s-7.33398 3.33301 -14.001 6l-15 6c-6.66699 3.33301 -27 11 -61 23c-7.33301 -7.33301 -11 -16.333 -11 -27z" />
    <glyph glyph-name="dieresis" unicode="&#xa8;" horiz-adv-x="400" 
d="M105 530c-23.333 0 -43.333 8.33301 -60 25s-25 36.667 -25 60s8.33301 43.333 25 60s36.667 25 60 25s43.333 -8.33301 60 -25s25 -36.667 25 -60s-8.33301 -43.333 -25 -60s-36.667 -25 -60 -25zM305 530c-23.333 0 -43.333 8.33301 -60 25s-25 36.667 -25 60
s8.33301 43.333 25 60s36.667 25 60 25s43.333 -8.33301 60 -25s25 -36.667 25 -60s-8.33301 -43.333 -25 -60s-36.667 -25 -60 -25z" />
    <glyph glyph-name="copyright" unicode="&#xa9;" horiz-adv-x="774" 
d="M387 -12c-100 0 -185.333 35.333 -256 106s-106 156 -106 256s35.333 185.333 106 256s156 106 256 106s185.333 -35.333 256 -106s106 -156 106 -256s-35.333 -185.333 -106 -256s-156 -106 -256 -106zM387 34c86 0 159.5 30.833 220.5 92.5s91.5 136.167 91.5 223.5
s-30.5 161.833 -91.5 223.5s-134.5 92.5 -220.5 92.5s-159.5 -30.833 -220.5 -92.5s-91.5 -136.167 -91.5 -223.5s30.5 -161.833 91.5 -223.5s134.5 -92.5 220.5 -92.5zM390 153c-54.667 0 -101.499 19.5 -140.499 58.5s-58.5 85.167 -58.5 138.5s19.5 99.5 58.5 138.5
s85.833 58.5 140.5 58.5c34.667 0 66.667 -8.5 96 -25.5s53 -41.167 71 -72.5l-127 -73c-10 16 -24.667 24 -44 24c-14.667 0 -26.667 -5 -36 -15s-14 -21.667 -14 -35s4.66699 -25 14 -35s21.333 -15 36 -15c19.333 0 34 8 44 24l128 -73
c-18 -31.333 -41.833 -55.5 -71.5 -72.5s-61.834 -25.5 -96.501 -25.5z" />
    <glyph glyph-name="guillemotleft" unicode="&#xab;" horiz-adv-x="577" 
d="M317 509l-115 -200l115 -200h-152l-115 200l115 200h152zM527 509l-115 -200l115 -200h-152l-115 200l115 200h152z" />
    <glyph glyph-name="logicalnot" unicode="&#xac;" horiz-adv-x="580" 
d="M30 440h520v-300h-190v120h-330v180z" />
    <glyph glyph-name="registered" unicode="&#xae;" horiz-adv-x="774" 
d="M387 712c100 0 185.333 -35.333 256 -106s106 -156 106 -256s-35.333 -185.333 -106 -256s-156 -106 -256 -106s-185.333 35.333 -256 106s-106 156 -106 256s35.333 185.333 106 256s156 106 256 106zM387 34c86 0 159.5 30.833 220.5 92.5s91.5 136.167 91.5 223.5
s-30.5 161.833 -91.5 223.5s-134.5 92.5 -220.5 92.5s-159.5 -30.833 -220.5 -92.5s-91.5 -136.167 -91.5 -223.5s30.5 -161.833 91.5 -223.5s134.5 -92.5 220.5 -92.5zM566 406c0 -48.667 -17 -87.334 -51 -116.001l71 -125h-151l-48 92h-13v-92h-142v370h194
c38 0 70.833 -12.167 98.5 -36.5s41.5 -55.166 41.5 -92.499zM396 415h-22v-48h22c18.667 0 28 8 28 24s-9.33301 24 -28 24z" />
    <glyph glyph-name="macron" unicode="&#xaf;" horiz-adv-x="360" 
d="M20 549v140h320v-140h-320z" />
    <glyph glyph-name="degree" unicode="&#xb0;" horiz-adv-x="426" 
d="M213 450c-52 0 -95.5029 17.5 -130.503 52.5s-52.5 77.5 -52.5 127.5c0 50.667 17.333 93.334 52 128.001s78.334 52 131.001 52s96.334 -17.333 131.001 -52s52 -77.334 52 -128.001c0 -50 -17.167 -92.5 -51.5 -127.5s-78.166 -52.5 -131.499 -52.5zM212.997 590
c12 0 21.499 3.66699 28.499 11s10.5 17 10.5 29c0 11.333 -3.66699 20.833 -11 28.5s-16.666 11.5 -27.999 11.5s-20.666 -3.83301 -27.999 -11.5s-11 -17.167 -11 -28.5s3.66699 -20.833 11 -28.5s16.666 -11.5 27.999 -11.5z" />
    <glyph glyph-name="plusminus" unicode="&#xb1;" horiz-adv-x="560" 
d="M370 540h160v-180h-160v-130h-180v130h-160v180h160v130h180v-130zM30 0v180h500v-180h-500z" />
    <glyph glyph-name="acute" unicode="&#xb4;" horiz-adv-x="330" 
d="M20 550h174l116 150h-210z" />
    <glyph glyph-name="uni00B5" unicode="&#xb5;" horiz-adv-x="595" 
d="M570 160h14.999v-160h-80c-52.667 0 -92.667 16.667 -120 50c-28 -44 -76 -66 -144 -66c-7.33301 0 -12.666 0.333008 -15.999 1v-185h-185v700h185v-271c0 -44.667 20.667 -67 62 -67c22 0 38.833 7 50.5 21s17.5 33.333 17.5 58v259h185v-310c0 -20 10 -30 30 -30z" />
    <glyph glyph-name="paragraph" unicode="&#xb6;" horiz-adv-x="760" 
d="M740 700v-194h-72v-706h-180v706h-58v-706h-180v440c-64 0 -118.333 22.5 -163 67.5s-67 99.167 -67 162.5c0 64 22.333 118.333 67 163s99 67 163 67h490z" />
    <glyph glyph-name="periodcentered" unicode="&#xb7;" horiz-adv-x="300" 
d="M150 240c-32 0 -59.167 11.167 -81.5 33.5s-33.5 49.5 -33.5 81.5s11.167 59.167 33.5 81.5s49.5 33.5 81.5 33.5s59.167 -11.167 81.5 -33.5s33.5 -49.5 33.5 -81.5s-11.167 -59.167 -33.5 -81.5s-49.5 -33.5 -81.5 -33.5z" />
    <glyph glyph-name="cedilla" unicode="&#xb8;" horiz-adv-x="285" 
d="M212 -46c35.333 -14.667 53 -40.333 53 -77c0 -37.333 -20.333 -65 -61 -83s-102 -24.667 -184 -20v114c63.333 -4.66699 95 0 95 14c0 10 -17.667 16.667 -53 20v78h150v-46z" />
    <glyph glyph-name="guillemotright" unicode="&#xbb;" horiz-adv-x="577" 
d="M202 509l115 -200l-115 -200h-152l115 200l-115 200h152zM412 509l115 -200l-115 -200h-152l115 200l-115 200h152z" />
    <glyph glyph-name="onequarter" unicode="&#xbc;" horiz-adv-x="825" 
d="M111 300v251l-78 -19l-33 120l132 48h121v-400h-142zM509 700h130l-410 -700h-130zM815 171v-120h-33v-51h-128v51h-190v120l110 229h147l-104 -229h37v66h128v-66h33z" />
    <glyph glyph-name="onehalf" unicode="&#xbd;" horiz-adv-x="810" 
d="M111 300v251l-78 -19l-33 120l132 48h121v-400h-142zM509 700h130l-410 -700h-130zM681 125l107 -0.00195312v-125h-306v102l140 131c18 16.667 27 30.334 27 41.001c0 12 -6.66699 18 -20 18c-15.333 0 -28.333 -14 -39 -42l-116 66c33.333 65.333 87.333 98 162 98
c40.667 0 76 -12.167 106 -36.5s45 -56.166 45 -95.499c0 -42 -23.333 -83.667 -70 -125z" />
    <glyph glyph-name="threequarters" unicode="&#xbe;" horiz-adv-x="869" 
d="M328 429c0 -45.333 -15.167 -80.5 -45.5 -105.5s-69.833 -37.5 -118.5 -37.5c-79.333 0 -134 32.667 -164 98l114 65c10 -26.667 26.667 -40 50 -40c18.667 0 28 6.66699 28 20c0 12.667 -7.66699 19 -23 19h-32l-50 75l48 54h-114v123h292v-89l-64 -72
c52.667 -20 79 -56.667 79 -110zM553 700h130l-410 -700h-130zM859 171v-120h-33v-51h-128v51h-190v120l110 229h147l-104 -229h37v66h128v-66h33z" />
    <glyph glyph-name="questiondown" unicode="&#xbf;" horiz-adv-x="532" 
d="M277 515c32 0 59.167 -11.167 81.5 -33.5s33.5 -49.5 33.5 -81.5s-11.167 -59.167 -33.5 -81.5s-49.5 -33.5 -81.5 -33.5s-59.167 11.167 -81.5 33.5s-33.5 49.5 -33.5 81.5s11.167 59.167 33.5 81.5s49.5 33.5 81.5 33.5zM367 240
c0 -28.667 -7.16797 -55.332 -21.501 -79.999s-30 -44 -47 -58s-32.667 -29 -47 -45s-21.5 -31 -21.5 -45c0 -10.667 3.66699 -19.334 11 -26.001s17.333 -10 30 -10c32.667 0 60 24.333 82 73l169 -96c-24 -56.667 -59 -99 -105 -127s-97.333 -42 -154 -42
c-67.333 0 -123 17.833 -167 53.5s-66 83.5 -66 143.5c0 28 5.33301 54 16 78s23.667 43.833 39 59.5s30.833 30.167 46.5 43.5s28.834 26.5 39.501 39.5s16 25.833 16 38.5h180z" />
    <glyph glyph-name="Agrave" unicode="&#xc0;" horiz-adv-x="660" 
d="M430 750h-174l-116 150h210zM455 0l-24 90h-202l-24 -90h-215l223 700h234l223 -700h-215zM272 250h116l-58 215z" />
    <glyph glyph-name="Aacute" unicode="&#xc1;" horiz-adv-x="660" 
d="M510 900l-116 -150h-174l80 150h210zM455 0l-24 90h-202l-24 -90h-215l223 700h234l223 -700h-215zM272 250h116l-58 215z" />
    <glyph glyph-name="Acircumflex" unicode="&#xc2;" horiz-adv-x="660" 
d="M325 798l-45 -58h-155l106 160h188l106 -160h-155zM455 0l-24 90h-202l-24 -90h-215l223 700h234l223 -700h-215zM272 250h116l-58 215z" />
    <glyph glyph-name="Atilde" unicode="&#xc3;" horiz-adv-x="660" 
d="M326 757c-3.33301 1.33301 -7.99805 3.5 -13.998 6.5s-10.5 5.16699 -13.5 6.5s-6.66699 2.5 -11 3.5s-7.5 0.5 -9.5 -1.5s-3.66699 -5.33301 -5 -10s-2 -11 -2 -19h-120c0 40 5.66699 73 17 99s26.333 43.667 45 53s38.167 14 58.5 14s41.166 -4.33301 62.499 -13
c3.33301 -1.33301 8.16602 -3.5 14.499 -6.5l14 -6.5c3 -1.33301 6.66699 -2.5 11 -3.5s7.5 -0.5 9.5 1.5s3.66699 5.33301 5 10s2 11 2 19h120c0 -40.667 -5.66699 -74.167 -17 -100.5s-26.333 -44 -45 -53s-38.167 -13.333 -58.5 -13s-41.5 4.83301 -63.5 13.5zM455.002 0
l-24 90h-202l-24 -90h-215l223 700h234l223 -700h-215zM272.002 250h116l-58 215z" />
    <glyph glyph-name="Adieresis" unicode="&#xc4;" horiz-adv-x="660" 
d="M230 730c-23.333 0 -43.333 8.33301 -60 25s-25 36.667 -25 60s8.33301 43.333 25 60s36.667 25 60 25s43.333 -8.33301 60 -25s25 -36.667 25 -60s-8.33301 -43.333 -25 -60s-36.667 -25 -60 -25zM430 730c-23.333 0 -43.333 8.33301 -60 25s-25 36.667 -25 60
s8.33301 43.333 25 60s36.667 25 60 25s43.333 -8.33301 60 -25s25 -36.667 25 -60s-8.33301 -43.333 -25 -60s-36.667 -25 -60 -25zM455 0l-24 90h-202l-24 -90h-215l223 700h234l223 -700h-215zM272 250h116l-58 215z" />
    <glyph glyph-name="Aring" unicode="&#xc5;" horiz-adv-x="660" 
d="M455 0l-24 90h-202l-24 -90h-215l219 686c-18.667 24 -28 52 -28 84c0 40 14 73.333 42 100s63.667 40 107 40c44.667 0 80.667 -13.167 108 -39.5s41 -59.833 41 -100.5c0 -32 -9 -60.333 -27 -85l218 -685h-215zM330 800c-10 0 -17.667 -2.83105 -23 -8.49805
s-8 -12.834 -8 -21.501s2.66699 -15.834 8 -21.501s13 -8.5 23 -8.5c21.333 0 32 10 32 30s-10.667 30 -32 30zM272 250.002h116l-58 215z" />
    <glyph glyph-name="AE" unicode="&#xc6;" horiz-adv-x="890" 
d="M635 184h225v-184h-420v90h-182l-48 -90h-220l389 700h476v-182h-220v-76h195v-180h-195v-78zM345 250h95v177z" />
    <glyph glyph-name="Ccedilla" unicode="&#xc7;" horiz-adv-x="718" 
d="M391 180c30 0 56.832 6.66797 80.499 20.001s41.167 31.666 52.5 54.999l174 -100c-51.333 -86.667 -128 -141 -230 -163v-38c35.333 -14.667 53 -40.334 53 -77.001c0 -37.333 -20.333 -65 -61 -83s-102 -24.667 -184 -20v114c63.333 -4.66699 95 0 95 14
c0 10 -17.667 16.667 -53 20v69c-86.667 15.333 -157.167 56.333 -211.5 123s-81.5 145.334 -81.5 236.001c0 104 34.667 191 104 261s156.666 105 261.999 105c64.667 0 124.334 -15.333 179.001 -46s97.334 -72 128.001 -124l-174 -100c-11.333 22.667 -29 40.667 -53 54
s-50.667 20 -80 20c-49.333 0 -89.333 -16 -120 -48s-46 -72.667 -46 -122s15.333 -90 46 -122s70.667 -48 120 -48z" />
    <glyph glyph-name="Egrave" unicode="&#xc8;" horiz-adv-x="540" 
d="M378 750h-174l-116 150h210zM250 184h260v-184h-460v700h455v-182h-255v-76h230v-180h-230v-78z" />
    <glyph glyph-name="Eacute" unicode="&#xc9;" horiz-adv-x="540" 
d="M458 900l-116 -150h-174l80 150h210zM250 184h260v-184h-460v700h455v-182h-255v-76h230v-180h-230v-78z" />
    <glyph glyph-name="Ecircumflex" unicode="&#xca;" horiz-adv-x="540" 
d="M273 798l-45 -58h-155l106 160h188l106 -160h-155zM250 184h260v-184h-460v700h455v-182h-255v-76h230v-180h-230v-78z" />
    <glyph glyph-name="Edieresis" unicode="&#xcb;" horiz-adv-x="540" 
d="M178 730c-23.333 0 -43.333 8.33301 -60 25s-25 36.667 -25 60s8.33301 43.333 25 60s36.667 25 60 25s43.333 -8.33301 60 -25s25 -36.667 25 -60s-8.33301 -43.333 -25 -60s-36.667 -25 -60 -25zM378 730c-23.333 0 -43.333 8.33301 -60 25s-25 36.667 -25 60
s8.33301 43.333 25 60s36.667 25 60 25s43.333 -8.33301 60 -25s25 -36.667 25 -60s-8.33301 -43.333 -25 -60s-36.667 -25 -60 -25zM250 184h260v-184h-460v700h455v-182h-255v-76h230v-180h-230v-78z" />
    <glyph glyph-name="Igrave" unicode="&#xcc;" horiz-adv-x="300" 
d="M250 750l-80 150h-210l116 -150h174zM50 700h200v-700h-200v700z" />
    <glyph glyph-name="Iacute" unicode="&#xcd;" horiz-adv-x="300" 
d="M40 750h174l116 150h-210zM50 700h200v-700h-200v700z" />
    <glyph glyph-name="Icircumflex" unicode="&#xce;" horiz-adv-x="300" 
d="M145 798l-45 -58h-155l106 160h188l106 -160h-155zM50 0v700h200v-700h-200z" />
    <glyph glyph-name="Idieresis" unicode="&#xcf;" horiz-adv-x="300" 
d="M50 730c-23.333 0 -43.333 8.33301 -60 25s-25 36.667 -25 60s8.33301 43.333 25 60s36.667 25 60 25s43.333 -8.33301 60 -25s25 -36.667 25 -60s-8.33301 -43.333 -25 -60s-36.667 -25 -60 -25zM250 730c-23.333 0 -43.333 8.33301 -60 25s-25 36.667 -25 60
s8.33301 43.333 25 60s36.667 25 60 25s43.333 -8.33301 60 -25s25 -36.667 25 -60s-8.33301 -43.333 -25 -60s-36.667 -25 -60 -25zM50 700h200v-700h-200v700z" />
    <glyph glyph-name="Eth" unicode="&#xd0;" horiz-adv-x="725" 
d="M360 700c96.667 0 177.5 -33.5 242.5 -100.5s97.5 -150.167 97.5 -249.5s-32.5 -182.5 -97.5 -249.5s-145.833 -100.5 -242.5 -100.5h-290v258h-70v174h70v268h290zM360 194c40.667 0 74.167 14.5 100.5 43.5s39.5 66.5 39.5 112.5s-13.167 83.5 -39.5 112.5
s-59.833 43.5 -100.5 43.5h-80v-74h120v-174h-120v-64h80z" />
    <glyph glyph-name="Ntilde" unicode="&#xd1;" horiz-adv-x="680" 
d="M146 743c0 40 5.66895 73 17.002 99s26.333 43.667 45 53s38.167 14 58.5 14s41.166 -4.33301 62.499 -13c3.33301 -1.33301 8.16602 -3.5 14.499 -6.5l14 -6.5c3 -1.33301 6.66699 -2.5 11 -3.5s7.5 -0.5 9.5 1.5s3.66699 5.33301 5 10s2 11 2 19h120
c0 -40.667 -5.66699 -74.167 -17 -100.5s-26.333 -44 -45 -53s-38.167 -13.333 -58.5 -13s-41.5 4.83301 -63.5 13.5c-3.33301 1.33301 -8 3.5 -14 6.5s-10.5 5.16699 -13.5 6.5s-6.66699 2.5 -11 3.5s-7.5 0.5 -9.5 -1.5s-3.66699 -5.33301 -5 -10s-2 -11 -2 -19h-120z
M430.002 700h200v-700h-160l-220 320v-320h-200v700h160l220 -320v320z" />
    <glyph glyph-name="Ograve" unicode="&#xd2;" horiz-adv-x="792" 
d="M496 760l-80 150h-210l116 -150h174zM396 -16c-104 0 -191.833 35.167 -263.5 105.5s-107.5 157.166 -107.5 260.499s35.833 190.166 107.5 260.499s159.5 105.5 263.5 105.5s191.833 -35.167 263.5 -105.5s107.5 -157.166 107.5 -260.499
s-35.833 -190.166 -107.5 -260.499s-159.5 -105.5 -263.5 -105.5zM396 180c49.333 0 90.166 16.167 122.499 48.5s48.5 72.833 48.5 121.5s-16.167 89.167 -48.5 121.5s-73.166 48.5 -122.499 48.5s-90.166 -16.167 -122.499 -48.5s-48.5 -72.833 -48.5 -121.5
s16.167 -89.167 48.5 -121.5s73.166 -48.5 122.499 -48.5z" />
    <glyph glyph-name="Oacute" unicode="&#xd3;" horiz-adv-x="792" 
d="M286 760h174l116 150h-210zM396 -16c-104 0 -191.833 35.167 -263.5 105.5s-107.5 157.166 -107.5 260.499s35.833 190.166 107.5 260.499s159.5 105.5 263.5 105.5s191.833 -35.167 263.5 -105.5s107.5 -157.166 107.5 -260.499s-35.833 -190.166 -107.5 -260.499
s-159.5 -105.5 -263.5 -105.5zM396 180c49.333 0 90.166 16.167 122.499 48.5s48.5 72.833 48.5 121.5s-16.167 89.167 -48.5 121.5s-73.166 48.5 -122.499 48.5s-90.166 -16.167 -122.499 -48.5s-48.5 -72.833 -48.5 -121.5s16.167 -89.167 48.5 -121.5
s73.166 -48.5 122.499 -48.5z" />
    <glyph glyph-name="Ocircumflex" unicode="&#xd4;" horiz-adv-x="792" 
d="M391 808l-45 -58h-155l106 160h188l106 -160h-155zM396 716c104 0 191.833 -35.167 263.5 -105.5s107.5 -157.166 107.5 -260.499s-35.833 -190.166 -107.5 -260.499s-159.5 -105.5 -263.5 -105.5s-191.833 35.167 -263.5 105.5s-107.5 157.166 -107.5 260.499
s35.833 190.166 107.5 260.499s159.5 105.5 263.5 105.5zM396 180c49.333 0 90.166 16.167 122.499 48.5s48.5 72.833 48.5 121.5s-16.167 89.167 -48.5 121.5s-73.166 48.5 -122.499 48.5s-90.166 -16.167 -122.499 -48.5s-48.5 -72.833 -48.5 -121.5
s16.167 -89.167 48.5 -121.5s73.166 -48.5 122.499 -48.5z" />
    <glyph glyph-name="Otilde" unicode="&#xd5;" horiz-adv-x="792" 
d="M217 753c0 40 5.66895 73 17.002 99s26.333 43.667 45 53s38.167 14 58.5 14s41.166 -4.33301 62.499 -13c3.33301 -1.33301 8.16602 -3.5 14.499 -6.5l14 -6.5c3 -1.33301 6.66699 -2.5 11 -3.5s7.5 -0.5 9.5 1.5s3.66699 5.33301 5 10s2 11 2 19h120
c0 -40.667 -5.66699 -74.167 -17 -100.5s-26.333 -44 -45 -53s-38.167 -13.333 -58.5 -13s-41.5 4.83301 -63.5 13.5c-3.33301 1.33301 -8 3.5 -14 6.5s-10.5 5.16699 -13.5 6.5s-6.66699 2.5 -11 3.5s-7.5 0.5 -9.5 -1.5s-3.66699 -5.33301 -5 -10s-2 -11 -2 -19h-120z
M396.002 -16c-104 0 -191.833 35.167 -263.5 105.5s-107.5 157.166 -107.5 260.499s35.833 190.166 107.5 260.499s159.5 105.5 263.5 105.5s191.833 -35.167 263.5 -105.5s107.5 -157.166 107.5 -260.499s-35.833 -190.166 -107.5 -260.499s-159.5 -105.5 -263.5 -105.5z
M396.002 180c49.333 0 90.166 16.167 122.499 48.5s48.5 72.833 48.5 121.5s-16.167 89.167 -48.5 121.5s-73.166 48.5 -122.499 48.5s-90.166 -16.167 -122.499 -48.5s-48.5 -72.833 -48.5 -121.5s16.167 -89.167 48.5 -121.5s73.166 -48.5 122.499 -48.5z" />
    <glyph glyph-name="Odieresis" unicode="&#xd6;" horiz-adv-x="792" 
d="M296 740c-23.333 0 -43.333 8.33301 -60 25s-25 36.667 -25 60s8.33301 43.333 25 60s36.667 25 60 25s43.333 -8.33301 60 -25s25 -36.667 25 -60s-8.33301 -43.333 -25 -60s-36.667 -25 -60 -25zM496 740c-23.333 0 -43.333 8.33301 -60 25s-25 36.667 -25 60
s8.33301 43.333 25 60s36.667 25 60 25s43.333 -8.33301 60 -25s25 -36.667 25 -60s-8.33301 -43.333 -25 -60s-36.667 -25 -60 -25zM396 -16c-104 0 -191.833 35.167 -263.5 105.5s-107.5 157.166 -107.5 260.499s35.833 190.166 107.5 260.499s159.5 105.5 263.5 105.5
s191.833 -35.167 263.5 -105.5s107.5 -157.166 107.5 -260.499s-35.833 -190.166 -107.5 -260.499s-159.5 -105.5 -263.5 -105.5zM396 180c49.333 0 90.166 16.167 122.499 48.5s48.5 72.833 48.5 121.5s-16.167 89.167 -48.5 121.5s-73.166 48.5 -122.499 48.5
s-90.166 -16.167 -122.499 -48.5s-48.5 -72.833 -48.5 -121.5s16.167 -89.167 48.5 -121.5s73.166 -48.5 122.499 -48.5z" />
    <glyph glyph-name="multiply" unicode="&#xd7;" horiz-adv-x="553" 
d="M523 469l-119 -119l119 -119l-127 -128l-119 120l-120 -120l-127 128l119 119l-119 119l127 128l120 -119l119 119z" />
    <glyph glyph-name="Oslash" unicode="&#xd8;" horiz-adv-x="797" 
d="M667 608c70 -71.333 105 -157.333 105 -258c0 -103.333 -35.833 -190.166 -107.5 -260.499s-159.5 -105.5 -263.5 -105.5c-73.333 0 -140 18.667 -200 56l-44 -54l-75 42l53 64c-70 71.333 -105 157.333 -105 258c0 103.333 35.833 190.166 107.5 260.499
s159.5 105.5 263.5 105.5c73.333 0 140 -18.667 200 -56l44 54l75 -42zM230 350c0 -38 10.666 -72 31.999 -102l212 257c-22 10 -46.333 15 -73 15c-49.333 0 -90.166 -16.167 -122.499 -48.5s-48.5 -72.833 -48.5 -121.5zM400.999 180c49.333 0 90.167 16.167 122.5 48.5
s48.5 72.833 48.5 121.5c0 38 -10.667 72 -32 102l-212 -257c22 -10 46.333 -15 73 -15z" />
    <glyph glyph-name="Ugrave" unicode="&#xd9;" horiz-adv-x="650" 
d="M425 750l-80 150h-210l116 -150h174zM325 -16c-84.667 0 -153.332 23 -205.999 69s-79 106.333 -79 181v466h200v-444c0 -52 28.333 -78 85 -78s85 26 85 78v444h200v-466c0 -74.667 -26.333 -135 -79 -181s-121.334 -69 -206.001 -69z" />
    <glyph glyph-name="Uacute" unicode="&#xda;" horiz-adv-x="650" 
d="M215 750h174l116 150h-210zM325 -16c-84.667 0 -153.332 23 -205.999 69s-79 106.333 -79 181v466h200v-444c0 -52 28.333 -78 85 -78s85 26 85 78v444h200v-466c0 -74.667 -26.333 -135 -79 -181s-121.334 -69 -206.001 -69z" />
    <glyph glyph-name="Ucircumflex" unicode="&#xdb;" horiz-adv-x="650" 
d="M320 798l-45 -58h-155l106 160h188l106 -160h-155zM410 700h200.002v-466c0 -74.667 -26.333 -135 -79 -181s-121.334 -69 -206.001 -69s-153.334 23 -206.001 69s-79 106.333 -79 181v466h200v-444c0 -52 28.333 -78 85 -78s85 26 85 78v444z" />
    <glyph glyph-name="Udieresis" unicode="&#xdc;" horiz-adv-x="650" 
d="M225 730c-23.333 0 -43.333 8.33301 -60 25s-25 36.667 -25 60s8.33301 43.333 25 60s36.667 25 60 25s43.333 -8.33301 60 -25s25 -36.667 25 -60s-8.33301 -43.333 -25 -60s-36.667 -25 -60 -25zM425 730c-23.333 0 -43.333 8.33301 -60 25s-25 36.667 -25 60
s8.33301 43.333 25 60s36.667 25 60 25s43.333 -8.33301 60 -25s25 -36.667 25 -60s-8.33301 -43.333 -25 -60s-36.667 -25 -60 -25zM325 -16c-84.667 0 -153.332 23 -205.999 69s-79 106.333 -79 181v466h200v-444c0 -52 28.333 -78 85 -78s85 26 85 78v444h200v-466
c0 -74.667 -26.333 -135 -79 -181s-121.334 -69 -206.001 -69z" />
    <glyph glyph-name="Yacute" unicode="&#xdd;" horiz-adv-x="674" 
d="M517 900l-116 -150h-174l80 150h210zM674 700l-237 -434v-266h-200v266l-237 434h222l115 -246l115 246h222z" />
    <glyph glyph-name="Thorn" unicode="&#xde;" horiz-adv-x="595" 
d="M330 602c72.667 0 133.334 -22.833 182.001 -68.5s73 -106.5 73 -182.5s-24.333 -136.833 -73 -182.5s-109.334 -68.5 -182.001 -68.5h-80v-99h-200v700h200v-99h80zM330 294c15.333 0 28.333 5.16895 39 15.502s16 24.166 16 41.499s-5.33301 31.166 -16 41.499
s-23.667 15.5 -39 15.5h-80v-114h80z" />
    <glyph glyph-name="germandbls" unicode="&#xdf;" horiz-adv-x="559" 
d="M271 -3l0.000976562 165.998c65.333 -8.66699 98 4 98 38c0 21.333 -14.167 54.5 -42.5 99.5s-42.5 75.5 -42.5 91.5c0 12.667 5.66699 30.5 17 53.5s17 43.167 17 60.5c0 33.333 -14.667 50 -44 50c-16 0 -28.167 -5.5 -36.5 -16.5s-12.5 -25.167 -12.5 -42.5v-497h-185
v488c0 72.667 22 128.834 66 168.501s102 59.5 174 59.5c72.667 0 129.667 -18.5 171 -55.5s62 -79.5 62 -127.5c0 -26.667 -7.5 -52.667 -22.5 -78s-22.5 -44.666 -22.5 -57.999c0 -15.333 7.16699 -35 21.5 -59s28.666 -52.167 42.999 -84.5s21.5 -66.833 21.5 -103.5
c0 -58.667 -22 -102.667 -66 -132s-116.333 -36.333 -217 -21z" />
    <glyph glyph-name="agrave" unicode="&#xe0;" horiz-adv-x="606" 
d="M403 550h-174l-116 150h210zM381 500h185v-500h-185v45c-32 -39.333 -76.667 -59 -134 -59c-67.333 0 -122.333 25 -165 75s-64 113 -64 189s21.333 139 64 189s97.667 75 165 75c57.333 0 102 -19.667 134 -59v45zM292 156c26.667 0 48.167 9 64.5 27
s24.5 40.333 24.5 67s-8.16699 49 -24.5 67s-37.833 27 -64.5 27s-48.167 -9 -64.5 -27s-24.5 -40.333 -24.5 -67s8.16699 -49 24.5 -67s37.833 -27 64.5 -27z" />
    <glyph glyph-name="aacute" unicode="&#xe1;" horiz-adv-x="606" 
d="M483 700l-116 -150h-174l80 150h210zM381 500h185v-500h-185v45c-32 -39.333 -76.667 -59 -134 -59c-67.333 0 -122.333 25 -165 75s-64 113 -64 189s21.333 139 64 189s97.667 75 165 75c57.333 0 102 -19.667 134 -59v45zM292 156c26.667 0 48.167 9 64.5 27
s24.5 40.333 24.5 67s-8.16699 49 -24.5 67s-37.833 27 -64.5 27s-48.167 -9 -64.5 -27s-24.5 -40.333 -24.5 -67s8.16699 -49 24.5 -67s37.833 -27 64.5 -27z" />
    <glyph glyph-name="acircumflex" unicode="&#xe2;" horiz-adv-x="606" 
d="M298 598l-45 -58h-155l106 160h188l106 -160h-155zM381 500h185v-500h-185v45c-32 -39.333 -76.667 -59 -134 -59c-67.333 0 -122.333 25 -165 75s-64 113 -64 189s21.333 139 64 189s97.667 75 165 75c57.333 0 102 -19.667 134 -59v45zM292 156
c26.667 0 48.167 9 64.5 27s24.5 40.333 24.5 67s-8.16699 49 -24.5 67s-37.833 27 -64.5 27s-48.167 -9 -64.5 -27s-24.5 -40.333 -24.5 -67s8.16699 -49 24.5 -67s37.833 -27 64.5 -27z" />
    <glyph glyph-name="atilde" unicode="&#xe3;" horiz-adv-x="606" 
d="M299 557c-3.33301 1.33301 -7.99805 3.5 -13.998 6.5s-10.5 5.16699 -13.5 6.5s-6.66699 2.5 -11 3.5s-7.5 0.5 -9.5 -1.5s-3.66699 -5.33301 -5 -10s-2 -11 -2 -19h-120c0 40 5.66699 73 17 99s26.333 43.667 45 53s38.167 14 58.5 14s41.166 -4.33301 62.499 -13
c3.33301 -1.33301 8.16602 -3.5 14.499 -6.5l14 -6.5c3 -1.33301 6.66699 -2.5 11 -3.5s7.5 -0.5 9.5 1.5s3.66699 5.33301 5 10s2 11 2 19h120c0 -40.667 -5.66699 -74.167 -17 -100.5s-26.333 -44 -45 -53s-38.167 -13.333 -58.5 -13s-41.5 4.83301 -63.5 13.5z
M381.002 500h185v-500h-185v45c-32 -39.333 -76.667 -59 -134 -59c-67.333 0 -122.333 25 -165 75s-64 113 -64 189s21.333 139 64 189s97.667 75 165 75c57.333 0 102 -19.667 134 -59v45zM292.002 156c26.667 0 48.167 9 64.5 27s24.5 40.333 24.5 67
s-8.16699 49 -24.5 67s-37.833 27 -64.5 27s-48.167 -9 -64.5 -27s-24.5 -40.333 -24.5 -67s8.16699 -49 24.5 -67s37.833 -27 64.5 -27z" />
    <glyph glyph-name="adieresis" unicode="&#xe4;" horiz-adv-x="606" 
d="M203 530c-23.333 0 -43.333 8.33301 -60 25s-25 36.667 -25 60s8.33301 43.333 25 60s36.667 25 60 25s43.333 -8.33301 60 -25s25 -36.667 25 -60s-8.33301 -43.333 -25 -60s-36.667 -25 -60 -25zM403 530c-23.333 0 -43.333 8.33301 -60 25s-25 36.667 -25 60
s8.33301 43.333 25 60s36.667 25 60 25s43.333 -8.33301 60 -25s25 -36.667 25 -60s-8.33301 -43.333 -25 -60s-36.667 -25 -60 -25zM381 500h185v-500h-185v45c-32 -39.333 -76.667 -59 -134 -59c-67.333 0 -122.333 25 -165 75s-64 113 -64 189s21.333 139 64 189
s97.667 75 165 75c57.333 0 102 -19.667 134 -59v45zM292 156c26.667 0 48.167 9 64.5 27s24.5 40.333 24.5 67s-8.16699 49 -24.5 67s-37.833 27 -64.5 27s-48.167 -9 -64.5 -27s-24.5 -40.333 -24.5 -67s8.16699 -49 24.5 -67s37.833 -27 64.5 -27z" />
    <glyph glyph-name="aring" unicode="&#xe5;" horiz-adv-x="606" 
d="M303 530c-43.333 0 -79 13.333 -107 40s-42 60 -42 100s14 73.333 42 100s63.667 40 107 40c44.667 0 80.667 -13.167 108 -39.5s41 -59.833 41 -100.5s-13.667 -74.167 -41 -100.5s-63.333 -39.5 -108 -39.5zM303 700c-10 0 -17.667 -2.83105 -23 -8.49805
s-8 -12.834 -8 -21.501s2.66699 -15.834 8 -21.501s13 -8.5 23 -8.5c21.333 0 32 10 32 30s-10.667 30 -32 30zM381 500.002h185v-500h-185v45c-32 -39.333 -76.667 -59 -134 -59c-67.333 0 -122.333 25 -165 75s-64 113 -64 189s21.333 139 64 189s97.667 75 165 75
c57.333 0 102 -19.667 134 -59v45zM292 156.002c26.667 0 48.167 9 64.5 27s24.5 40.333 24.5 67s-8.16699 49 -24.5 67s-37.833 27 -64.5 27s-48.167 -9 -64.5 -27s-24.5 -40.333 -24.5 -67s8.16699 -49 24.5 -67s37.833 -27 64.5 -27z" />
    <glyph glyph-name="ae" unicode="&#xe6;" horiz-adv-x="922" 
d="M569 187c18 -40 52.999 -59.998 104.999 -59.998c36.667 0 67.334 12.667 92.001 38l115 -93c-47.333 -57.333 -109 -86 -185 -86c-60.667 0 -110.667 19 -150 57v-43h-165v34c-32 -32 -73.333 -48 -124 -48c-68 0 -124.833 25.167 -170.5 75.5
s-68.5 113.166 -68.5 188.499s22.833 138.166 68.5 188.499s102.5 75.5 170.5 75.5c50.667 0 92 -16 124 -48v34h165v-37c35.333 34 80 51 134 51c64 0 117.833 -25.167 161.5 -75.5s65.5 -112.5 65.5 -186.5c0 -22 -2.66699 -43.667 -8 -65h-330zM563.999 306.002h168.999
c-11.333 40 -38.666 60 -81.999 60c-42.667 0 -71.667 -20 -87 -60zM291.998 160.002c26.667 0 48.167 8.33301 64.5 25s24.5 38.334 24.5 65.001s-8.16699 48.334 -24.5 65.001s-37.833 25 -64.5 25s-48.167 -8.33301 -64.5 -25s-24.5 -38.334 -24.5 -65.001
s8.16699 -48.334 24.5 -65.001s37.833 -25 64.5 -25z" />
    <glyph glyph-name="ccedilla" unicode="&#xe7;" horiz-adv-x="525" 
d="M285 164c34.667 0 59.332 14.335 73.999 43.002l156 -90c-33.333 -60 -83.666 -100 -150.999 -120v-43c35.333 -14.667 53 -40.334 53 -77.001c0 -37.333 -20.333 -65 -61 -83s-102 -24.667 -184 -20v114c63.333 -4.66699 95 0 95 14c0 10 -17.667 16.667 -53 20v73
c-58.667 14.667 -106 45.167 -142 91.5s-54 100.833 -54 163.5c0 75.333 25.333 138.166 76 188.499s114.334 75.5 191.001 75.5c49.333 0 94.5 -11.833 135.5 -35.5s72.5 -55.5 94.5 -95.5l-156 -89c-16.667 28 -41.334 42 -74.001 42
c-23.333 0 -42.833 -8.16699 -58.5 -24.5s-23.5 -36.833 -23.5 -61.5s7.83301 -45.167 23.5 -61.5s35.167 -24.5 58.5 -24.5z" />
    <glyph glyph-name="egrave" unicode="&#xe8;" horiz-adv-x="560" 
d="M390 560h-174l-116 150h210zM205 187c16 -33.333 50 -50 102 -50c30.667 0 59 10.667 85 32l121 -102c-50 -54 -120.667 -81 -212 -81c-85.333 0 -153.833 24.833 -205.5 74.5s-77.5 112.167 -77.5 187.5c0 76 25.167 139.333 75.5 190s113.833 76 190.5 76
c76 0 138.5 -24.833 187.5 -74.5s73.5 -112.167 73.5 -187.5c0 -22 -2.66699 -43.667 -8 -65h-332zM202 306h168c-11.333 40 -38.333 60 -81 60c-43.333 0 -72.333 -20 -87 -60z" />
    <glyph glyph-name="eacute" unicode="&#xe9;" horiz-adv-x="560" 
d="M470 710l-116 -150h-174l80 150h210zM205 187c16 -33.333 50 -50 102 -50c30.667 0 59 10.667 85 32l121 -102c-50 -54 -120.667 -81 -212 -81c-85.333 0 -153.833 24.833 -205.5 74.5s-77.5 112.167 -77.5 187.5c0 76 25.167 139.333 75.5 190s113.833 76 190.5 76
c76 0 138.5 -24.833 187.5 -74.5s73.5 -112.167 73.5 -187.5c0 -22 -2.66699 -43.667 -8 -65h-332zM202 306h168c-11.333 40 -38.333 60 -81 60c-43.333 0 -72.333 -20 -87 -60z" />
    <glyph glyph-name="ecircumflex" unicode="&#xea;" horiz-adv-x="560" 
d="M285 608l-45 -58h-155l106 160h188l106 -160h-155zM205 187c16 -33.333 50 -50 102 -50c30.667 0 59 10.667 85 32l121 -102c-50 -54 -120.667 -81 -212 -81c-85.333 0 -153.833 24.833 -205.5 74.5s-77.5 112.167 -77.5 187.5c0 76 25.167 139.333 75.5 190
s113.833 76 190.5 76c76 0 138.5 -24.833 187.5 -74.5s73.5 -112.167 73.5 -187.5c0 -22 -2.66699 -43.667 -8 -65h-332zM202 306h168c-11.333 40 -38.333 60 -81 60c-43.333 0 -72.333 -20 -87 -60z" />
    <glyph glyph-name="edieresis" unicode="&#xeb;" horiz-adv-x="560" 
d="M190 540c-23.333 0 -43.333 8.33301 -60 25s-25 36.667 -25 60s8.33301 43.333 25 60s36.667 25 60 25s43.333 -8.33301 60 -25s25 -36.667 25 -60s-8.33301 -43.333 -25 -60s-36.667 -25 -60 -25zM390 540c-23.333 0 -43.333 8.33301 -60 25s-25 36.667 -25 60
s8.33301 43.333 25 60s36.667 25 60 25s43.333 -8.33301 60 -25s25 -36.667 25 -60s-8.33301 -43.333 -25 -60s-36.667 -25 -60 -25zM205 187c16 -33.333 50 -50 102 -50c30.667 0 59 10.667 85 32l121 -102c-50 -54 -120.667 -81 -212 -81
c-85.333 0 -153.833 24.833 -205.5 74.5s-77.5 112.167 -77.5 187.5c0 76 25.167 139.333 75.5 190s113.833 76 190.5 76c76 0 138.5 -24.833 187.5 -74.5s73.5 -112.167 73.5 -187.5c0 -22 -2.66699 -43.667 -8 -65h-332zM202 306h168c-11.333 40 -38.333 60 -81 60
c-43.333 0 -72.333 -20 -87 -60z" />
    <glyph glyph-name="igrave" unicode="&#xec;" horiz-adv-x="265" 
d="M220 550l-40 150h-210l76 -150h174zM225 0h-185v500h185v-500z" />
    <glyph glyph-name="iacute" unicode="&#xed;" horiz-adv-x="265" 
d="M40 550h174l76 150h-210zM40 0v500h185v-500h-185z" />
    <glyph glyph-name="icircumflex" unicode="&#xee;" horiz-adv-x="265" 
d="M132 593l-35 -53h-145l86 160h188l86 -160h-145zM40 0v500h185v-500h-185z" />
    <glyph glyph-name="idieresis" unicode="&#xef;" horiz-adv-x="265" 
d="M42 540c-22 0 -40.833 7.83301 -56.5 23.5s-23.5 34.5 -23.5 56.5s7.83301 40.833 23.5 56.5s34.5 23.5 56.5 23.5s40.833 -7.83301 56.5 -23.5s23.5 -34.5 23.5 -56.5s-7.83301 -40.833 -23.5 -56.5s-34.5 -23.5 -56.5 -23.5zM222 540c-22 0 -40.833 7.83301 -56.5 23.5
s-23.5 34.5 -23.5 56.5s7.83301 40.833 23.5 56.5s34.5 23.5 56.5 23.5s40.833 -7.83301 56.5 -23.5s23.5 -34.5 23.5 -56.5s-7.83301 -40.833 -23.5 -56.5s-34.5 -23.5 -56.5 -23.5zM40 0v500h185v-500h-185z" />
    <glyph glyph-name="eth" unicode="&#xf0;" horiz-adv-x="562" 
d="M498 370c30.667 -42 46 -88.668 46 -140.001c0 -73.333 -26.167 -132.666 -78.5 -177.999s-113.833 -68 -184.5 -68c-74.667 0 -137.167 22.333 -187.5 67s-75.5 104.334 -75.5 179.001c0 54.667 18.333 103.667 55 147s82.667 70.666 138 81.999l-25 36l-121 -38v140
l39 12l-64 91h212l27 -36l143 45v-140l-59 -18zM281 148.999c23.333 0 42.167 6.66699 56.5 20s21.5 32.333 21.5 57c0 16 -4.66699 30.667 -14 44c-16 19.333 -37.333 29 -64 29c-23.333 0 -42.166 -6.5 -56.499 -19.5s-21.5 -30.833 -21.5 -53.5
c0 -24.667 7.16699 -43.667 21.5 -57s33.166 -20 56.499 -20z" />
    <glyph glyph-name="ntilde" unicode="&#xf1;" 
d="M291 567c-3.33301 1.33301 -7.99805 3.5 -13.998 6.5s-10.5 5.16699 -13.5 6.5s-6.66699 2.5 -11 3.5s-7.5 0.5 -9.5 -1.5s-3.66699 -5.33301 -5 -10s-2 -11 -2 -19h-120c0 40 5.66699 73 17 99s26.333 43.667 45 53s38.167 14 58.5 14s41.166 -4.33301 62.499 -13
c3.33301 -1.33301 8.16602 -3.5 14.499 -6.5l14 -6.5c3 -1.33301 6.66699 -2.5 11 -3.5s7.5 -0.5 9.5 1.5s3.66699 5.33301 5 10s2 11 2 19h120c0 -40.667 -5.66699 -74.167 -17 -100.5s-26.333 -44 -45 -53s-38.167 -13.333 -58.5 -13s-41.5 4.83301 -63.5 13.5z
M359.002 514c54.667 0 98.499 -18.832 131.499 -56.499s49.5 -93.834 49.5 -168.501v-289h-185v269c0 44.667 -20.667 67 -62 67c-22 0 -38.833 -7 -50.5 -21s-17.5 -33.333 -17.5 -58v-257h-185v500h185v-49c30.667 42 75.334 63 134.001 63z" />
    <glyph glyph-name="ograve" unicode="&#xf2;" horiz-adv-x="574" 
d="M387 560l-80 150h-210l116 -150h174zM287 -14c-74.667 0 -138.167 25.333 -190.5 76s-78.5 113.334 -78.5 188.001s26 137.334 78 188.001s115.667 76 191 76s139 -25.333 191 -76s78 -113.334 78 -188.001s-26 -137.334 -78 -188.001s-115.667 -76 -191 -76zM287 162
c24.667 0 44.834 8.16699 60.501 24.5s23.5 37.5 23.5 63.5s-7.83301 47.167 -23.5 63.5s-35.834 24.5 -60.501 24.5s-44.834 -8.16699 -60.501 -24.5s-23.5 -37.5 -23.5 -63.5s7.83301 -47.167 23.5 -63.5s35.834 -24.5 60.501 -24.5z" />
    <glyph glyph-name="oacute" unicode="&#xf3;" horiz-adv-x="574" 
d="M177 560h174l116 150h-210zM287 -14c-74.667 0 -138.167 25.333 -190.5 76s-78.5 113.334 -78.5 188.001s26 137.334 78 188.001s115.667 76 191 76s139 -25.333 191 -76s78 -113.334 78 -188.001s-26 -137.334 -78 -188.001s-115.667 -76 -191 -76zM287 162
c24.667 0 44.834 8.16699 60.501 24.5s23.5 37.5 23.5 63.5s-7.83301 47.167 -23.5 63.5s-35.834 24.5 -60.501 24.5s-44.834 -8.16699 -60.501 -24.5s-23.5 -37.5 -23.5 -63.5s7.83301 -47.167 23.5 -63.5s35.834 -24.5 60.501 -24.5z" />
    <glyph glyph-name="ocircumflex" unicode="&#xf4;" horiz-adv-x="574" 
d="M282 608l-45 -58h-155l106 160h188l106 -160h-155zM287 514c75.333 0 139 -25.333 191 -76s78 -113.334 78 -188.001s-26 -137.334 -78 -188.001s-115.667 -76 -191 -76c-74.667 0 -138.167 25.333 -190.5 76s-78.5 113.334 -78.5 188.001s26 137.334 78 188.001
s115.667 76 191 76zM287 162c24.667 0 44.834 8.16699 60.501 24.5s23.5 37.5 23.5 63.5s-7.83301 47.167 -23.5 63.5s-35.834 24.5 -60.501 24.5s-44.834 -8.16699 -60.501 -24.5s-23.5 -37.5 -23.5 -63.5s7.83301 -47.167 23.5 -63.5s35.834 -24.5 60.501 -24.5z" />
    <glyph glyph-name="otilde" unicode="&#xf5;" horiz-adv-x="574" 
d="M108 553c0 40 5.66895 73 17.002 99s26.333 43.667 45 53s38.167 14 58.5 14s41.166 -4.33301 62.499 -13c3.33301 -1.33301 8.16602 -3.5 14.499 -6.5l14 -6.5c3 -1.33301 6.66699 -2.5 11 -3.5s7.5 -0.5 9.5 1.5s3.66699 5.33301 5 10s2 11 2 19h120
c0 -40.667 -5.66699 -74.167 -17 -100.5s-26.333 -44 -45 -53s-38.167 -13.333 -58.5 -13s-41.5 4.83301 -63.5 13.5c-3.33301 1.33301 -8 3.5 -14 6.5s-10.5 5.16699 -13.5 6.5s-6.66699 2.5 -11 3.5s-7.5 0.5 -9.5 -1.5s-3.66699 -5.33301 -5 -10s-2 -11 -2 -19h-120z
M287.002 -14c-74.667 0 -138.167 25.333 -190.5 76s-78.5 113.334 -78.5 188.001s26 137.334 78 188.001s115.667 76 191 76s139 -25.333 191 -76s78 -113.334 78 -188.001s-26 -137.334 -78 -188.001s-115.667 -76 -191 -76zM287.002 162
c24.667 0 44.834 8.16699 60.501 24.5s23.5 37.5 23.5 63.5s-7.83301 47.167 -23.5 63.5s-35.834 24.5 -60.501 24.5s-44.834 -8.16699 -60.501 -24.5s-23.5 -37.5 -23.5 -63.5s7.83301 -47.167 23.5 -63.5s35.834 -24.5 60.501 -24.5z" />
    <glyph glyph-name="odieresis" unicode="&#xf6;" horiz-adv-x="574" 
d="M187 540c-23.333 0 -43.333 8.33301 -60 25s-25 36.667 -25 60s8.33301 43.333 25 60s36.667 25 60 25s43.333 -8.33301 60 -25s25 -36.667 25 -60s-8.33301 -43.333 -25 -60s-36.667 -25 -60 -25zM387 540c-23.333 0 -43.333 8.33301 -60 25s-25 36.667 -25 60
s8.33301 43.333 25 60s36.667 25 60 25s43.333 -8.33301 60 -25s25 -36.667 25 -60s-8.33301 -43.333 -25 -60s-36.667 -25 -60 -25zM287 -14c-74.667 0 -138.167 25.333 -190.5 76s-78.5 113.334 -78.5 188.001s26 137.334 78 188.001s115.667 76 191 76
s139 -25.333 191 -76s78 -113.334 78 -188.001s-26 -137.334 -78 -188.001s-115.667 -76 -191 -76zM287 162c24.667 0 44.834 8.16699 60.501 24.5s23.5 37.5 23.5 63.5s-7.83301 47.167 -23.5 63.5s-35.834 24.5 -60.501 24.5s-44.834 -8.16699 -60.501 -24.5
s-23.5 -37.5 -23.5 -63.5s7.83301 -47.167 23.5 -63.5s35.834 -24.5 60.501 -24.5z" />
    <glyph glyph-name="divide" unicode="&#xf7;" horiz-adv-x="540" 
d="M270 462c-28.667 0 -52.5 9.5 -71.5 28.5s-28.5 42.833 -28.5 71.5s9.5 52.5 28.5 71.5s42.833 28.5 71.5 28.5s52.5 -9.5 71.5 -28.5s28.5 -42.833 28.5 -71.5s-9.5 -52.5 -28.5 -71.5s-42.833 -28.5 -71.5 -28.5zM30 260v180h480v-180h-480zM270 38
c-28.667 0 -52.5 9.5 -71.5 28.5s-28.5 42.833 -28.5 71.5s9.5 52.5 28.5 71.5s42.833 28.5 71.5 28.5s52.5 -9.5 71.5 -28.5s28.5 -42.833 28.5 -71.5s-9.5 -52.5 -28.5 -71.5s-42.833 -28.5 -71.5 -28.5z" />
    <glyph glyph-name="oslash" unicode="&#xf8;" horiz-adv-x="574" 
d="M482 434c49.333 -50.667 74 -111.999 74 -183.999c0 -74.667 -26 -137.334 -78 -188.001s-115.667 -76 -191 -76c-49.333 0 -96 12.333 -140 37l-30 -37l-61 34l37 46c-50 51.333 -75 112.666 -75 183.999c0 74.667 26 137.334 78 188.001s115.667 76 191 76
c50 0 97 -12.333 141 -37l30 37l61 -35zM203 250.001c0 -14 2.66797 -27.333 8.00098 -40l101 125c-8 2 -16.333 3 -25 3c-24.667 0 -44.834 -8.16699 -60.501 -24.5s-23.5 -37.5 -23.5 -63.5zM287.001 162.001c24.667 0 44.833 8.16602 60.5 24.499s23.5 37.5 23.5 63.5
c0 12.667 -2.33301 25.334 -7 38.001l-101 -123c8 -2 16 -3 24 -3z" />
    <glyph glyph-name="ugrave" unicode="&#xf9;" 
d="M385 550h-174l-116 150h210zM350 500l185.001 -0.000976562v-500h-185v49c-30.667 -42 -75.334 -63 -134.001 -63c-54.667 0 -98.5 18.833 -131.5 56.5s-49.5 93.834 -49.5 168.501v289h185v-269c0 -44.667 20.667 -67 62 -67c22 0 38.833 7 50.5 21s17.5 33.333 17.5 58
v257z" />
    <glyph glyph-name="uacute" unicode="&#xfa;" 
d="M465 700l-116 -150h-174l80 150h210zM350 500l185.001 -0.000976562v-500h-185v49c-30.667 -42 -75.334 -63 -134.001 -63c-54.667 0 -98.5 18.833 -131.5 56.5s-49.5 93.834 -49.5 168.501v289h185v-269c0 -44.667 20.667 -67 62 -67c22 0 38.833 7 50.5 21
s17.5 33.333 17.5 58v257z" />
    <glyph glyph-name="ucircumflex" unicode="&#xfb;" 
d="M280 598l-45 -58h-155l106 160h188l106 -160h-155zM350 500l185.001 -0.000976562v-500h-185v49c-30.667 -42 -75.334 -63 -134.001 -63c-54.667 0 -98.5 18.833 -131.5 56.5s-49.5 93.834 -49.5 168.501v289h185v-269c0 -44.667 20.667 -67 62 -67
c22 0 38.833 7 50.5 21s17.5 33.333 17.5 58v257z" />
    <glyph glyph-name="udieresis" unicode="&#xfc;" 
d="M185 530c-23.333 0 -43.333 8.33301 -60 25s-25 36.667 -25 60s8.33301 43.333 25 60s36.667 25 60 25s43.333 -8.33301 60 -25s25 -36.667 25 -60s-8.33301 -43.333 -25 -60s-36.667 -25 -60 -25zM385 530c-23.333 0 -43.333 8.33301 -60 25s-25 36.667 -25 60
s8.33301 43.333 25 60s36.667 25 60 25s43.333 -8.33301 60 -25s25 -36.667 25 -60s-8.33301 -43.333 -25 -60s-36.667 -25 -60 -25zM350 500l185.001 -0.000976562v-500h-185v49c-30.667 -42 -75.334 -63 -134.001 -63c-54.667 0 -98.5 18.833 -131.5 56.5
s-49.5 93.834 -49.5 168.501v289h185v-269c0 -44.667 20.667 -67 62 -67c22 0 38.833 7 50.5 21s17.5 33.333 17.5 58v257z" />
    <glyph glyph-name="yacute" unicode="&#xfd;" horiz-adv-x="570" 
d="M471 700l-116 -150h-174l80 150h210zM360 500h210l-170 -499c-24.667 -72.667 -63 -125.167 -115 -157.5s-120.667 -46.833 -206 -43.5v175c34 0 60 2.5 78 7.5s32.333 14.167 43 27.5l-200 490h210l89 -267z" />
    <glyph glyph-name="thorn" unicode="&#xfe;" horiz-adv-x="606" 
d="M359 514c67.333 0 122.333 -25 165 -75s64 -113 64 -189s-21.333 -139 -64 -189s-97.667 -75 -165 -75c-57.333 0 -102 19.667 -134 59v-245h-185v900h185v-245c32 39.333 76.667 59 134 59zM314 156c26.667 0 48.167 9 64.5 27s24.5 40.333 24.5 67
s-8.16699 49 -24.5 67s-37.833 27 -64.5 27s-48.167 -9 -64.5 -27s-24.5 -40.333 -24.5 -67s8.16699 -49 24.5 -67s37.833 -27 64.5 -27z" />
    <glyph glyph-name="ydieresis" unicode="&#xff;" horiz-adv-x="570" 
d="M191 530c-23.333 0 -43.333 8.33301 -60 25s-25 36.667 -25 60s8.33301 43.333 25 60s36.667 25 60 25s43.333 -8.33301 60 -25s25 -36.667 25 -60s-8.33301 -43.333 -25 -60s-36.667 -25 -60 -25zM391 530c-23.333 0 -43.333 8.33301 -60 25s-25 36.667 -25 60
s8.33301 43.333 25 60s36.667 25 60 25s43.333 -8.33301 60 -25s25 -36.667 25 -60s-8.33301 -43.333 -25 -60s-36.667 -25 -60 -25zM360 500h210l-170 -499c-24.667 -72.667 -63 -125.167 -115 -157.5s-120.667 -46.833 -206 -43.5v175c34 0 60 2.5 78 7.5
s32.333 14.167 43 27.5l-200 490h210l89 -267z" />
    <glyph glyph-name="Amacron" unicode="&#x100;" horiz-adv-x="660" 
d="M490 889v-140h-320v140h320zM455 0l-24 90h-202l-24 -90h-215l223 700h234l223 -700h-215zM272 250h116l-58 215z" />
    <glyph glyph-name="amacron" unicode="&#x101;" horiz-adv-x="606" 
d="M463 689v-140h-320v140h320zM381 500h185v-500h-185v45c-32 -39.333 -76.667 -59 -134 -59c-67.333 0 -122.333 25 -165 75s-64 113 -64 189s21.333 139 64 189s97.667 75 165 75c57.333 0 102 -19.667 134 -59v45zM292 156c26.667 0 48.167 9 64.5 27
s24.5 40.333 24.5 67s-8.16699 49 -24.5 67s-37.833 27 -64.5 27s-48.167 -9 -64.5 -27s-24.5 -40.333 -24.5 -67s8.16699 -49 24.5 -67s37.833 -27 64.5 -27z" />
    <glyph glyph-name="Abreve" unicode="&#x102;" horiz-adv-x="660" 
d="M330 732c-59.333 0 -105 14.333 -137 43s-48 71 -48 127h150c0 -26.667 11.667 -40 35 -40s35 13.333 35 40h150c0 -56 -16 -98.333 -48 -127s-77.667 -43 -137 -43zM455 0l-24 90h-202l-24 -90h-215l223 700h234l223 -700h-215zM272 250h116l-58 215z" />
    <glyph glyph-name="abreve" unicode="&#x103;" horiz-adv-x="606" 
d="M303 532c-59.333 0 -105 14.333 -137 43s-48 71 -48 127h150c0 -26.667 11.667 -40 35 -40s35 13.333 35 40h150c0 -56 -16 -98.333 -48 -127s-77.667 -43 -137 -43zM381 500h185v-500h-185v45c-32 -39.333 -76.667 -59 -134 -59c-67.333 0 -122.333 25 -165 75
s-64 113 -64 189s21.333 139 64 189s97.667 75 165 75c57.333 0 102 -19.667 134 -59v45zM292 156c26.667 0 48.167 9 64.5 27s24.5 40.333 24.5 67s-8.16699 49 -24.5 67s-37.833 27 -64.5 27s-48.167 -9 -64.5 -27s-24.5 -40.333 -24.5 -67s8.16699 -49 24.5 -67
s37.833 -27 64.5 -27z" />
    <glyph glyph-name="Aogonek" unicode="&#x104;" horiz-adv-x="660" 
d="M630 -71c0 -12.667 7 -19 21 -19c6.66699 0 13 1 19 3v-110c-28 -11.333 -57.333 -17 -88 -17c-32 0 -58.333 7.66699 -79 23s-31 38 -31 68c0 40.667 19.667 81.667 59 123h-76l-24 90h-202l-24 -90h-215l223 700h234l223 -700c-26.667 -27.333 -40 -51 -40 -71z
M272 250h116l-58 215z" />
    <glyph glyph-name="aogonek" unicode="&#x105;" horiz-adv-x="606" 
d="M566 500v-500c-26.667 -27.333 -40 -51 -40 -71c0 -12.667 7 -19 21 -19c6.66699 0 13 1 19 3v-110c-28 -11.333 -57.333 -17 -88 -17c-32 0 -58.333 7.66699 -79 23s-31 38 -31 68c0 40.667 19.667 81.667 59 123h-46v45c-32 -39.333 -76.667 -59 -134 -59
c-67.333 0 -122.333 25 -165 75s-64 113 -64 189s21.333 139 64 189s97.667 75 165 75c57.333 0 102 -19.667 134 -59v45h185zM292 156c26.667 0 48.167 9 64.5 27s24.5 40.333 24.5 67s-8.16699 49 -24.5 67s-37.833 27 -64.5 27s-48.167 -9 -64.5 -27
s-24.5 -40.333 -24.5 -67s8.16699 -49 24.5 -67s37.833 -27 64.5 -27z" />
    <glyph glyph-name="Cacute" unicode="&#x106;" horiz-adv-x="718" 
d="M281 760h174l116 150h-210zM391 -16c-105.333 0 -192.666 35.002 -261.999 105.002s-104 157 -104 261s34.667 191 104 261s156.666 105 261.999 105c64.667 0 124.334 -15.333 179.001 -46s97.334 -72 128.001 -124l-174 -100c-11.333 22.667 -29 40.667 -53 54
s-50.667 20 -80 20c-49.333 0 -89.333 -16 -120 -48s-46 -72.667 -46 -122s15.333 -90 46 -122s70.667 -48 120 -48c30 0 56.833 6.66699 80.5 20s41.167 31.666 52.5 54.999l174 -100c-30.667 -52.667 -73.334 -94.334 -128.001 -125.001s-114.334 -46 -179.001 -46z" />
    <glyph glyph-name="cacute" unicode="&#x107;" horiz-adv-x="525" 
d="M174 560h174l116 150h-210zM285 -14c-76.667 0 -140.334 25.1689 -191.001 75.502s-76 113.166 -76 188.499s25.333 138.166 76 188.499s114.334 75.5 191.001 75.5c49.333 0 94.5 -11.833 135.5 -35.5s72.5 -55.5 94.5 -95.5l-156 -89c-16.667 28 -41.334 42 -74.001 42
c-23.333 0 -42.833 -8.16699 -58.5 -24.5s-23.5 -36.833 -23.5 -61.5s7.83301 -45.167 23.5 -61.5s35.167 -24.5 58.5 -24.5c34.667 0 59.334 14.333 74.001 43l156 -90c-22 -40.667 -53.5 -72.667 -94.5 -96s-86.167 -35 -135.5 -35z" />
    <glyph glyph-name="Cdotaccent" unicode="&#x10a;" horiz-adv-x="718" 
d="M391 750c-26 0 -48.333 9.33301 -67 28s-28 41 -28 67s9.33301 48.333 28 67s41 28 67 28s48.333 -9.33301 67 -28s28 -41 28 -67s-9.33301 -48.333 -28 -67s-41 -28 -67 -28zM391 -16c-105.333 0 -192.666 35.002 -261.999 105.002s-104 157 -104 261
s34.667 191 104 261s156.666 105 261.999 105c64.667 0 124.334 -15.333 179.001 -46s97.334 -72 128.001 -124l-174 -100c-11.333 22.667 -29 40.667 -53 54s-50.667 20 -80 20c-49.333 0 -89.333 -16 -120 -48s-46 -72.667 -46 -122s15.333 -90 46 -122
s70.667 -48 120 -48c30 0 56.833 6.66699 80.5 20s41.167 31.666 52.5 54.999l174 -100c-30.667 -52.667 -73.334 -94.334 -128.001 -125.001s-114.334 -46 -179.001 -46z" />
    <glyph glyph-name="cdotaccent" unicode="&#x10b;" horiz-adv-x="525" 
d="M284 550c-26 0 -48.333 9.33301 -67 28s-28 41 -28 67s9.33301 48.333 28 67s41 28 67 28s48.333 -9.33301 67 -28s28 -41 28 -67s-9.33301 -48.333 -28 -67s-41 -28 -67 -28zM285 -14c-76.667 0 -140.334 25.1689 -191.001 75.502s-76 113.166 -76 188.499
s25.333 138.166 76 188.499s114.334 75.5 191.001 75.5c49.333 0 94.5 -11.833 135.5 -35.5s72.5 -55.5 94.5 -95.5l-156 -89c-16.667 28 -41.334 42 -74.001 42c-23.333 0 -42.833 -8.16699 -58.5 -24.5s-23.5 -36.833 -23.5 -61.5s7.83301 -45.167 23.5 -61.5
s35.167 -24.5 58.5 -24.5c34.667 0 59.334 14.333 74.001 43l156 -90c-22 -40.667 -53.5 -72.667 -94.5 -96s-86.167 -35 -135.5 -35z" />
    <glyph glyph-name="Ccaron" unicode="&#x10c;" horiz-adv-x="718" 
d="M292 750l-106 160h155l45 -58l45 58h155l-106 -160h-188zM391 180c30 0 56.833 6.66895 80.5 20.002s41.167 31.666 52.5 54.999l174 -100c-30.667 -52.667 -73.334 -94.334 -128.001 -125.001s-114.334 -46 -179.001 -46c-105.333 0 -192.666 35 -261.999 105
s-104 157 -104 261s34.667 191 104 261s156.666 105 261.999 105c64.667 0 124.334 -15.333 179.001 -46s97.334 -72 128.001 -124l-174 -100c-11.333 22.667 -29 40.667 -53 54s-50.667 20 -80 20c-49.333 0 -89.333 -16 -120 -48s-46 -72.667 -46 -122s15.333 -90 46 -122
s70.667 -48 120 -48z" />
    <glyph glyph-name="ccaron" unicode="&#x10d;" horiz-adv-x="525" 
d="M185 550l-106 160h155l45 -58l45 58h155l-106 -160h-188zM285 164c34.667 0 59.334 14.335 74.001 43.002l156 -90c-22 -40.667 -53.5 -72.667 -94.5 -96s-86.167 -35 -135.5 -35c-76.667 0 -140.334 25.167 -191.001 75.5s-76 113.166 -76 188.499
s25.333 138.166 76 188.499s114.334 75.5 191.001 75.5c49.333 0 94.5 -11.833 135.5 -35.5s72.5 -55.5 94.5 -95.5l-156 -89c-16.667 28 -41.334 42 -74.001 42c-23.333 0 -42.833 -8.16699 -58.5 -24.5s-23.5 -36.833 -23.5 -61.5s7.83301 -45.167 23.5 -61.5
s35.167 -24.5 58.5 -24.5z" />
    <glyph glyph-name="Dcaron" unicode="&#x10e;" horiz-adv-x="705" 
d="M231 740l-106 160h155l45 -58l45 58h155l-106 -160h-188zM340 700c96.667 0 177.5 -33.5 242.5 -100.5s97.5 -150.167 97.5 -249.5s-32.5 -182.5 -97.5 -249.5s-145.833 -100.5 -242.5 -100.5h-290v700h290zM340 194c40.667 0 74.167 14.5 100.5 43.5
s39.5 66.5 39.5 112.5s-13.167 83.5 -39.5 112.5s-59.833 43.5 -100.5 43.5h-80v-312h80z" />
    <glyph glyph-name="dcaron" unicode="&#x10f;" horiz-adv-x="766" 
d="M381 455v245h185v-700h-185v45c-32 -39.333 -76.667 -59 -134 -59c-67.333 0 -122.333 25 -165 75s-64 113 -64 189s21.333 139 64 189s97.667 75 165 75c57.333 0 102 -19.667 134 -59zM616 700h170l-40 -230h-140zM292 156c26.667 0 48.167 9 64.5 27
s24.5 40.333 24.5 67s-8.16699 49 -24.5 67s-37.833 27 -64.5 27s-48.167 -9 -64.5 -27s-24.5 -40.333 -24.5 -67s8.16699 -49 24.5 -67s37.833 -27 64.5 -27z" />
    <glyph glyph-name="Dcroat" unicode="&#x110;" horiz-adv-x="725" 
d="M360 700c96.667 0 177.5 -33.5 242.5 -100.5s97.5 -150.167 97.5 -249.5s-32.5 -182.5 -97.5 -249.5s-145.833 -100.5 -242.5 -100.5h-290v258h-70v174h70v268h290zM360 194c40.667 0 74.167 14.5 100.5 43.5s39.5 66.5 39.5 112.5s-13.167 83.5 -39.5 112.5
s-59.833 43.5 -100.5 43.5h-80v-74h120v-174h-120v-64h80z" />
    <glyph glyph-name="dcroat" unicode="&#x111;" horiz-adv-x="621" 
d="M621 645v-119h-55v-526h-185v33c-32.667 -31.333 -74 -47 -124 -47c-67.333 0 -124 24.667 -170 74s-69 109.333 -69 180s23 130.667 69 180s102.667 74 170 74c50 0 91.333 -15.667 124 -47v79h-130v119h130v55h185v-55h55zM292 151c26 0 47.333 8.66699 64 26
s25 38.333 25 63s-8.33301 45.667 -25 63s-38 26 -64 26s-47.333 -8.66699 -64 -26s-25 -38.333 -25 -63s8.33301 -45.667 25 -63s38 -26 64 -26z" />
    <glyph glyph-name="Emacron" unicode="&#x112;" horiz-adv-x="540" 
d="M438 889v-140h-320v140h320zM250 184h260v-184h-460v700h455v-182h-255v-76h230v-180h-230v-78z" />
    <glyph glyph-name="emacron" unicode="&#x113;" horiz-adv-x="560" 
d="M450 699v-140h-320v140h320zM205 187c16 -33.333 50 -50 102 -50c30.667 0 59 10.667 85 32l121 -102c-50 -54 -120.667 -81 -212 -81c-85.333 0 -153.833 24.833 -205.5 74.5s-77.5 112.167 -77.5 187.5c0 76 25.167 139.333 75.5 190s113.833 76 190.5 76
c76 0 138.5 -24.833 187.5 -74.5s73.5 -112.167 73.5 -187.5c0 -22 -2.66699 -43.667 -8 -65h-332zM202 306h168c-11.333 40 -38.333 60 -81 60c-43.333 0 -72.333 -20 -87 -60z" />
    <glyph glyph-name="Edotaccent" unicode="&#x116;" horiz-adv-x="540" 
d="M278 740c-26 0 -48.333 9.33301 -67 28s-28 41 -28 67s9.33301 48.333 28 67s41 28 67 28s48.333 -9.33301 67 -28s28 -41 28 -67s-9.33301 -48.333 -28 -67s-41 -28 -67 -28zM250 184h260v-184h-460v700h455v-182h-255v-76h230v-180h-230v-78z" />
    <glyph glyph-name="edotaccent" unicode="&#x117;" horiz-adv-x="560" 
d="M290 550c-26 0 -48.333 9.33301 -67 28s-28 41 -28 67s9.33301 48.333 28 67s41 28 67 28s48.333 -9.33301 67 -28s28 -41 28 -67s-9.33301 -48.333 -28 -67s-41 -28 -67 -28zM205 187c16 -33.333 50 -50 102 -50c30.667 0 59 10.667 85 32l121 -102
c-50 -54 -120.667 -81 -212 -81c-85.333 0 -153.833 24.833 -205.5 74.5s-77.5 112.167 -77.5 187.5c0 76 25.167 139.333 75.5 190s113.833 76 190.5 76c76 0 138.5 -24.833 187.5 -74.5s73.5 -112.167 73.5 -187.5c0 -22 -2.66699 -43.667 -8 -65h-332zM202 306h168
c-11.333 40 -38.333 60 -81 60c-43.333 0 -72.333 -20 -87 -60z" />
    <glyph glyph-name="Eogonek" unicode="&#x118;" horiz-adv-x="540" 
d="M510 184v-184c-26.667 -27.333 -40 -51 -40 -71c0 -12.667 7 -19 21 -19c6.66699 0 13 1 19 3v-110c-28 -11.333 -57.333 -17 -88 -17c-32 0 -58.333 7.66699 -79 23s-31 38 -31 68c0 40.667 19.667 81.667 59 123h-321v700h455v-182h-255v-76h230v-180h-230v-78h260z
" />
    <glyph glyph-name="eogonek" unicode="&#x119;" horiz-adv-x="560" 
d="M205 187c16 -33.333 50 -50 102 -50c30.667 0 59 10.667 85 32l113 -96l8 4l-5 -6l5 -4c-10.667 -10.667 -19 -18.334 -25 -23.001c-45.333 -60.667 -68 -99 -68 -115c0 -12.667 7 -19 21 -19c6.66699 0 13 1 19 3v-110c-28 -11.333 -57.333 -17 -88 -17
c-32 0 -58.333 7.66699 -79 23s-31 38 -31 68c0 36.667 24 73.334 72 110.001c-7.33301 -0.666992 -18.333 -1 -33 -1c-85.333 0 -153.833 24.833 -205.5 74.5s-77.5 112.167 -77.5 187.5c0 76 25.167 139.333 75.5 190s113.833 76 190.5 76c76 0 138.5 -24.833 187.5 -74.5
s73.5 -112.167 73.5 -187.5c0 -22 -2.66699 -43.667 -8 -65h-332zM202 306h168c-11.333 40 -38.333 60 -81 60c-43.333 0 -72.333 -20 -87 -60z" />
    <glyph glyph-name="Ecaron" unicode="&#x11a;" horiz-adv-x="540" 
d="M179 740l-106 160h155l45 -58l45 58h155l-106 -160h-188zM250 184h260v-184h-460v700h455v-182h-255v-76h230v-180h-230v-78z" />
    <glyph glyph-name="ecaron" unicode="&#x11b;" horiz-adv-x="560" 
d="M191 550l-106 160h155l45 -58l45 58h155l-106 -160h-188zM205 187c16 -33.333 50 -50 102 -50c30.667 0 59 10.667 85 32l121 -102c-50 -54 -120.667 -81 -212 -81c-85.333 0 -153.833 24.833 -205.5 74.5s-77.5 112.167 -77.5 187.5c0 76 25.167 139.333 75.5 190
s113.833 76 190.5 76c76 0 138.5 -24.833 187.5 -74.5s73.5 -112.167 73.5 -187.5c0 -22 -2.66699 -43.667 -8 -65h-332zM202 306h168c-11.333 40 -38.333 60 -81 60c-43.333 0 -72.333 -20 -87 -60z" />
    <glyph glyph-name="Gbreve" unicode="&#x11e;" horiz-adv-x="772" 
d="M391 742c-59.333 0 -105 14.333 -137 43s-48 71 -48 127h150c0 -26.667 11.667 -40 35 -40s35 13.333 35 40h150c0 -56 -16 -98.333 -48 -127s-77.667 -43 -137 -43zM747 413l0.00195312 -83c0 -100 -32.167 -182.667 -96.5 -248s-148.833 -98 -253.5 -98
c-109.333 0 -198.666 34.833 -267.999 104.5s-104 156.5 -104 260.5s34.667 191.167 104 261.5s156 105.5 260 105.5c65.333 0 125.166 -14.667 179.499 -44s97.166 -69 128.499 -119l-170 -97c-28 42.667 -72.667 64 -134 64c-50 0 -90.5 -16 -121.5 -48
s-46.5 -73.333 -46.5 -124c0 -48 14.333 -89.833 43 -125.5s73 -53.5 133 -53.5c69.333 0 115.666 24.667 138.999 74h-149v170h356z" />
    <glyph glyph-name="gbreve" unicode="&#x11f;" horiz-adv-x="613" 
d="M309 542c-59.333 0 -105 14.333 -137 43s-48 71 -48 127h150c0 -26.667 11.667 -40 35 -40s35 13.333 35 40h150c0 -56 -16 -98.333 -48 -127s-77.667 -43 -137 -43zM388 500l184.999 0.00195312v-485c0 -40 -7.5 -75.333 -22.5 -106s-35.167 -54.834 -60.5 -72.501
s-53.166 -30.834 -83.499 -39.501s-62.166 -13 -95.499 -13c-58.667 0 -110.667 10.667 -156 32s-79 51.333 -101 90l150 87c24 -32.667 56.333 -49 97 -49c23.333 0 43.666 5.83301 60.999 17.5s26 29.5 26 53.5v50c-32 -39.333 -76.667 -59 -134 -59
c-66.667 0 -121.5 24.333 -164.5 73s-64.5 109 -64.5 181s21.5 132.333 64.5 181s97.833 73 164.5 73c57.333 0 102 -19.667 134 -59v45zM298.999 170.002c26.667 0 48.167 8.66699 64.5 26s24.5 38.666 24.5 63.999s-8.16699 46.666 -24.5 63.999s-37.833 26 -64.5 26
s-48.167 -8.66699 -64.5 -26s-24.5 -38.666 -24.5 -63.999s8.16699 -46.666 24.5 -63.999s37.833 -26 64.5 -26z" />
    <glyph glyph-name="Gdotaccent" unicode="&#x120;" horiz-adv-x="772" 
d="M391 750c-26 0 -48.333 9.33301 -67 28s-28 41 -28 67s9.33301 48.333 28 67s41 28 67 28s48.333 -9.33301 67 -28s28 -41 28 -67s-9.33301 -48.333 -28 -67s-41 -28 -67 -28zM747 413l0.00195312 -83c0 -100 -32.167 -182.667 -96.5 -248s-148.833 -98 -253.5 -98
c-109.333 0 -198.666 34.833 -267.999 104.5s-104 156.5 -104 260.5s34.667 191.167 104 261.5s156 105.5 260 105.5c65.333 0 125.166 -14.667 179.499 -44s97.166 -69 128.499 -119l-170 -97c-28 42.667 -72.667 64 -134 64c-50 0 -90.5 -16 -121.5 -48
s-46.5 -73.333 -46.5 -124c0 -48 14.333 -89.833 43 -125.5s73 -53.5 133 -53.5c69.333 0 115.666 24.667 138.999 74h-149v170h356z" />
    <glyph glyph-name="gdotaccent" unicode="&#x121;" horiz-adv-x="613" 
d="M309 550c-26 0 -48.333 9.33301 -67 28s-28 41 -28 67s9.33301 48.333 28 67s41 28 67 28s48.333 -9.33301 67 -28s28 -41 28 -67s-9.33301 -48.333 -28 -67s-41 -28 -67 -28zM388 500l184.999 0.00195312v-485c0 -40 -7.5 -75.333 -22.5 -106
s-35.167 -54.834 -60.5 -72.501s-53.166 -30.834 -83.499 -39.501s-62.166 -13 -95.499 -13c-58.667 0 -110.667 10.667 -156 32s-79 51.333 -101 90l150 87c24 -32.667 56.333 -49 97 -49c23.333 0 43.666 5.83301 60.999 17.5s26 29.5 26 53.5v50
c-32 -39.333 -76.667 -59 -134 -59c-66.667 0 -121.5 24.333 -164.5 73s-64.5 109 -64.5 181s21.5 132.333 64.5 181s97.833 73 164.5 73c57.333 0 102 -19.667 134 -59v45zM298.999 170.002c26.667 0 48.167 8.66699 64.5 26s24.5 38.666 24.5 63.999
s-8.16699 46.666 -24.5 63.999s-37.833 26 -64.5 26s-48.167 -8.66699 -64.5 -26s-24.5 -38.666 -24.5 -63.999s8.16699 -46.666 24.5 -63.999s37.833 -26 64.5 -26z" />
    <glyph glyph-name="Gcommaaccent" unicode="&#x122;" horiz-adv-x="772" 
d="M747 413l0.00195312 -83c0 -100 -32.167 -182.667 -96.5 -248s-148.833 -98 -253.5 -98c-109.333 0 -198.666 34.833 -267.999 104.5s-104 156.5 -104 260.5s34.667 191.167 104 261.5s156 105.5 260 105.5c65.333 0 125.166 -14.667 179.499 -44
s97.166 -69 128.499 -119l-170 -97c-28 42.667 -72.667 64 -134 64c-50 0 -90.5 -16 -121.5 -48s-46.5 -73.333 -46.5 -124c0 -48 14.333 -89.833 43 -125.5s73 -53.5 133 -53.5c69.333 0 115.666 24.667 138.999 74h-149v170h356zM310.002 -284l10 230h170l-40 -230h-140z
" />
    <glyph glyph-name="gcommaaccent" unicode="&#x123;" horiz-adv-x="613" 
d="M386 800l-10 -230h-170l40 230h140zM388 500l184.999 0.00195312v-485c0 -40 -7.5 -75.333 -22.5 -106s-35.167 -54.834 -60.5 -72.501s-53.166 -30.834 -83.499 -39.501s-62.166 -13 -95.499 -13c-58.667 0 -110.667 10.667 -156 32s-79 51.333 -101 90l150 87
c24 -32.667 56.333 -49 97 -49c23.333 0 43.666 5.83301 60.999 17.5s26 29.5 26 53.5v50c-32 -39.333 -76.667 -59 -134 -59c-66.667 0 -121.5 24.333 -164.5 73s-64.5 109 -64.5 181s21.5 132.333 64.5 181s97.833 73 164.5 73c57.333 0 102 -19.667 134 -59v45z
M298.999 170.002c26.667 0 48.167 8.66699 64.5 26s24.5 38.666 24.5 63.999s-8.16699 46.666 -24.5 63.999s-37.833 26 -64.5 26s-48.167 -8.66699 -64.5 -26s-24.5 -38.666 -24.5 -63.999s8.16699 -46.666 24.5 -63.999s37.833 -26 64.5 -26z" />
    <glyph glyph-name="Hbar" unicode="&#x126;" horiz-adv-x="710" 
d="M700 603v-146h-60v-457h-200v183h-170v-183h-200v457h-60v146h60v97h200v-97h170v97h200v-97h60zM440 377v80h-170v-80h170z" />
    <glyph glyph-name="hbar" unicode="&#x127;" horiz-adv-x="590" 
d="M374 489c54.667 0 98.499 -18.832 131.499 -56.499s49.5 -93.834 49.5 -168.501v-264h-185v244c0 44.667 -20.667 67 -62 67c-22 0 -38.833 -7 -50.5 -21s-17.5 -33.333 -17.5 -58v-232h-185v526h-55v119h55v55h185v-55h130v-119h-130v-100
c30.667 42 75.334 63 134.001 63z" />
    <glyph glyph-name="Imacron" unicode="&#x12a;" horiz-adv-x="300" 
d="M-10 749v140h320v-140h-320zM50 700h200v-700h-200v700z" />
    <glyph glyph-name="imacron" unicode="&#x12b;" horiz-adv-x="265" 
d="M-7 549v140h280v-140h-280zM40 0v500h185v-500h-185z" />
    <glyph glyph-name="Iogonek" unicode="&#x12e;" horiz-adv-x="300" 
d="M250 700v-700c-26.667 -27.333 -40 -51 -40 -71c0 -12.667 7 -19 21 -19c6.66699 0 13 1 19 3v-110c-28 -11.333 -57.333 -17 -88 -17c-32 0 -58.333 7.66699 -79 23s-31 38 -31 68c0 40.667 19.667 81.667 59 123h-61v700h200z" />
    <glyph glyph-name="iogonek" unicode="&#x12f;" horiz-adv-x="265" 
d="M133 538c-28 0 -52.167 10.167 -72.5 30.5s-30.5 44.166 -30.5 71.499s10.167 51.166 30.5 71.499s44.5 30.5 72.5 30.5c27.333 0 51.166 -10.167 71.499 -30.5s30.5 -44.166 30.5 -71.499s-10.167 -51.166 -30.5 -71.499s-44.166 -30.5 -71.499 -30.5zM193 -71
c0 -12.667 7 -18.999 21 -18.999c6.66699 0 13 1 19 3v-110c-28 -11.333 -57.333 -17 -88 -17c-32 0 -58.333 7.66699 -79 23s-31 38 -31 68c0 42.667 13.667 83.667 41 123h-36v500h185v-500c-21.333 -26.667 -32 -50.334 -32 -71.001z" />
    <glyph glyph-name="Idotaccent" unicode="&#x130;" horiz-adv-x="300" 
d="M150 740c-26 0 -48.333 9.33301 -67 28s-28 41 -28 67s9.33301 48.333 28 67s41 28 67 28s48.333 -9.33301 67 -28s28 -41 28 -67s-9.33301 -48.333 -28 -67s-41 -28 -67 -28zM50 700h200v-700h-200v700z" />
    <glyph glyph-name="dotlessi" unicode="&#x131;" horiz-adv-x="265" 
d="M40 0v500h185v-500h-185z" />
    <glyph glyph-name="Kcommaaccent" unicode="&#x136;" horiz-adv-x="636" 
d="M428 360l218 -360h-222l-174 300v-300h-200v700h200v-280l164 280h222zM226 -284l10 230h170l-40 -230h-140z" />
    <glyph glyph-name="kcommaaccent" unicode="&#x137;" horiz-adv-x="550" 
d="M225 200v-200h-185v700h185v-394l105 194h210l-152 -250l162 -250h-205zM194 -284l10 230h170l-40 -230h-140z" />
    <glyph glyph-name="Lacute" unicode="&#x139;" horiz-adv-x="490" 
d="M332 900l-116 -150h-174l80 150h210zM250 194h230v-194h-430v700h200v-506z" />
    <glyph glyph-name="lacute" unicode="&#x13a;" horiz-adv-x="265" 
d="M40 760h174l116 150h-210zM40 0v730h185v-730h-185z" />
    <glyph glyph-name="Lcommaaccent" unicode="&#x13b;" horiz-adv-x="490" 
d="M250 194h230v-194h-430v700h200v-506zM174 -284l10 230h170l-40 -230h-140z" />
    <glyph glyph-name="lcommaaccent" unicode="&#x13c;" horiz-adv-x="265" 
d="M40 0v730h185v-730h-185zM175 -284l40 230h-170l-10 -230h140z" />
    <glyph glyph-name="Lcaron" unicode="&#x13d;" horiz-adv-x="490" 
d="M250 700v-506h230v-194h-430v700h200zM480 700l-39 -210h-150l10 210h179z" />
    <glyph glyph-name="lcaron" unicode="&#x13e;" horiz-adv-x="421" 
d="M40 0v730h185v-730h-185zM401 500l40 230h-170l-10 -230h140z" />
    <glyph glyph-name="Lslash" unicode="&#x141;" horiz-adv-x="510" 
d="M270 194h230v-194h-430v197l-60 -34v193l60 34v310h200v-198l120 67v-193l-120 -67v-115z" />
    <glyph glyph-name="lslash" unicode="&#x142;" horiz-adv-x="290" 
d="M290 515v-173l-52 -31v-311h-185v202l-53 -31v173l53 31v355h185v-246z" />
    <glyph glyph-name="Nacute" unicode="&#x143;" horiz-adv-x="680" 
d="M215 750h174l116 150h-210zM430 700h200v-700h-160l-220 320v-320h-200v700h160l220 -320v320z" />
    <glyph glyph-name="nacute" unicode="&#x144;" 
d="M475 710l-116 -150h-174l80 150h210zM359 514c54.667 0 98.499 -18.832 131.499 -56.499s49.5 -93.834 49.5 -168.501v-289h-185v269c0 44.667 -20.667 67 -62 67c-22 0 -38.833 -7 -50.5 -21s-17.5 -33.333 -17.5 -58v-257h-185v500h185v-49
c30.667 42 75.334 63 134.001 63z" />
    <glyph glyph-name="Ncommaaccent" unicode="&#x145;" horiz-adv-x="680" 
d="M430 700h200v-700h-160l-220 320v-320h-200v700h160l220 -320v320zM404 -284l40 230h-170l-10 -230h140z" />
    <glyph glyph-name="ncommaaccent" unicode="&#x146;" 
d="M359 514c54.667 0 98.499 -18.832 131.499 -56.499s49.5 -93.834 49.5 -168.501v-289h-185v269c0 44.667 -20.667 67 -62 67c-22 0 -38.833 -7 -50.5 -21s-17.5 -33.333 -17.5 -58v-257h-185v500h185v-49c30.667 42 75.334 63 134.001 63zM206.999 -283.999l10 230h170
l-40 -230h-140z" />
    <glyph glyph-name="Ncaron" unicode="&#x147;" horiz-adv-x="680" 
d="M226 740l-106 160h155l45 -58l45 58h155l-106 -160h-188zM430 700h200v-700h-160l-220 320v-320h-200v700h160l220 -320v320z" />
    <glyph glyph-name="ncaron" unicode="&#x148;" 
d="M196 550l-106 160h155l45 -58l45 58h155l-106 -160h-188zM359 514c54.667 0 98.499 -18.832 131.499 -56.499s49.5 -93.834 49.5 -168.501v-289h-185v269c0 44.667 -20.667 67 -62 67c-22 0 -38.833 -7 -50.5 -21s-17.5 -33.333 -17.5 -58v-257h-185v500h185v-49
c30.667 42 75.334 63 134.001 63z" />
    <glyph glyph-name="Eng" unicode="&#x14a;" horiz-adv-x="680" 
d="M430 700h200v-700c0 -78.667 -20.167 -135.5 -60.5 -170.5s-103.5 -50.167 -189.5 -45.5v166c43.333 -4 65 12.667 65 50v36l-195 284v-320h-200v700h160l220 -320v320z" />
    <glyph glyph-name="eng" unicode="&#x14b;" 
d="M359 514c54.667 0 98.498 -18.832 131.498 -56.499s49.5 -93.834 49.5 -168.501v-289c0 -76 -18.5 -130.333 -55.5 -163s-95.167 -46 -174.5 -40v157c14.667 -0.666992 25.834 2.5 33.501 9.5s11.5 19.167 11.5 36.5v269c0 44.667 -20.667 67 -62 67
c-22 0 -38.833 -7 -50.5 -21s-17.5 -33.333 -17.5 -58v-257h-185v500h185v-49c30.667 42 75.334 63 134.001 63z" />
    <glyph glyph-name="Omacron" unicode="&#x14c;" horiz-adv-x="792" 
d="M236 759v140h320v-140h-320zM396 -16c-104 0 -191.833 35.167 -263.5 105.5s-107.5 157.166 -107.5 260.499s35.833 190.166 107.5 260.499s159.5 105.5 263.5 105.5s191.833 -35.167 263.5 -105.5s107.5 -157.166 107.5 -260.499s-35.833 -190.166 -107.5 -260.499
s-159.5 -105.5 -263.5 -105.5zM396 180c49.333 0 90.166 16.167 122.499 48.5s48.5 72.833 48.5 121.5s-16.167 89.167 -48.5 121.5s-73.166 48.5 -122.499 48.5s-90.166 -16.167 -122.499 -48.5s-48.5 -72.833 -48.5 -121.5s16.167 -89.167 48.5 -121.5
s73.166 -48.5 122.499 -48.5z" />
    <glyph glyph-name="omacron" unicode="&#x14d;" horiz-adv-x="574" 
d="M127 559v140h320v-140h-320zM287 -14c-74.667 0 -138.167 25.333 -190.5 76s-78.5 113.334 -78.5 188.001s26 137.334 78 188.001s115.667 76 191 76s139 -25.333 191 -76s78 -113.334 78 -188.001s-26 -137.334 -78 -188.001s-115.667 -76 -191 -76zM287 162
c24.667 0 44.834 8.16699 60.501 24.5s23.5 37.5 23.5 63.5s-7.83301 47.167 -23.5 63.5s-35.834 24.5 -60.501 24.5s-44.834 -8.16699 -60.501 -24.5s-23.5 -37.5 -23.5 -63.5s7.83301 -47.167 23.5 -63.5s35.834 -24.5 60.501 -24.5z" />
    <glyph glyph-name="Ohungarumlaut" unicode="&#x150;" horiz-adv-x="792" 
d="M186 750h168l86 160h-174zM389 750h168l96 160h-174zM396 -16c-104 0 -191.833 35.167 -263.5 105.5s-107.5 157.166 -107.5 260.499s35.833 190.166 107.5 260.499s159.5 105.5 263.5 105.5s191.833 -35.167 263.5 -105.5s107.5 -157.166 107.5 -260.499
s-35.833 -190.166 -107.5 -260.499s-159.5 -105.5 -263.5 -105.5zM396 180c49.333 0 90.166 16.167 122.499 48.5s48.5 72.833 48.5 121.5s-16.167 89.167 -48.5 121.5s-73.166 48.5 -122.499 48.5s-90.166 -16.167 -122.499 -48.5s-48.5 -72.833 -48.5 -121.5
s16.167 -89.167 48.5 -121.5s73.166 -48.5 122.499 -48.5z" />
    <glyph glyph-name="ohungarumlaut" unicode="&#x151;" horiz-adv-x="574" 
d="M77 550h168l86 160h-174zM280 550h168l96 160h-174zM287 -14c-74.667 0 -138.167 25.333 -190.5 76s-78.5 113.334 -78.5 188.001s26 137.334 78 188.001s115.667 76 191 76s139 -25.333 191 -76s78 -113.334 78 -188.001s-26 -137.334 -78 -188.001
s-115.667 -76 -191 -76zM287 162c24.667 0 44.834 8.16699 60.501 24.5s23.5 37.5 23.5 63.5s-7.83301 47.167 -23.5 63.5s-35.834 24.5 -60.501 24.5s-44.834 -8.16699 -60.501 -24.5s-23.5 -37.5 -23.5 -63.5s7.83301 -47.167 23.5 -63.5s35.834 -24.5 60.501 -24.5z" />
    <glyph glyph-name="OE" unicode="&#x152;" horiz-adv-x="955" 
d="M705 184l220 0.00195312v-184h-420c-34 -10.667 -70.333 -16 -109 -16c-104 0 -191.833 35.167 -263.5 105.5s-107.5 157.166 -107.5 260.499s35.833 190.166 107.5 260.499s159.5 105.5 263.5 105.5c38.667 0 75 -5.33301 109 -16h415v-182h-215v-76h190v-180h-190v-78z
M505 201.002v298c-31.333 14 -67.666 21 -108.999 21c-49.333 0 -90.166 -16.167 -122.499 -48.5s-48.5 -72.833 -48.5 -121.5s16.167 -89.167 48.5 -121.5s73.166 -48.5 122.499 -48.5c41.333 0 77.666 7 108.999 21z" />
    <glyph glyph-name="oe" unicode="&#x153;" horiz-adv-x="910" 
d="M555 187c16 -33.333 49.999 -50 101.999 -50c30.667 0 59 10.667 85 32l121 -102c-50 -54 -120.667 -81 -212 -81c-77.333 0 -139.666 26.333 -186.999 79c-45.333 -52.667 -107.666 -79 -186.999 -79c-76.667 0 -139 26.333 -187 79s-72 113.667 -72 183
c0 70.667 23.833 132.667 71.5 186s110.167 80 187.5 80c79.333 0 141.666 -26.333 186.999 -79c48.667 52.667 112 79 190 79c68.667 0 126 -25 172 -75s69 -112.333 69 -187c0 -22 -2.66699 -43.667 -8 -65h-332zM551.999 306h168c-11.333 40 -38.333 60 -81 60
c-43.333 0 -72.333 -20 -87 -60zM286.999 162c24.667 0 44.834 8.16699 60.501 24.5s23.5 37.5 23.5 63.5s-7.83301 47.167 -23.5 63.5s-35.834 24.5 -60.501 24.5s-44.834 -8.16699 -60.501 -24.5s-23.5 -37.5 -23.5 -63.5s7.83301 -47.167 23.5 -63.5
s35.834 -24.5 60.501 -24.5z" />
    <glyph glyph-name="Racute" unicode="&#x154;" horiz-adv-x="625" 
d="M470 900l-116 -150h-174l80 150h210zM411 1l-111 219.999h-50v-220h-200v700h280c76.667 0 140 -22.5 190 -67.5s75 -104.5 75 -178.5c0 -41.333 -9.5 -78.666 -28.5 -111.999s-45.5 -60.333 -79.5 -81l138 -261h-214zM250 516.999v-130h76
c21.333 -0.666992 38.166 4.66602 50.499 15.999s18.5 27.333 18.5 48s-6.16699 36.834 -18.5 48.501s-29.166 17.5 -50.499 17.5h-76z" />
    <glyph glyph-name="racute" unicode="&#x155;" horiz-adv-x="390" 
d="M372 700l-116 -150h-174l80 150h210zM225 403c9.33301 34 27.667 60.333 55 79s59 28 95 28v-200c-40 5.33301 -75 -2.5 -105 -23.5s-45 -54.5 -45 -100.5v-186h-185v500h185v-97z" />
    <glyph glyph-name="Rcommaaccent" unicode="&#x156;" horiz-adv-x="625" 
d="M250 221v-220.001h-200v700h280c76.667 0 140 -22.5 190 -67.5s75 -104.5 75 -178.5c0 -41.333 -9.5 -78.666 -28.5 -111.999s-45.5 -60.333 -79.5 -81l138 -261h-214l-111 220h-50zM326 516.999h-76v-130h76c21.333 -0.666992 38.166 4.66602 50.499 15.999
s18.5 27.333 18.5 48s-6.16699 36.834 -18.5 48.501s-29.166 17.5 -50.499 17.5zM234 -284.001l10 230h170l-40 -230h-140z" />
    <glyph glyph-name="rcommaaccent" unicode="&#x157;" horiz-adv-x="390" 
d="M225 403c9.33301 34 27.667 60.333 55 79s59 28 95 28v-200c-40 5.33301 -75 -2.5 -105 -23.5s-45 -54.5 -45 -100.5v-186h-185v500h185v-97zM32.001 -284l10 230h170l-40 -230h-140z" />
    <glyph glyph-name="Rcaron" unicode="&#x158;" horiz-adv-x="625" 
d="M191 740l-106 160h155l45 -58l45 58h155l-106 -160h-188zM411 1l-111 219.999h-50v-220h-200v700h280c76.667 0 140 -22.5 190 -67.5s75 -104.5 75 -178.5c0 -41.333 -9.5 -78.666 -28.5 -111.999s-45.5 -60.333 -79.5 -81l138 -261h-214zM250 516.999v-130h76
c21.333 -0.666992 38.166 4.66602 50.499 15.999s18.5 27.333 18.5 48s-6.16699 36.834 -18.5 48.501s-29.166 17.5 -50.499 17.5h-76z" />
    <glyph glyph-name="rcaron" unicode="&#x159;" horiz-adv-x="390" 
d="M93 540l-106 160h155l45 -58l45 58h155l-106 -160h-188zM225 403c9.33301 34 27.667 60.333 55 79s59 28 95 28v-200c-40 5.33301 -75 -2.5 -105 -23.5s-45 -54.5 -45 -100.5v-186h-185v500h185v-97z" />
    <glyph glyph-name="Sacute" unicode="&#x15a;" horiz-adv-x="585" 
d="M176 760h174l116 150h-210zM302 -16c-76 0 -139.332 15.833 -189.999 47.5s-84.667 74.5 -102 128.5l171 99c23.333 -59.333 65.333 -89 126 -89c45.333 0 68 12 68 36c0 6.66699 -1.66699 12.667 -5 18s-9.66602 10 -18.999 14s-17.5 7.16699 -24.5 9.5
s-19.167 5.83301 -36.5 10.5s-30.333 8.33398 -39 11.001c-139.333 42 -209 117 -209 225c0 64 23.167 117 69.5 159s107.166 63 182.499 63c59.333 0 112.5 -14 159.5 -42s81.5 -68.333 103.5 -121l-166 -97c-19.333 49.333 -51.333 74 -96 74
c-17.333 0 -30.5 -3.5 -39.5 -10.5s-13.5 -15.833 -13.5 -26.5c0 -14.667 7.83301 -26 23.5 -34s45.834 -18.333 90.501 -31c33.333 -10 60.666 -19.5 81.999 -28.5s43.666 -21.667 66.999 -38s40.833 -37.333 52.5 -63s17.5 -55.834 17.5 -90.501
c0 -71.333 -24.5 -126.5 -73.5 -165.5s-115.5 -58.5 -199.5 -58.5z" />
    <glyph glyph-name="sacute" unicode="&#x15b;" horiz-adv-x="484" 
d="M419 710l-116 -150h-174l80 150h210zM219 353c0 -8 6.16504 -14.334 18.498 -19.001s27.833 -8.16699 46.5 -10.5s38.667 -6.83301 60 -13.5s41.333 -15 60 -25s34.167 -25.833 46.5 -47.5s18.5 -47.834 18.5 -78.501c0 -32 -7.16699 -60 -21.5 -84
s-33.166 -42 -56.499 -54s-47.166 -20.833 -71.499 -26.5s-49.5 -8.5 -75.5 -8.5c-120.667 0 -198.667 39.667 -234 119l161 72c12.667 -34 36.334 -51 71.001 -51c22.667 0 34 7.33301 34 22c0 8.66699 -8.33301 15.667 -25 21s-36.667 10.833 -60 16.5
s-46.833 13.334 -70.5 23.001s-43.834 25.834 -60.501 48.501s-25 51 -25 85c0 54.667 20.833 97 62.5 127s89.834 45 144.501 45c109.333 0 181.666 -42.333 216.999 -127l-153 -55c-12 28 -30.667 42 -56 42c-20.667 0 -31 -7 -31 -21z" />
    <glyph glyph-name="Scedilla" unicode="&#x15e;" horiz-adv-x="585" 
d="M575 208c0 -59.333 -16.999 -107.499 -50.999 -144.499s-81.667 -61.167 -143 -72.5v-37c35.333 -14.667 53 -40.334 53 -77.001c0 -37.333 -20.333 -65 -61 -83s-102 -24.667 -184 -20v114c63.333 -4.66699 95 0 95 14c0 10 -17.667 16.667 -53 20v67
c-56.667 9.33301 -104 29 -142 59s-64.333 67.333 -79 112l171 99c23.333 -59.333 65.333 -89 126 -89c45.333 0 68 12 68 36c0 6.66699 -1.66699 12.667 -5 18s-9.66602 10 -18.999 14s-17.5 7.16699 -24.5 9.5s-19.167 5.83301 -36.5 10.5s-30.333 8.33398 -39 11.001
c-139.333 42 -209 117 -209 225c0 64 23.167 117 69.5 159s107.166 63 182.499 63c59.333 0 112.5 -14 159.5 -42s81.5 -68.333 103.5 -121l-166 -97c-19.333 49.333 -51.333 74 -96 74c-17.333 0 -30.5 -3.5 -39.5 -10.5s-13.5 -15.833 -13.5 -26.5
c0 -14.667 7.83301 -26 23.5 -34s45.834 -18.333 90.501 -31c33.333 -10 60.666 -19.5 81.999 -28.5s43.666 -21.667 66.999 -38s40.833 -37.333 52.5 -63s17.5 -55.834 17.5 -90.501z" />
    <glyph glyph-name="scedilla" unicode="&#x15f;" horiz-adv-x="484" 
d="M469 159c0 -84 -46 -138 -138 -162v-43c35.333 -14.667 53 -40.334 53 -77.001c0 -37.333 -20.333 -65 -61 -83s-102 -24.667 -184 -20v114c63.333 -4.66699 95 0 95 14c0 10 -17.667 16.667 -53 20v68c-84.667 10.667 -141.667 49 -171 115l161 72
c12.667 -34 36.334 -51 71.001 -51c22.667 0 34 7.33301 34 22c0 8.66699 -8.33301 15.667 -25 21s-36.667 10.833 -60 16.5s-46.833 13.334 -70.5 23.001s-43.834 25.834 -60.501 48.501s-25 51 -25 85c0 54.667 20.833 97 62.5 127s89.834 45 144.501 45
c109.333 0 181.666 -42.333 216.999 -127l-153 -55c-12 28 -30.667 42 -56 42c-20.667 0 -31 -7 -31 -21c0 -8 6.16699 -14.333 18.5 -19s27.833 -8.16699 46.5 -10.5s38.667 -6.83301 60 -13.5s41.333 -15 60 -25s34.167 -25.833 46.5 -47.5s18.5 -47.834 18.5 -78.501z
" />
    <glyph glyph-name="Scaron" unicode="&#x160;" horiz-adv-x="585" 
d="M187 750l-106 160h155l45 -58l45 58h155l-106 -160h-188zM356 428c33.333 -10 60.667 -19.5 82 -28.5s43.666 -21.667 66.999 -38s40.833 -37.333 52.5 -63s17.5 -55.834 17.5 -90.501c0 -71.333 -24.5 -126.5 -73.5 -165.5s-115.5 -58.5 -199.5 -58.5
c-76 0 -139.333 15.833 -190 47.5s-84.667 74.5 -102 128.5l171 99c23.333 -59.333 65.333 -89 126 -89c45.333 0 68 12 68 36c0 6.66699 -1.66699 12.667 -5 18s-9.66602 10 -18.999 14s-17.5 7.16699 -24.5 9.5s-19.167 5.83301 -36.5 10.5s-30.333 8.33398 -39 11.001
c-139.333 42 -209 117 -209 225c0 64 23.167 117 69.5 159s107.166 63 182.499 63c59.333 0 112.5 -14 159.5 -42s81.5 -68.333 103.5 -121l-166 -97c-19.333 49.333 -51.333 74 -96 74c-17.333 0 -30.5 -3.5 -39.5 -10.5s-13.5 -15.833 -13.5 -26.5
c0 -14.667 7.83301 -26 23.5 -34s45.834 -18.333 90.501 -31z" />
    <glyph glyph-name="scaron" unicode="&#x161;" horiz-adv-x="484" 
d="M140 550l-106 160h155l45 -58l45 58h155l-106 -160h-188zM219 353c0 -8 6.16504 -14.334 18.498 -19.001s27.833 -8.16699 46.5 -10.5s38.667 -6.83301 60 -13.5s41.333 -15 60 -25s34.167 -25.833 46.5 -47.5s18.5 -47.834 18.5 -78.501c0 -32 -7.16699 -60 -21.5 -84
s-33.166 -42 -56.499 -54s-47.166 -20.833 -71.499 -26.5s-49.5 -8.5 -75.5 -8.5c-120.667 0 -198.667 39.667 -234 119l161 72c12.667 -34 36.334 -51 71.001 -51c22.667 0 34 7.33301 34 22c0 8.66699 -8.33301 15.667 -25 21s-36.667 10.833 -60 16.5
s-46.833 13.334 -70.5 23.001s-43.834 25.834 -60.501 48.501s-25 51 -25 85c0 54.667 20.833 97 62.5 127s89.834 45 144.501 45c109.333 0 181.666 -42.333 216.999 -127l-153 -55c-12 28 -30.667 42 -56 42c-20.667 0 -31 -7 -31 -21z" />
    <glyph glyph-name="uni0162" unicode="&#x162;" horiz-adv-x="550" 
d="M540 700v-194h-165v-506h-200v506h-165v194h530zM177 -284l10 230h170l-40 -230h-140z" />
    <glyph glyph-name="uni0163" unicode="&#x163;" horiz-adv-x="400" 
d="M370 324l-105.001 -0.000976562v-108c0 -16.667 4 -29 12 -37s19.833 -12.5 35.5 -13.5s34.834 -0.833008 57.501 0.5v-166c-104.667 -14.667 -179.167 -5.66699 -223.5 27s-66.5 92.334 -66.5 179.001v118h-70v176h70v85l185 55v-140h105v-176zM138.999 -274.001l10 230
h170l-40 -230h-140z" />
    <glyph glyph-name="Tcaron" unicode="&#x164;" horiz-adv-x="550" 
d="M176 740l-106 160h155l45 -58l45 58h155l-106 -160h-188zM540 700v-194h-165v-506h-200v506h-165v194h530z" />
    <glyph glyph-name="tcaron" unicode="&#x165;" horiz-adv-x="446" 
d="M306 722h160l-40 -190h-130zM265 640l-0.000976562 -140.001h105v-176h-105v-108c0 -16.667 4 -29 12 -37s19.833 -12.5 35.5 -13.5s34.834 -0.833008 57.501 0.5v-166c-104.667 -14.667 -179.167 -5.66699 -223.5 27s-66.5 92.334 -66.5 179.001v118h-70v176h70v85z" />
    <glyph glyph-name="Tbar" unicode="&#x166;" horiz-adv-x="550" 
d="M540 506h-165v-94h100v-174h-100v-238h-200v238h-100v174h100v94h-165v194h530v-194z" />
    <glyph glyph-name="tbar" unicode="&#x167;" horiz-adv-x="400" 
d="M370 354l-105.002 -0.000976562v-34h70v-120h-69c4 -16.667 13.833 -27 29.5 -31s40.5 -5 74.5 -3v-166c-103.333 -14.667 -177.166 -6.16699 -221.499 25.5s-67.166 89.834 -68.499 174.501h-45v120h45v34h-70v146h70v85l185 55v-140h105v-146z" />
    <glyph glyph-name="Umacron" unicode="&#x16a;" horiz-adv-x="650" 
d="M165 749v140h320v-140h-320zM325 -16c-84.667 0 -153.332 23 -205.999 69s-79 106.333 -79 181v466h200v-444c0 -52 28.333 -78 85 -78s85 26 85 78v444h200v-466c0 -74.667 -26.333 -135 -79 -181s-121.334 -69 -206.001 -69z" />
    <glyph glyph-name="umacron" unicode="&#x16b;" 
d="M445 689v-140h-320v140h320zM350 500l185.001 -0.000976562v-500h-185v49c-30.667 -42 -75.334 -63 -134.001 -63c-54.667 0 -98.5 18.833 -131.5 56.5s-49.5 93.834 -49.5 168.501v289h185v-269c0 -44.667 20.667 -67 62 -67c22 0 38.833 7 50.5 21s17.5 33.333 17.5 58
v257z" />
    <glyph glyph-name="Uring" unicode="&#x16e;" horiz-adv-x="650" 
d="M325 710c-43.333 0 -79 13.333 -107 40s-42 60 -42 100s14 73.333 42 100s63.667 40 107 40c44.667 0 80.667 -13.167 108 -39.5s41 -59.833 41 -100.5s-13.667 -74.167 -41 -100.5s-63.333 -39.5 -108 -39.5zM325 820c21.333 0 32 10.002 32 30.002s-10.667 30 -32 30
c-10 0 -17.667 -2.83301 -23 -8.5s-8 -12.834 -8 -21.501s2.66699 -15.834 8 -21.501s13 -8.5 23 -8.5zM325 -15.998c-84.667 0 -153.332 23 -205.999 69s-79 106.333 -79 181v466h200v-444c0 -52 28.333 -78 85 -78s85 26 85 78v444h200v-466
c0 -74.667 -26.333 -135 -79 -181s-121.334 -69 -206.001 -69z" />
    <glyph glyph-name="uring" unicode="&#x16f;" 
d="M285 530c-43.333 0 -79 13.333 -107 40s-42 60 -42 100s14 73.333 42 100s63.667 40 107 40c44.667 0 80.667 -13.167 108 -39.5s41 -59.833 41 -100.5s-13.667 -74.167 -41 -100.5s-63.333 -39.5 -108 -39.5zM285 700c-10 0 -17.667 -2.83105 -23 -8.49805
s-8 -12.834 -8 -21.501s2.66699 -15.834 8 -21.501s13 -8.5 23 -8.5c21.333 0 32 10 32 30s-10.667 30 -32 30zM350 500.002l185.001 -0.000976562v-500h-185v49c-30.667 -42 -75.334 -63 -134.001 -63c-54.667 0 -98.5 18.833 -131.5 56.5s-49.5 93.834 -49.5 168.501v289
h185v-269c0 -44.667 20.667 -67 62 -67c22 0 38.833 7 50.5 21s17.5 33.333 17.5 58v257z" />
    <glyph glyph-name="Uhungarumlaut" unicode="&#x170;" horiz-adv-x="650" 
d="M115 740h168l86 160h-174zM318 740h168l96 160h-174zM325 -16c-84.667 0 -153.332 23 -205.999 69s-79 106.333 -79 181v466h200v-444c0 -52 28.333 -78 85 -78s85 26 85 78v444h200v-466c0 -74.667 -26.333 -135 -79 -181s-121.334 -69 -206.001 -69z" />
    <glyph glyph-name="uhungarumlaut" unicode="&#x171;" 
d="M329 700l-86 -160h-168l80 160h174zM446 540h-168l90 160h174zM350 243l0.000976562 256.999h185v-500h-185v49c-30.667 -42 -75.334 -63 -134.001 -63c-54.667 0 -98.5 18.833 -131.5 56.5s-49.5 93.834 -49.5 168.501v289h185v-269c0 -44.667 20.667 -67 62 -67
c22 0 38.833 7 50.5 21s17.5 33.333 17.5 58z" />
    <glyph glyph-name="Uogonek" unicode="&#x172;" horiz-adv-x="650" 
d="M410 700h200v-466c0 -79.333 -29.667 -142.333 -89 -189c-31.333 -27.333 -53.333 -49.5 -66 -66.5s-19 -33.5 -19 -49.5c0 -12.667 7 -19 21 -19c6.66699 0 13 1 19 3v-110c-28 -11.333 -57.333 -17 -88 -17c-32 0 -58.333 7.66699 -79 23s-31 38 -31 68
c0 34 15 69.667 45 107c-84 0.666992 -152.167 24 -204.5 70s-78.5 106 -78.5 180v466h200v-444c0 -52 28.333 -78 85 -78s85 26 85 78v444z" />
    <glyph glyph-name="uogonek" unicode="&#x173;" 
d="M535 500l0.000976562 -500.001c-26.667 -27.333 -40 -51 -40 -71c0 -12.667 7 -19 21 -19c6.66699 0 13 1 19 3v-110c-28 -11.333 -57.333 -17 -88 -17c-32 0 -58.333 7.66699 -79 23s-31 38 -31 68c0 40.667 19.667 81.667 59 123h-46v49
c-30.667 -42 -75.334 -63 -134.001 -63c-54.667 0 -98.5 18.833 -131.5 56.5s-49.5 93.834 -49.5 168.501v289h185v-269c0 -44.667 20.667 -67 62 -67c22 0 38.833 7 50.5 21s17.5 33.333 17.5 58v257h185z" />
    <glyph glyph-name="Wcircumflex" unicode="&#x174;" horiz-adv-x="1010" 
d="M525 798l-45 -58h-155l106 160h188l106 -160h-155zM790 700h220l-198 -700h-197l-110 374l-110 -374h-197l-198 700h220l95 -385l113 385h154l113 -385z" />
    <glyph glyph-name="wcircumflex" unicode="&#x175;" horiz-adv-x="830" 
d="M410 598l-45 -58h-155l106 160h188l106 -160h-155zM615 500h195l-145 -500h-188l-62 235l-62 -235h-188l-145 500h195l58 -277l72 277h140l72 -277z" />
    <glyph glyph-name="Ycircumflex" unicode="&#x176;" horiz-adv-x="674" 
d="M332 798l-45 -58h-155l106 160h188l106 -160h-155zM674 700l-237 -434v-266h-200v266l-237 434h222l115 -246l115 246h222z" />
    <glyph glyph-name="ycircumflex" unicode="&#x177;" horiz-adv-x="570" 
d="M286 598l-45 -58h-155l106 160h188l106 -160h-155zM360 500h210l-170 -499c-24.667 -72.667 -63 -125.167 -115 -157.5s-120.667 -46.833 -206 -43.5v175c34 0 60 2.5 78 7.5s32.333 14.167 43 27.5l-200 490h210l89 -267z" />
    <glyph glyph-name="Ydieresis" unicode="&#x178;" horiz-adv-x="674" 
d="M237 730c-23.333 0 -43.333 8.33301 -60 25s-25 36.667 -25 60s8.33301 43.333 25 60s36.667 25 60 25s43.333 -8.33301 60 -25s25 -36.667 25 -60s-8.33301 -43.333 -25 -60s-36.667 -25 -60 -25zM437 730c-23.333 0 -43.333 8.33301 -60 25s-25 36.667 -25 60
s8.33301 43.333 25 60s36.667 25 60 25s43.333 -8.33301 60 -25s25 -36.667 25 -60s-8.33301 -43.333 -25 -60s-36.667 -25 -60 -25zM674 700l-237 -434v-266h-200v266l-237 434h222l115 -246l115 246h222z" />
    <glyph glyph-name="Zacute" unicode="&#x179;" horiz-adv-x="545" 
d="M461 900l-116 -150h-174l80 150h210zM292 194h233v-194h-495v154l223 352h-218v194h480v-154z" />
    <glyph glyph-name="zacute" unicode="&#x17a;" horiz-adv-x="495" 
d="M430 700l-116 -150h-174l80 150h210zM286 170h174v-170h-420v130l164 200h-154v170h400v-130z" />
    <glyph glyph-name="Zdotaccent" unicode="&#x17b;" horiz-adv-x="545" 
d="M281 740c-26 0 -48.333 9.33301 -67 28s-28 41 -28 67s9.33301 48.333 28 67s41 28 67 28s48.333 -9.33301 67 -28s28 -41 28 -67s-9.33301 -48.333 -28 -67s-41 -28 -67 -28zM292 194h233v-194h-495v154l223 352h-218v194h480v-154z" />
    <glyph glyph-name="zdotaccent" unicode="&#x17c;" horiz-adv-x="495" 
d="M250 540c-26 0 -48.333 9.33301 -67 28s-28 41 -28 67s9.33301 48.333 28 67s41 28 67 28s48.333 -9.33301 67 -28s28 -41 28 -67s-9.33301 -48.333 -28 -67s-41 -28 -67 -28zM286 170h174v-170h-420v130l164 200h-154v170h400v-130z" />
    <glyph glyph-name="Zcaron" unicode="&#x17d;" horiz-adv-x="545" 
d="M182 740l-106 160h155l45 -58l45 58h155l-106 -160h-188zM292 194h233v-194h-495v154l223 352h-218v194h480v-154z" />
    <glyph glyph-name="zcaron" unicode="&#x17e;" horiz-adv-x="495" 
d="M151 540l-106 160h155l45 -58l45 58h155l-106 -160h-188zM286 170h174v-170h-420v130l164 200h-154v170h400v-130z" />
    <glyph glyph-name="florin" unicode="&#x192;" horiz-adv-x="482" 
d="M186 538c8.66699 50 27.834 90 57.501 120s64.834 47.833 105.501 53.5s85 4.16699 133 -4.5v-180c-22.667 9.33301 -43.834 9.16602 -63.501 -0.500977s-31.834 -26.834 -36.501 -51.501l-6 -37h65v-176h-95l-50 -292c-8.66699 -50 -27.834 -90 -57.501 -120
s-64.834 -47.833 -105.501 -53.5s-85 -4.16699 -133 4.5v180c22.667 -9.33301 43.834 -9.16602 63.501 0.500977s31.834 26.834 36.501 51.501l39 229h-58v176h88z" />
    <glyph glyph-name="Scommaaccent" unicode="&#x218;" horiz-adv-x="585" 
d="M302 -16c-76 0 -139.332 15.833 -189.999 47.5s-84.667 74.5 -102 128.5l171 99c23.333 -59.333 65.333 -89 126 -89c45.333 0 68 12 68 36c0 6.66699 -1.66699 12.667 -5 18s-9.66602 10 -18.999 14s-17.5 7.16699 -24.5 9.5s-19.167 5.83301 -36.5 10.5
s-30.333 8.33398 -39 11.001c-139.333 42 -209 117 -209 225c0 64 23.167 117 69.5 159s107.166 63 182.499 63c59.333 0 112.5 -14 159.5 -42s81.5 -68.333 103.5 -121l-166 -97c-19.333 49.333 -51.333 74 -96 74c-17.333 0 -30.5 -3.5 -39.5 -10.5
s-13.5 -15.833 -13.5 -26.5c0 -14.667 7.83301 -26 23.5 -34s45.834 -18.333 90.501 -31c33.333 -10 60.666 -19.5 81.999 -28.5s43.666 -21.667 66.999 -38s40.833 -37.333 52.5 -63s17.5 -55.834 17.5 -90.501c0 -71.333 -24.5 -126.5 -73.5 -165.5
s-115.5 -58.5 -199.5 -58.5zM363.001 -284l40 230h-170l-10 -230h140z" />
    <glyph glyph-name="scommaaccent" unicode="&#x219;" horiz-adv-x="484" 
d="M219 353c0 -8 6.16504 -14.334 18.498 -19.001s27.833 -8.16699 46.5 -10.5s38.667 -6.83301 60 -13.5s41.333 -15 60 -25s34.167 -25.833 46.5 -47.5s18.5 -47.834 18.5 -78.501c0 -32 -7.16699 -60 -21.5 -84s-33.166 -42 -56.499 -54s-47.166 -20.833 -71.499 -26.5
s-49.5 -8.5 -75.5 -8.5c-120.667 0 -198.667 39.667 -234 119l161 72c12.667 -34 36.334 -51 71.001 -51c22.667 0 34 7.33301 34 22c0 8.66699 -8.33301 15.667 -25 21s-36.667 10.833 -60 16.5s-46.833 13.334 -70.5 23.001s-43.834 25.834 -60.501 48.501s-25 51 -25 85
c0 54.667 20.833 97 62.5 127s89.834 45 144.501 45c109.333 0 181.666 -42.333 216.999 -127l-153 -55c-12 28 -30.667 42 -56 42c-20.667 0 -31 -7 -31 -21zM172.998 -284.001l10 230h170l-40 -230h-140z" />
    <glyph glyph-name="uni021A" unicode="&#x21a;" horiz-adv-x="550" 
d="M540 700v-194h-165v-506h-200v506h-165v194h530zM177 -284l10 230h170l-40 -230h-140z" />
    <glyph glyph-name="uni021B" unicode="&#x21b;" horiz-adv-x="400" 
d="M370 324l-105.001 -0.000976562v-108c0 -16.667 4 -29 12 -37s19.833 -12.5 35.5 -13.5s34.834 -0.833008 57.501 0.5v-166c-104.667 -14.667 -179.167 -5.66699 -223.5 27s-66.5 92.334 -66.5 179.001v118h-70v176h70v85l185 55v-140h105v-176zM138.999 -274.001l10 230
h170l-40 -230h-140z" />
    <glyph glyph-name="circumflex" unicode="&#x2c6;" horiz-adv-x="440" 
d="M420 540h-155l-45 58l-45 -58h-155l106 160h188z" />
    <glyph glyph-name="caron" unicode="&#x2c7;" horiz-adv-x="440" 
d="M265 700h155l-106 -160h-188l-106 160h155l45 -58z" />
    <glyph glyph-name="breve" unicode="&#x2d8;" horiz-adv-x="410" 
d="M205 532c-59.333 0 -105 14.333 -137 43s-48 71 -48 127h150c0 -26.667 11.667 -40 35 -40s35 13.333 35 40h150c0 -56 -16 -98.333 -48 -127s-77.667 -43 -137 -43z" />
    <glyph glyph-name="dotaccent" unicode="&#x2d9;" horiz-adv-x="230" 
d="M115 540c-26 0 -48.333 9.33301 -67 28s-28 41 -28 67s9.33301 48.333 28 67s41 28 67 28s48.333 -9.33301 67 -28s28 -41 28 -67s-9.33301 -48.333 -28 -67s-41 -28 -67 -28z" />
    <glyph glyph-name="ring" unicode="&#x2da;" horiz-adv-x="338" 
d="M169 530c-43.333 0 -79 13.333 -107 40s-42 60 -42 100s14 73.333 42 100s63.667 40 107 40c44.667 0 80.667 -13.167 108 -39.5s41 -59.833 41 -100.5s-13.667 -74.167 -41 -100.5s-63.333 -39.5 -108 -39.5zM169 640c21.333 0 32 10.002 32 30.002s-10.667 30 -32 30
c-10 0 -17.667 -2.83301 -23 -8.5s-8 -12.834 -8 -21.501s2.66699 -15.834 8 -21.501s13 -8.5 23 -8.5z" />
    <glyph glyph-name="ogonek" unicode="&#x2db;" horiz-adv-x="238" 
d="M130 -214c-32 0 -58.333 7.66699 -79 23s-31 38 -31 68c0 40.667 19.667 81.667 59 123h139c-26.667 -27.333 -40 -51 -40 -71c0 -12.667 7 -19 21 -19c6.66699 0 13 1 19 3v-110c-28 -11.333 -57.333 -17 -88 -17z" />
    <glyph glyph-name="tilde" unicode="&#x2dc;" horiz-adv-x="399" 
d="M20 543c0 40 5.66895 73 17.002 99s26.333 43.667 45 53s38.167 14 58.5 14s41.166 -4.33301 62.499 -13c3.33301 -1.33301 8.16602 -3.5 14.499 -6.5l14 -6.5c3 -1.33301 6.66699 -2.5 11 -3.5s7.5 -0.5 9.5 1.5s3.66699 5.33301 5 10s2 11 2 19h120
c0 -40.667 -5.66699 -74.167 -17 -100.5s-26.333 -44 -45 -53s-38.167 -13.333 -58.5 -13s-41.5 4.83301 -63.5 13.5c-3.33301 1.33301 -8 3.5 -14 6.5s-10.5 5.16699 -13.5 6.5s-6.66699 2.5 -11 3.5s-7.5 0.5 -9.5 -1.5s-3.66699 -5.33301 -5 -10s-2 -11 -2 -19h-120z" />
    <glyph glyph-name="hungarumlaut" unicode="&#x2dd;" horiz-adv-x="507" 
d="M20 540h168l86 160h-174zM223 540h168l96 160h-174z" />
    <glyph glyph-name="gravecomb" unicode="&#x300;" horiz-adv-x="0" 
d="M-20 550l-80 150h-210l116 -150h174z" />
    <glyph glyph-name="acutecomb" unicode="&#x301;" horiz-adv-x="0" 
d="M-280 550h174l116 150h-210z" />
    <glyph glyph-name="uni0302" unicode="&#x302;" horiz-adv-x="0" 
d="M-20 540h-155l-45 58l-45 -58h-155l106 160h188z" />
    <glyph glyph-name="tildecomb" unicode="&#x303;" horiz-adv-x="0" 
d="M-379 543c0 40 5.66895 73 17.002 99s26.333 43.667 45 53s38.167 14 58.5 14s41.166 -4.33301 62.499 -13c3.33301 -1.33301 8.16602 -3.5 14.499 -6.5l14 -6.5c3 -1.33301 6.66699 -2.5 11 -3.5s7.5 -0.5 9.5 1.5s3.66699 5.33301 5 10s2 11 2 19h120
c0 -40.667 -5.66699 -74.167 -17 -100.5s-26.333 -44 -45 -53s-38.167 -13.333 -58.5 -13s-41.5 4.83301 -63.5 13.5c-3.33301 1.33301 -8 3.5 -14 6.5s-10.5 5.16699 -13.5 6.5s-6.66699 2.5 -11 3.5s-7.5 0.5 -9.5 -1.5s-3.66699 -5.33301 -5 -10s-2 -11 -2 -19h-120z" />
    <glyph glyph-name="uni0304" unicode="&#x304;" horiz-adv-x="0" 
d="M-340 549v140h320v-140h-320z" />
    <glyph glyph-name="uni0306" unicode="&#x306;" horiz-adv-x="0" 
d="M-215 532c-59.333 0 -105 14.333 -137 43s-48 71 -48 127h150c0 -26.667 11.667 -40 35 -40s35 13.333 35 40h150c0 -56 -16 -98.333 -48 -127s-77.667 -43 -137 -43z" />
    <glyph glyph-name="uni0307" unicode="&#x307;" horiz-adv-x="0" 
d="M-115 540c-26 0 -48.333 9.33301 -67 28s-28 41 -28 67s9.33301 48.333 28 67s41 28 67 28s48.333 -9.33301 67 -28s28 -41 28 -67s-9.33301 -48.333 -28 -67s-41 -28 -67 -28z" />
    <glyph glyph-name="uni0308" unicode="&#x308;" horiz-adv-x="0" 
d="M-305 530c-23.333 0 -43.333 8.33301 -60 25s-25 36.667 -25 60s8.33301 43.333 25 60s36.667 25 60 25s43.333 -8.33301 60 -25s25 -36.667 25 -60s-8.33301 -43.333 -25 -60s-36.667 -25 -60 -25zM-105 530c-23.333 0 -43.333 8.33301 -60 25s-25 36.667 -25 60
s8.33301 43.333 25 60s36.667 25 60 25s43.333 -8.33301 60 -25s25 -36.667 25 -60s-8.33301 -43.333 -25 -60s-36.667 -25 -60 -25z" />
    <glyph glyph-name="uni030A" unicode="&#x30a;" horiz-adv-x="0" 
d="M-169 530c-43.333 0 -79 13.333 -107 40s-42 60 -42 100s14 73.333 42 100s63.667 40 107 40c44.667 0 80.667 -13.167 108 -39.5s41 -59.833 41 -100.5s-13.667 -74.167 -41 -100.5s-63.333 -39.5 -108 -39.5zM-169 640c21.333 0 32 10.002 32 30.002s-10.667 30 -32 30
c-10 0 -17.667 -2.83301 -23 -8.5s-8 -12.834 -8 -21.501s2.66699 -15.834 8 -21.501s13 -8.5 23 -8.5z" />
    <glyph glyph-name="uni030B" unicode="&#x30b;" horiz-adv-x="0" 
d="M-487 540h168l86 160h-174zM-284 540h168l96 160h-174z" />
    <glyph glyph-name="uni030C" unicode="&#x30c;" horiz-adv-x="0" 
d="M-175 700h155l-106 -160h-188l-106 160h155l45 -58z" />
    <glyph glyph-name="uni0312" unicode="&#x312;" horiz-adv-x="0" 
d="M-160 990l-40 -230h170l10 230h-140z" />
    <glyph glyph-name="uni0326" unicode="&#x326;" horiz-adv-x="0" 
d="M-60 -284l40 230h-170l-10 -230h140z" />
    <glyph glyph-name="uni0327" unicode="&#x327;" horiz-adv-x="0" 
d="M-73 -46c35.333 -14.667 53 -40.333 53 -77c0 -37.333 -20.333 -65 -61 -83s-102 -24.667 -184 -20v114c63.333 -4.66699 95 0 95 14c0 10 -17.667 16.667 -53 20v78h150v-46z" />
    <glyph glyph-name="uni0328" unicode="&#x328;" horiz-adv-x="0" 
d="M-108 -214c-32 0 -58.333 7.66699 -79 23s-31 38 -31 68c0 40.667 19.667 81.667 59 123h139c-26.667 -27.333 -40 -51 -40 -71c0 -12.667 7 -19 21 -19c6.66699 0 13 1 19 3v-110c-28 -11.333 -57.333 -17 -88 -17z" />
    <glyph glyph-name="uni0394" unicode="&#x394;" horiz-adv-x="660" 
d="M442 700l228 -700h-680l228 700h224zM248 160h164l-82 305z" />
    <glyph glyph-name="uni03A9" unicode="&#x3a9;" horiz-adv-x="782" 
d="M762 370c0 -72 -23.335 -134 -70.002 -186h54v-184h-284v194c30.667 13.333 55 33.833 73 61.5s27 59.167 27 94.5c0 48.667 -16.167 89.167 -48.5 121.5s-73.166 48.5 -122.499 48.5s-90.166 -16.167 -122.499 -48.5s-48.5 -72.833 -48.5 -121.5
c0 -35.333 9 -66.833 27 -94.5s42.333 -48.167 73 -61.5v-194h-284v184h54c-46.667 52 -70 114 -70 186c0 102 35.5 185.167 106.5 249.5s159.167 96.5 264.5 96.5s193.5 -32.167 264.5 -96.5s106.5 -147.5 106.5 -249.5z" />
    <glyph glyph-name="pi" unicode="&#x3c0;" horiz-adv-x="650" 
d="M640 500v-176h-70v-324h-185v324h-120v-324h-185v324h-70v176h630z" />
    <glyph glyph-name="uni0401" unicode="&#x401;" horiz-adv-x="540" 
d="M178 730c-23.333 0 -43.333 8.33301 -60 25s-25 36.667 -25 60s8.33301 43.333 25 60s36.667 25 60 25s43.333 -8.33301 60 -25s25 -36.667 25 -60s-8.33301 -43.333 -25 -60s-36.667 -25 -60 -25zM378 730c-23.333 0 -43.333 8.33301 -60 25s-25 36.667 -25 60
s8.33301 43.333 25 60s36.667 25 60 25s43.333 -8.33301 60 -25s25 -36.667 25 -60s-8.33301 -43.333 -25 -60s-36.667 -25 -60 -25zM250 184h260v-184h-460v700h455v-182h-255v-76h230v-180h-230v-78z" />
    <glyph glyph-name="uni0402" unicode="&#x402;" horiz-adv-x="705" 
d="M494 434c56.667 0 100.165 -16.3311 130.498 -48.998s45.5 -81.334 45.5 -146.001v-39c0 -78.667 -19.667 -135.5 -59 -170.5s-99.666 -50.167 -180.999 -45.5v171c16.667 -2 28.334 0.666992 35.001 8s10 19.666 10 36.999v14c0 28 -15 42 -45 42
c-20 0 -41.667 -4 -65 -12v-244h-200v506h-155v194h530v-194h-175v-89c49.333 11.333 92.333 17 129 17z" />
    <glyph glyph-name="uni0403" unicode="&#x403;" horiz-adv-x="480" 
d="M426 899l-116 -150h-174l80 150h210zM480 700v-194h-230v-506h-200v700h430z" />
    <glyph glyph-name="uni0404" unicode="&#x404;" horiz-adv-x="718" 
d="M386 175c31.333 0 59.168 7.16602 83.501 21.499s42.5 33.833 54.5 58.5l174 -100c-30 -52.667 -72.5 -94.334 -127.5 -125.001s-114.833 -46 -179.5 -46c-107.333 0 -195.166 34.833 -263.499 104.5s-102.5 156.834 -102.5 261.501s34.167 191.834 102.5 261.501
s156.166 104.5 263.499 104.5c64 0 123.5 -15.5 178.5 -46.5s97.833 -72.167 128.5 -123.5l-174 -100c-12 23.333 -30.333 42.333 -55 57s-52.334 22 -83.001 22c-69.333 0 -118 -28.333 -146 -85h211v-180h-211c28 -56.667 76.667 -85 146 -85z" />
    <glyph glyph-name="uni0405" unicode="&#x405;" horiz-adv-x="585" 
d="M302 -16c-76 0 -139.332 15.833 -189.999 47.5s-84.667 74.5 -102 128.5l171 99c23.333 -59.333 65.333 -89 126 -89c45.333 0 68 12 68 36c0 6.66699 -1.66699 12.667 -5 18s-9.66602 10 -18.999 14s-17.5 7.16699 -24.5 9.5s-19.167 5.83301 -36.5 10.5
s-30.333 8.33398 -39 11.001c-139.333 42 -209 117 -209 225c0 64 23.167 117 69.5 159s107.166 63 182.499 63c59.333 0 112.5 -14 159.5 -42s81.5 -68.333 103.5 -121l-166 -97c-19.333 49.333 -51.333 74 -96 74c-17.333 0 -30.5 -3.5 -39.5 -10.5
s-13.5 -15.833 -13.5 -26.5c0 -14.667 7.83301 -26 23.5 -34s45.834 -18.333 90.501 -31c33.333 -10 60.666 -19.5 81.999 -28.5s43.666 -21.667 66.999 -38s40.833 -37.333 52.5 -63s17.5 -55.834 17.5 -90.501c0 -71.333 -24.5 -126.5 -73.5 -165.5
s-115.5 -58.5 -199.5 -58.5z" />
    <glyph glyph-name="uni0406" unicode="&#x406;" horiz-adv-x="300" 
d="M50 700h200v-700h-200v700z" />
    <glyph glyph-name="uni0407" unicode="&#x407;" horiz-adv-x="300" 
d="M50 730c-23.333 0 -43.333 8.33301 -60 25s-25 36.667 -25 60s8.33301 43.333 25 60s36.667 25 60 25s43.333 -8.33301 60 -25s25 -36.667 25 -60s-8.33301 -43.333 -25 -60s-36.667 -25 -60 -25zM250 730c-23.333 0 -43.333 8.33301 -60 25s-25 36.667 -25 60
s8.33301 43.333 25 60s36.667 25 60 25s43.333 -8.33301 60 -25s25 -36.667 25 -60s-8.33301 -43.333 -25 -60s-36.667 -25 -60 -25zM50 700h200v-700h-200v700z" />
    <glyph glyph-name="uni0408" unicode="&#x408;" horiz-adv-x="567" 
d="M267 -16c-118 0 -200.333 48.001 -247 144.001l168 99c16 -32.667 42 -49 78 -49c40.667 0 61 19 61 57v465h200v-470c0 -76.667 -22.667 -136.834 -68 -180.501s-109.333 -65.5 -192 -65.5z" />
    <glyph glyph-name="uni0409" unicode="&#x409;" horiz-adv-x="925" 
d="M660 481c70 0 130 -21.5 180 -64.5s75 -101.833 75 -176.5s-25 -133.5 -75 -176.5s-110 -64.5 -180 -64.5h-200v1h-60v506h-104v-246c0 -55.333 -8.16699 -101.833 -24.5 -139.5s-39.166 -65.5 -68.499 -83.5s-60.5 -30 -93.5 -36s-69.5 -7 -109.5 -3v186
c35.333 -2 60.166 3.66699 74.499 17s21.5 41 21.5 83v416h504v-219h60zM660 193c36.667 0 55 15.667 55 47s-18.333 47 -55 47h-60v-94h60z" />
    <glyph glyph-name="uni040A" unicode="&#x40a;" horiz-adv-x="935" 
d="M670 482c70 0 130 -21.5 180 -64.5s75 -101.833 75 -176.5s-25 -133.5 -75 -176.5s-110 -64.5 -180 -64.5h-260v288h-160v-288h-200v700h200v-218h160v218h200v-218h60zM670 194c36.667 0 55 15.667 55 47s-18.333 47 -55 47h-60v-94h60z" />
    <glyph glyph-name="uni040B" unicode="&#x40b;" horiz-adv-x="710" 
d="M494 444c56.667 0 100.167 -16.332 130.5 -48.999s45.5 -81.334 45.5 -146.001v-249h-195v224c0 28 -15 42 -45 42c-20 0 -41.667 -4 -65 -12v-254h-200v506h-155v194h530v-194h-175v-79c49.333 11.333 92.333 17 129 17z" />
    <glyph glyph-name="uni040C" unicode="&#x40c;" horiz-adv-x="636" 
d="M496 899l-116 -150h-174l80 150h210zM646 0h-222l-174 300v-300h-200v700h200v-280l164 280h222l-208 -340z" />
    <glyph glyph-name="uni040E" unicode="&#x40e;" horiz-adv-x="650" 
d="M510 898v-150h-350v150h350zM440 700h209.998l-202 -474c-33.333 -78 -77.166 -136 -131.499 -174s-125.166 -55.333 -212.499 -52v186c60.667 -4.66699 106.667 7 138 35l-232 479h210l121 -266z" />
    <glyph glyph-name="uni040F" unicode="&#x40f;" horiz-adv-x="650" 
d="M400 700h200v-700h-175v-134h-200v134h-175v700h200v-506h150v506z" />
    <glyph glyph-name="uni0410" unicode="&#x410;" horiz-adv-x="660" 
d="M455 0l-24 90h-202l-24 -90h-215l223 700h234l223 -700h-215zM272 250h116l-58 215z" />
    <glyph glyph-name="uni0411" unicode="&#x411;" horiz-adv-x="600" 
d="M360 444c71.333 0 127.5 -19.833 168.5 -59.5s61.5 -92.834 61.5 -159.501c0 -67.333 -20.667 -121.666 -62 -162.999s-97.333 -62 -168 -62h-310v700h480v-194h-280v-62h110zM345 180c13.333 0 24.166 4 32.499 12s12.5 19 12.5 33s-4.16699 25 -12.5 33
s-19.166 12 -32.499 12h-95v-90h95z" />
    <glyph glyph-name="uni0412" unicode="&#x412;" horiz-adv-x="605" 
d="M500 361c60 -34 90 -85.667 90 -155c0 -64 -20.833 -114.333 -62.5 -151s-102.167 -55 -181.5 -55h-296v700h278c78.667 0 138.667 -17 180 -51s62 -82.667 62 -146c0 -60.667 -23.333 -108 -70 -142zM316 528h-65.999v-94l77 1c28.667 4 43 19.333 43 46
c0 15.333 -5.33301 27 -16 35s-23.334 12 -38.001 12zM334.001 172c16 0 29.333 4.66699 40 14s16 21.333 16 36c0 28 -15 44.333 -45 49l-95 1v-100h84z" />
    <glyph glyph-name="uni0413" unicode="&#x413;" horiz-adv-x="480" 
d="M480 700v-194h-230v-506h-200v700h430z" />
    <glyph glyph-name="uni0414" unicode="&#x414;" horiz-adv-x="715" 
d="M630 194l75 -0.000976562v-328h-200v134h-300v-134h-200v328h74c28 50.667 42 121.334 42 212.001v294h509v-506zM286 193.999h144v322h-109v-112c0 -86.667 -11.667 -156.667 -35 -210z" />
    <glyph glyph-name="uni0415" unicode="&#x415;" horiz-adv-x="540" 
d="M250 184h260v-184h-460v700h455v-182h-255v-76h230v-180h-230v-78z" />
    <glyph glyph-name="uni0416" unicode="&#x416;" horiz-adv-x="932" 
d="M932 0h-222l-144 298v-298h-200v298l-144 -298h-222l193 352l-183 348h222l134 -295v295h200v-295l134 295h222l-183 -348z" />
    <glyph glyph-name="uni0417" unicode="&#x417;" horiz-adv-x="561" 
d="M452 359c62.667 -34.667 93.9971 -89 93.9971 -163c0 -63.333 -23.5 -114.5 -70.5 -153.5s-112.167 -58.5 -195.5 -58.5c-73.333 0 -132.666 14.667 -177.999 44s-77.666 68.333 -96.999 117l169 99c20.667 -46.667 56 -70 106 -70c44 0 66 16 66 48
c0 27.333 -16.667 42.333 -50 45l-106 1v170l83 1c34.667 2 52 17 52 45c0 30.667 -20.333 46 -61 46c-43.333 0 -72.666 -20.667 -87.999 -62l-166 97c20 48 53.667 85.167 101 111.5s100 39.5 158 39.5c76 0 137.667 -19.5 185 -58.5s71 -90.5 71 -154.5
c0 -63.333 -24.333 -111.333 -73 -144z" />
    <glyph glyph-name="uni0418" unicode="&#x418;" horiz-adv-x="680" 
d="M430 0v320l-220 -320h-160v700h200v-320l220 320h160v-700h-200z" />
    <glyph glyph-name="uni0419" unicode="&#x419;" horiz-adv-x="680" 
d="M165 749v150h350v-150h-350zM430 0v320l-220 -320h-160v700h200v-320l220 320h160v-700h-200z" />
    <glyph glyph-name="uni041A" unicode="&#x41a;" horiz-adv-x="636" 
d="M646 0h-222l-174 300v-300h-200v700h200v-280l164 280h222l-208 -340z" />
    <glyph glyph-name="uni041B" unicode="&#x41b;" horiz-adv-x="660" 
d="M0 0l0.000976562 186.002c35.333 -3.33301 60.166 1.66699 74.499 15s21.5 41 21.5 83v416h514v-700h-200v506h-114v-246c0 -55.333 -8.16699 -101.833 -24.5 -139.5s-39 -65.334 -68 -83.001s-60.167 -29.334 -93.5 -35.001s-70 -6.5 -110 -2.5z" />
    <glyph glyph-name="uni041C" unicode="&#x41c;" horiz-adv-x="830" 
d="M780 700v-700h-200v341l-156 -262h-18l-156 262v-341h-200v700h200l165 -285l165 285h200z" />
    <glyph glyph-name="uni041D" unicode="&#x41d;" horiz-adv-x="670" 
d="M420 700h200v-700h-200v258h-170v-258h-200v700h200v-248h170v248z" />
    <glyph glyph-name="uni041E" unicode="&#x41e;" horiz-adv-x="792" 
d="M396 -16c-104 0 -191.833 35.167 -263.5 105.5s-107.5 157.166 -107.5 260.499s35.833 190.166 107.5 260.499s159.5 105.5 263.5 105.5s191.833 -35.167 263.5 -105.5s107.5 -157.166 107.5 -260.499s-35.833 -190.166 -107.5 -260.499s-159.5 -105.5 -263.5 -105.5z
M396 180c49.333 0 90.166 16.167 122.499 48.5s48.5 72.833 48.5 121.5s-16.167 89.167 -48.5 121.5s-73.166 48.5 -122.499 48.5s-90.166 -16.167 -122.499 -48.5s-48.5 -72.833 -48.5 -121.5s16.167 -89.167 48.5 -121.5s73.166 -48.5 122.499 -48.5z" />
    <glyph glyph-name="uni041F" unicode="&#x41f;" horiz-adv-x="650" 
d="M600 700v-700h-200v506h-150v-506h-200v700h550z" />
    <glyph glyph-name="uni0420" unicode="&#x420;" horiz-adv-x="595" 
d="M330 700c72.667 0 133.334 -22.833 182.001 -68.5s73 -106.5 73 -182.5s-24.333 -136.833 -73 -182.5s-109.334 -68.5 -182.001 -68.5h-80v-198h-200v700h280zM330 392c15.333 0 28.333 5.16895 39 15.502s16 24.166 16 41.499s-5.33301 31.166 -16 41.499
s-23.667 15.5 -39 15.5h-80v-114h80z" />
    <glyph glyph-name="uni0421" unicode="&#x421;" horiz-adv-x="718" 
d="M391 -16c-105.333 0 -192.666 35.002 -261.999 105.002s-104 157 -104 261s34.667 191 104 261s156.666 105 261.999 105c64.667 0 124.334 -15.333 179.001 -46s97.334 -72 128.001 -124l-174 -100c-11.333 22.667 -29 40.667 -53 54s-50.667 20 -80 20
c-49.333 0 -89.333 -16 -120 -48s-46 -72.667 -46 -122s15.333 -90 46 -122s70.667 -48 120 -48c30 0 56.833 6.66699 80.5 20s41.167 31.666 52.5 54.999l174 -100c-30.667 -52.667 -73.334 -94.334 -128.001 -125.001s-114.334 -46 -179.001 -46z" />
    <glyph glyph-name="uni0422" unicode="&#x422;" horiz-adv-x="550" 
d="M540 700v-194h-165v-506h-200v506h-165v194h530z" />
    <glyph glyph-name="uni0423" unicode="&#x423;" horiz-adv-x="650" 
d="M440 700h209.998l-202 -474c-33.333 -78 -77.166 -136 -131.499 -174s-125.166 -55.333 -212.499 -52v186c60.667 -4.66699 106.667 7 138 35l-232 479h210l121 -266z" />
    <glyph glyph-name="uni0424" unicode="&#x424;" horiz-adv-x="844" 
d="M824 350c0 -78 -26.667 -142 -80 -192s-129 -81.333 -227 -94v-84h-190v84c-98 12.667 -173.667 44 -227 94s-80 114 -80 192s26.667 142 80 192s129 81.333 227 94v84h190v-84c98 -12.667 173.667 -44 227 -94s80 -114 80 -192zM220 350
c0 -29.333 8.33301 -52.165 25 -68.498s44 -27.833 82 -34.5v212c-38 -6.66699 -65.333 -18.834 -82 -36.501s-25 -41.834 -25 -72.501zM517 247.001c38 6.66699 65.333 18.166 82 34.499s25 39.166 25 68.499c0 30.667 -8.33301 54.834 -25 72.501s-44 29.834 -82 36.501
v-212z" />
    <glyph glyph-name="uni0425" unicode="&#x425;" horiz-adv-x="645" 
d="M645 0h-222l-100 168l-101 -168h-222l212 354l-207 346h222l96 -160l95 160h222l-206 -346z" />
    <glyph glyph-name="uni0426" unicode="&#x426;" horiz-adv-x="715" 
d="M620 194h85v-328h-200v134h-455v700h210v-506h150v506h210v-506z" />
    <glyph glyph-name="uni0427" unicode="&#x427;" horiz-adv-x="660" 
d="M410 700h199.999v-700h-200v218c-38.667 -10.667 -78.334 -16 -119.001 -16c-78 0 -139.333 21.833 -184 65.5s-67 104.5 -67 182.5v250h200v-236c0 -21.333 6.83301 -38 20.5 -50s31.834 -18 54.501 -18c32.667 0 64.334 4.33301 95.001 13v291z" />
    <glyph glyph-name="uni0428" unicode="&#x428;" horiz-adv-x="960" 
d="M710 700h200v-700h-860v700h200v-506h130v506h200v-506h130v506z" />
    <glyph glyph-name="uni0429" unicode="&#x429;" horiz-adv-x="1005" 
d="M910 194h85v-328h-200v134h-745v700h200v-506h130v506h200v-506h130v506h200v-506z" />
    <glyph glyph-name="uni042A" unicode="&#x42a;" horiz-adv-x="705" 
d="M160 -1v507h-160v194l360 -1v-198h80c72.667 0 133.334 -22.833 182.001 -68.5s73 -106.5 73 -182.5s-24.333 -136.833 -73 -182.5s-109.334 -68.5 -182.001 -68.5h-280zM360 193l80 0.00195312c15.333 0 28.333 5.16699 39 15.5s16 24.166 16 41.499
s-5.33301 31.166 -16 41.499s-23.667 15.5 -39 15.5h-80v-114z" />
    <glyph glyph-name="uni042B" unicode="&#x42b;" horiz-adv-x="890" 
d="M50 -1v700h200v-198h80c72.667 0 133.334 -22.833 182.001 -68.5s73 -106.5 73 -182.5s-24.333 -136.833 -73 -182.5s-109.334 -68.5 -182.001 -68.5h-280zM640 -1v700h200v-700h-200zM250 193l80 0.00195312c15.333 0 28.333 5.16699 39 15.5s16 24.166 16 41.499
s-5.33301 31.166 -16 41.499s-23.667 15.5 -39 15.5h-80v-114z" />
    <glyph glyph-name="uni042C" unicode="&#x42c;" horiz-adv-x="595" 
d="M330 502c72.667 0 133.334 -22.833 182.001 -68.5s73 -106.5 73 -182.5s-24.333 -136.833 -73 -182.5s-109.334 -68.5 -182.001 -68.5h-280v700h200v-198h80zM330 194c15.333 0 28.333 5.16895 39 15.502s16 24.166 16 41.499s-5.33301 31.166 -16 41.499
s-23.667 15.5 -39 15.5h-80v-114h80z" />
    <glyph glyph-name="uni042D" unicode="&#x42d;" horiz-adv-x="718" 
d="M327 716c107.333 0 195.168 -34.832 263.501 -104.499s102.5 -156.834 102.5 -261.501s-34.167 -191.834 -102.5 -261.501s-156.166 -104.5 -263.499 -104.5c-64.667 0 -124.5 15.333 -179.5 46s-97.5 72.334 -127.5 125.001l174 100
c12 -24.667 30.167 -44.167 54.5 -58.5s52.166 -21.5 83.499 -21.5c69.333 0 118 28.333 146 85h-211v180h211c-28 56.667 -76.667 85 -146 85c-30.667 0 -58.334 -7.33301 -83.001 -22s-43 -33.667 -55 -57l-174 100c30.667 51.333 73.5 92.5 128.5 123.5
s114.5 46.5 178.5 46.5z" />
    <glyph glyph-name="uni042E" unicode="&#x42e;" horiz-adv-x="1077" 
d="M681 716c104 0 191.832 -35.1699 263.499 -105.503s107.5 -157.166 107.5 -260.499s-35.833 -190.166 -107.5 -260.499s-159.5 -105.5 -263.5 -105.5c-87.333 0 -163.166 25.833 -227.499 77.5s-105.833 118.834 -124.5 201.501h-79v-263h-200v700h200v-243h85
c21.333 77.333 63.333 139.833 126 187.5s136 71.5 220 71.5zM680.999 179.997c49.333 0 90.166 16.167 122.499 48.5s48.5 72.833 48.5 121.5s-16.167 89.167 -48.5 121.5s-73.166 48.5 -122.499 48.5s-90.166 -16.167 -122.499 -48.5s-48.5 -72.833 -48.5 -121.5
s16.167 -89.167 48.5 -121.5s73.166 -48.5 122.499 -48.5z" />
    <glyph glyph-name="uni042F" unicode="&#x42f;" horiz-adv-x="635" 
d="M585 701v-700h-200v220h-25l-130 -220h-220l155 252c-38.667 19.333 -69.167 46.5 -91.5 81.5s-33.5 75.167 -33.5 120.5c0 74 25 133.5 75 178.5s113.333 67.5 190 67.5h280zM309 517c-21.333 0 -38.166 -5.83301 -50.499 -17.5s-18.5 -27.834 -18.5 -48.501
s6.16699 -36.667 18.5 -48s29.166 -16.666 50.499 -15.999h76v130h-76z" />
    <glyph glyph-name="uni0430" unicode="&#x430;" horiz-adv-x="606" 
d="M381 500h185v-500h-185v45c-32 -39.333 -76.667 -59 -134 -59c-67.333 0 -122.333 25 -165 75s-64 113 -64 189s21.333 139 64 189s97.667 75 165 75c57.333 0 102 -19.667 134 -59v45zM292 156c26.667 0 48.167 9 64.5 27s24.5 40.333 24.5 67s-8.16699 49 -24.5 67
s-37.833 27 -64.5 27s-48.167 -9 -64.5 -27s-24.5 -40.333 -24.5 -67s8.16699 -49 24.5 -67s37.833 -27 64.5 -27z" />
    <glyph glyph-name="uni0431" unicode="&#x431;" horiz-adv-x="572" 
d="M300 -16c-85.333 0 -153.334 25.3291 -204.001 75.9961s-76 119.334 -76 206.001c0 83.333 14.5 150.833 43.5 202.5s73.833 92.167 134.5 121.5c67.333 32.667 113 57.334 137 74.001s41.333 37.334 52 62.001l149 -85c-10.667 -36 -28.834 -64.167 -54.501 -84.5
s-65.167 -41.5 -118.5 -63.5c-47.333 -19.333 -80.666 -35.166 -99.999 -47.499s-33.666 -27.833 -42.999 -46.5c32 26 72.333 39 121 39c60 0 111.833 -20.167 155.5 -60.5s65.5 -93.5 65.5 -159.5c0 -68 -23.667 -124 -71 -168s-111 -66 -191 -66zM295.999 138.996
c23.333 0 42.667 7.16699 58 21.5s23 32.5 23 54.5c0 22.667 -8 41.334 -24 56.001s-35.667 22 -59 22c-22 0 -41.167 -6.83301 -57.5 -20.5s-24.5 -31.834 -24.5 -54.501c0 -23.333 8 -42.333 24 -57s36 -22 60 -22z" />
    <glyph glyph-name="uni0432" unicode="&#x432;" horiz-adv-x="525" 
d="M437 255c48.667 -22 73 -58.333 73 -109c0 -45.333 -15.167 -81 -45.5 -107s-75.166 -39 -134.499 -39h-290v500h275c59.333 0 104.166 -12.833 134.499 -38.5s45.5 -61.167 45.5 -106.5c0 -44 -19.333 -77.333 -58 -100zM281 371h-61v-62h61c22.667 0 34 10 34 30
c0 21.333 -11.333 32 -34 32zM290 129c22.667 0 34 10.667 34 32c0 20 -11.333 30 -34 30h-70v-62h70z" />
    <glyph glyph-name="uni0433" unicode="&#x433;" horiz-adv-x="420" 
d="M410 500v-176h-185v-324h-185v500h370z" />
    <glyph glyph-name="uni0434" unicode="&#x434;" horiz-adv-x="600" 
d="M525 176h65v-310h-175v134h-240v-134h-175v310h56c24 39.333 36 95 36 167v157h433v-324zM245 176l100 -0.000976562v160h-73c-0.666992 -63.333 -9.66699 -116.666 -27 -159.999z" />
    <glyph glyph-name="uni0435" unicode="&#x435;" horiz-adv-x="560" 
d="M205 187c16 -33.333 50 -50 102 -50c30.667 0 59 10.667 85 32l121 -102c-50 -54 -120.667 -81 -212 -81c-85.333 0 -153.833 24.833 -205.5 74.5s-77.5 112.167 -77.5 187.5c0 76 25.167 139.333 75.5 190s113.833 76 190.5 76c76 0 138.5 -24.833 187.5 -74.5
s73.5 -112.167 73.5 -187.5c0 -22 -2.66699 -43.667 -8 -65h-332zM202 306h168c-11.333 40 -38.333 60 -81 60c-43.333 0 -72.333 -20 -87 -60z" />
    <glyph glyph-name="uni0436" unicode="&#x436;" horiz-adv-x="789" 
d="M789 0h-202l-100 192v-192h-185v192l-100 -192h-202l144 250l-134 250h202l90 -187v187h185v-187l90 187h202l-134 -250z" />
    <glyph glyph-name="uni0437" unicode="&#x437;" horiz-adv-x="460" 
d="M368 256c51.333 -24.667 77.001 -64.6689 77.001 -120.002c0 -44.667 -19.833 -81.167 -59.5 -109.5s-91.834 -42.5 -156.501 -42.5c-53.333 0 -98.5 9.16699 -135.5 27.5s-66.5 49.5 -88.5 93.5l139 81c16 -36 41.667 -54 77 -54c9.33301 0 18 2.33301 26 7
s12 11.334 12 20.001c0 18 -11.333 27 -34 27h-50v134h50c6.66699 0 12.5 2.66699 17.5 8s7.5 11.333 7.5 18c0 18.667 -13 28 -39 28c-30.667 0 -51.334 -17 -62.001 -51l-139 74c25.333 42 55.333 72 90 90s78.334 27 131.001 27c57.333 0 104.833 -14.333 142.5 -43
s56.5 -64 56.5 -106c0 -49.333 -20.667 -85.666 -62 -108.999z" />
    <glyph glyph-name="uni0438" unicode="&#x438;" horiz-adv-x="580" 
d="M391 500h149v-500h-180v215l-171 -215h-149v500h180v-215z" />
    <glyph glyph-name="uni0439" unicode="&#x439;" horiz-adv-x="580" 
d="M115 549v150h350v-150h-350zM391 500h149v-500h-180v215l-171 -215h-149v500h180v-215z" />
    <glyph glyph-name="uni043A" unicode="&#x43a;" horiz-adv-x="550" 
d="M550 0h-205l-120 200v-200h-185v500h185v-194l105 194h210l-152 -250z" />
    <glyph glyph-name="uni043B" unicode="&#x43b;" horiz-adv-x="582" 
d="M542 500l-0.000976562 -499.998h-185v324h-90v-117c0 -81.333 -20.333 -138.5 -61 -171.5s-106 -44.833 -196 -35.5v170c24.667 -6.66699 42.834 -3.83398 54.501 8.49902s17.5 35.166 17.5 68.499v253h460z" />
    <glyph glyph-name="uni043C" unicode="&#x43c;" horiz-adv-x="658" 
d="M618 500v-500h-180v220l-100 -155h-18l-100 155v-220h-180v500h180l109 -170l109 170h180z" />
    <glyph glyph-name="uni043D" unicode="&#x43d;" horiz-adv-x="570" 
d="M345 500h185v-500h-185v162h-120v-162h-185v500h185v-162h120v162z" />
    <glyph glyph-name="uni043E" unicode="&#x43e;" horiz-adv-x="574" 
d="M287 -14c-74.667 0 -138.167 25.333 -190.5 76s-78.5 113.334 -78.5 188.001s26 137.334 78 188.001s115.667 76 191 76s139 -25.333 191 -76s78 -113.334 78 -188.001s-26 -137.334 -78 -188.001s-115.667 -76 -191 -76zM287 162c24.667 0 44.834 8.16699 60.501 24.5
s23.5 37.5 23.5 63.5s-7.83301 47.167 -23.5 63.5s-35.834 24.5 -60.501 24.5s-44.834 -8.16699 -60.501 -24.5s-23.5 -37.5 -23.5 -63.5s7.83301 -47.167 23.5 -63.5s35.834 -24.5 60.501 -24.5z" />
    <glyph glyph-name="uni043F" unicode="&#x43f;" horiz-adv-x="570" 
d="M530 500v-500h-185v324h-120v-324h-185v500h490z" />
    <glyph glyph-name="uni0440" unicode="&#x440;" horiz-adv-x="606" 
d="M359 514c67.333 0 122.333 -25 165 -75s64 -113 64 -189s-21.333 -139 -64 -189s-97.667 -75 -165 -75c-57.333 0 -102 19.667 -134 59v-245h-185v700h185v-45c32 39.333 76.667 59 134 59zM314 156c26.667 0 48.167 9 64.5 27s24.5 40.333 24.5 67s-8.16699 49 -24.5 67
s-37.833 27 -64.5 27s-48.167 -9 -64.5 -27s-24.5 -40.333 -24.5 -67s8.16699 -49 24.5 -67s37.833 -27 64.5 -27z" />
    <glyph glyph-name="uni0441" unicode="&#x441;" horiz-adv-x="525" 
d="M285 -14c-76.667 0 -140.334 25.1689 -191.001 75.502s-76 113.166 -76 188.499s25.333 138.166 76 188.499s114.334 75.5 191.001 75.5c49.333 0 94.5 -11.833 135.5 -35.5s72.5 -55.5 94.5 -95.5l-156 -89c-16.667 28 -41.334 42 -74.001 42
c-23.333 0 -42.833 -8.16699 -58.5 -24.5s-23.5 -36.833 -23.5 -61.5s7.83301 -45.167 23.5 -61.5s35.167 -24.5 58.5 -24.5c34.667 0 59.334 14.333 74.001 43l156 -90c-22 -40.667 -53.5 -72.667 -94.5 -96s-86.167 -35 -135.5 -35z" />
    <glyph glyph-name="uni0442" unicode="&#x442;" horiz-adv-x="470" 
d="M465 500v-176h-136v-324h-186v324h-138v176h460z" />
    <glyph glyph-name="uni0443" unicode="&#x443;" horiz-adv-x="570" 
d="M360 500h210l-166 -485c-26 -76.667 -67.167 -132.5 -123.5 -167.5s-123.5 -50.833 -201.5 -47.5v175c34 0 60 2.5 78 7.5s32.333 14.167 43 27.5l-200 490h210l89 -267z" />
    <glyph glyph-name="uni0444" unicode="&#x444;" horiz-adv-x="730" 
d="M712 250c0 -67.333 -21.5 -124.333 -64.5 -171s-107.167 -76.334 -192.5 -89.001v-190h-180v190c-85.333 12.667 -149.5 42.334 -192.5 89.001s-64.5 103.667 -64.5 171c0 66.667 21.5 123.167 64.5 169.5s107.167 75.833 192.5 88.5v192h180v-192
c85.333 -12.667 149.5 -42.167 192.5 -88.5s64.5 -102.833 64.5 -169.5zM202 250c0 -44 24.333 -72.667 73 -86v172c-48.667 -13.333 -73 -42 -73 -86zM455 164c48.667 13.333 73 42 73 86s-24.333 72.667 -73 86v-172z" />
    <glyph glyph-name="uni0445" unicode="&#x445;" horiz-adv-x="570" 
d="M570 0h-205l-80 112l-80 -112h-205l183 256l-175 244h205l72 -101l72 101h205l-174 -244z" />
    <glyph glyph-name="uni0446" unicode="&#x446;" horiz-adv-x="615" 
d="M520 176h85v-310h-175v134h-390v500h185v-324h110v324h185v-324z" />
    <glyph glyph-name="uni0447" unicode="&#x447;" horiz-adv-x="540" 
d="M315 500h185v-500h-185v130c-30.667 -7.33301 -60.667 -11 -90 -11c-60.667 0 -110 16.833 -148 50.5s-57 80.5 -57 140.5v190h185v-150c0 -40.667 21.667 -61 65 -61c16 0 31 2 45 6v205z" />
    <glyph glyph-name="uni0448" unicode="&#x448;" horiz-adv-x="830" 
d="M605 500h185v-500h-750v500h185v-324h100v324h180v-324h100v324z" />
    <glyph glyph-name="uni0449" unicode="&#x449;" horiz-adv-x="875" 
d="M780 176h85v-310h-175v134h-650v500h185v-324h95v324h180v-324h95v324h185v-324z" />
    <glyph glyph-name="uni044A" unicode="&#x44a;" horiz-adv-x="580" 
d="M374 370c60.667 0 108.5 -16.5 143.5 -49.5s52.5 -78.167 52.5 -135.5s-17.5 -102.5 -52.5 -135.5s-82.833 -49.5 -143.5 -49.5h-264v324h-110v176h295v-130h79zM351 150c26 0 39 11.667 39 35s-13 35 -39 35h-56v-70h56z" />
    <glyph glyph-name="uni044B" unicode="&#x44b;" horiz-adv-x="755" 
d="M304 370c60.667 0 108.5 -16.5 143.5 -49.5s52.5 -78.167 52.5 -135.5s-17.5 -102.5 -52.5 -135.5s-82.833 -49.5 -143.5 -49.5h-264v500h185v-130h79zM530 500h185v-500h-185v500zM281 150c26 0 39 11.667 39 35s-13 35 -39 35h-56v-70h56z" />
    <glyph glyph-name="uni044C" unicode="&#x44c;" horiz-adv-x="510" 
d="M304 370c60.667 0 108.5 -16.5 143.5 -49.5s52.5 -78.167 52.5 -135.5s-17.5 -102.5 -52.5 -135.5s-82.833 -49.5 -143.5 -49.5h-264v500h185v-130h79zM281 150c26 0 39 11.667 39 35s-13 35 -39 35h-56v-70h56z" />
    <glyph glyph-name="uni044D" unicode="&#x44d;" horiz-adv-x="520" 
d="M235 514c78 0 142 -25 192 -75s75 -113 75 -189s-25 -139 -75 -189s-114 -75 -192 -75c-49.333 0 -94.5 11.667 -135.5 35s-72.5 55.333 -94.5 96l146 84c8 -38.667 37.667 -58 89 -58c36 0 63 12.333 81 37h-130v140h130c-18 24.667 -45 37 -81 37
c-24 0 -43.5 -5.5 -58.5 -16.5s-24.833 -24.5 -29.5 -40.5l-147 83c22 40 53.667 71.833 95 95.5s86.333 35.5 135 35.5z" />
    <glyph glyph-name="uni044E" unicode="&#x44e;" horiz-adv-x="798" 
d="M511 514c75.333 0 139 -25.3311 191 -75.998s78 -113.334 78 -188.001s-26 -137.334 -78 -188.001s-115.667 -76 -191 -76c-58 0 -109 16.167 -153 48.5s-74.667 74.833 -92 127.5h-41v-162h-185v500h185v-162h40c17.333 52.667 48 95.167 92 127.5s95.333 48.5 154 48.5
zM511 162.002c24.667 0 44.834 8.16699 60.501 24.5s23.5 37.5 23.5 63.5s-7.83301 47.167 -23.5 63.5s-35.834 24.5 -60.501 24.5s-44.834 -8.16699 -60.501 -24.5s-23.5 -37.5 -23.5 -63.5s7.83301 -47.167 23.5 -63.5s35.834 -24.5 60.501 -24.5z" />
    <glyph glyph-name="uni044F" unicode="&#x44f;" horiz-adv-x="541" 
d="M501 500v-500h-185v140h-13l-88 -140h-210l117 170c-54 34 -81 82.333 -81 145c0 57.333 17.5 102.5 52.5 135.5s82.833 49.5 143.5 49.5h264zM260 350c-26 0 -39 -11.667 -39 -35s13 -35 39 -35h56v70h-56z" />
    <glyph glyph-name="uni0451" unicode="&#x451;" horiz-adv-x="560" 
d="M190 540c-23.333 0 -43.333 8.33301 -60 25s-25 36.667 -25 60s8.33301 43.333 25 60s36.667 25 60 25s43.333 -8.33301 60 -25s25 -36.667 25 -60s-8.33301 -43.333 -25 -60s-36.667 -25 -60 -25zM390 540c-23.333 0 -43.333 8.33301 -60 25s-25 36.667 -25 60
s8.33301 43.333 25 60s36.667 25 60 25s43.333 -8.33301 60 -25s25 -36.667 25 -60s-8.33301 -43.333 -25 -60s-36.667 -25 -60 -25zM205 187c16 -33.333 50 -50 102 -50c30.667 0 59 10.667 85 32l121 -102c-50 -54 -120.667 -81 -212 -81
c-85.333 0 -153.833 24.833 -205.5 74.5s-77.5 112.167 -77.5 187.5c0 76 25.167 139.333 75.5 190s113.833 76 190.5 76c76 0 138.5 -24.833 187.5 -74.5s73.5 -112.167 73.5 -187.5c0 -22 -2.66699 -43.667 -8 -65h-332zM202 306h168c-11.333 40 -38.333 60 -81 60
c-43.333 0 -72.333 -20 -87 -60z" />
    <glyph glyph-name="uni0452" unicode="&#x452;" horiz-adv-x="590" 
d="M374 489c54.667 0 98.499 -18.832 131.499 -56.499s49.5 -93.834 49.5 -168.501v-264c0 -78.667 -20.167 -135.5 -60.5 -170.5s-103.5 -50.167 -189.5 -45.5v166c43.333 -4 65 12.667 65 50v244c0 44.667 -20.667 67 -62 67c-22 0 -38.833 -7 -50.5 -21
s-17.5 -33.333 -17.5 -58v-232h-185v531h-55v119h55v50h185v-50h130v-119h-130v-105c30.667 42 75.334 63 134.001 63z" />
    <glyph glyph-name="uni0453" unicode="&#x453;" horiz-adv-x="420" 
d="M376 700l-116 -150h-174l80 150h210zM410 500v-176h-185v-324h-185v500h370z" />
    <glyph glyph-name="uni0454" unicode="&#x454;" horiz-adv-x="520" 
d="M280 143c51.333 0 81 19.333 89 58l146 -84c-22 -40.667 -53.5 -72.667 -94.5 -96s-86.167 -35 -135.5 -35c-78 0 -142 25 -192 75s-75 113 -75 189s25 139 75 189s114 75 192 75c48.667 0 93.667 -11.833 135 -35.5s73 -55.5 95 -95.5l-147 -83
c-4.66699 16 -14.5 29.5 -29.5 40.5s-34.5 16.5 -58.5 16.5c-36 0 -63 -12.333 -81 -37h130v-140h-130c18 -24.667 45 -37 81 -37z" />
    <glyph glyph-name="uni0455" unicode="&#x455;" horiz-adv-x="484" 
d="M219 353c0 -8 6.16504 -14.334 18.498 -19.001s27.833 -8.16699 46.5 -10.5s38.667 -6.83301 60 -13.5s41.333 -15 60 -25s34.167 -25.833 46.5 -47.5s18.5 -47.834 18.5 -78.501c0 -32 -7.16699 -60 -21.5 -84s-33.166 -42 -56.499 -54s-47.166 -20.833 -71.499 -26.5
s-49.5 -8.5 -75.5 -8.5c-120.667 0 -198.667 39.667 -234 119l161 72c12.667 -34 36.334 -51 71.001 -51c22.667 0 34 7.33301 34 22c0 8.66699 -8.33301 15.667 -25 21s-36.667 10.833 -60 16.5s-46.833 13.334 -70.5 23.001s-43.834 25.834 -60.501 48.501s-25 51 -25 85
c0 54.667 20.833 97 62.5 127s89.834 45 144.501 45c109.333 0 181.666 -42.333 216.999 -127l-153 -55c-12 28 -30.667 42 -56 42c-20.667 0 -31 -7 -31 -21z" />
    <glyph glyph-name="uni0456" unicode="&#x456;" horiz-adv-x="265" 
d="M133 538c-28 0 -52.167 10.167 -72.5 30.5s-30.5 44.166 -30.5 71.499s10.167 51.166 30.5 71.499s44.5 30.5 72.5 30.5c27.333 0 51.166 -10.167 71.499 -30.5s30.5 -44.166 30.5 -71.499s-10.167 -51.166 -30.5 -71.499s-44.166 -30.5 -71.499 -30.5zM40 0v500h185
v-500h-185z" />
    <glyph glyph-name="uni0457" unicode="&#x457;" horiz-adv-x="265" 
d="M31 530c-23.333 0 -43.333 8.33301 -60 25s-25 36.667 -25 60s8.33301 43.333 25 60s36.667 25 60 25s43.333 -8.33301 60 -25s25 -36.667 25 -60s-8.33301 -43.333 -25 -60s-36.667 -25 -60 -25zM231 530c-23.333 0 -43.333 8.33301 -60 25s-25 36.667 -25 60
s8.33301 43.333 25 60s36.667 25 60 25s43.333 -8.33301 60 -25s25 -36.667 25 -60s-8.33301 -43.333 -25 -60s-36.667 -25 -60 -25zM40 0v500h185v-500h-185z" />
    <glyph glyph-name="uni0458" unicode="&#x458;" horiz-adv-x="280" 
d="M148 538c-28 0 -52.167 10.167 -72.5 30.5s-30.5 44.166 -30.5 71.499s10.167 51.166 30.5 71.499s44.5 30.5 72.5 30.5c27.333 0 51.166 -10.167 71.499 -30.5s30.5 -44.166 30.5 -71.499s-10.167 -51.166 -30.5 -71.499s-44.166 -30.5 -71.499 -30.5zM55 0v500h185
v-500c0 -78.667 -20.167 -135.5 -60.5 -170.5s-103.5 -50.167 -189.5 -45.5v166c43.333 -4 65 12.667 65 50z" />
    <glyph glyph-name="uni0459" unicode="&#x459;" horiz-adv-x="802" 
d="M606 360c52.667 0 96.835 -16.1709 132.502 -48.5039s53.5 -76.166 53.5 -131.499s-17.833 -99.166 -53.5 -131.499s-79.834 -48.5 -132.501 -48.5h-254v324h-85v-117c0 -80.667 -20.333 -138 -61 -172s-106 -48.333 -196 -43v170
c25.333 -3.33301 43.666 1.83398 54.999 15.501s17 36.834 17 69.501v253h455v-140h69zM583.001 149.996c8 0 14.833 2.83105 20.5 8.49805s8.5 12.834 8.5 21.501s-2.83301 15.834 -8.5 21.501s-12.5 8.5 -20.5 8.5h-46v-60h46z" />
    <glyph glyph-name="uni045A" unicode="&#x45a;" horiz-adv-x="775" 
d="M579 360c52.667 0 96.834 -16.1689 132.501 -48.502s53.5 -76.166 53.5 -131.499s-17.833 -99.166 -53.5 -131.499s-79.834 -48.5 -132.501 -48.5h-254v194h-110v-194h-185v500h185v-140h110v140h185v-140h69zM556 149.998c8 0 14.833 2.83105 20.5 8.49805
s8.5 12.834 8.5 21.501s-2.83301 15.834 -8.5 21.501s-12.5 8.5 -20.5 8.5h-46v-60h46z" />
    <glyph glyph-name="uni045B" unicode="&#x45b;" horiz-adv-x="590" 
d="M374 489c54.667 0 98.499 -18.832 131.499 -56.499s49.5 -93.834 49.5 -168.501v-264h-185v244c0 44.667 -20.667 67 -62 67c-22 0 -38.833 -7 -50.5 -21s-17.5 -33.333 -17.5 -58v-232h-185v526h-55v119h55v55h185v-55h130v-119h-130v-100
c30.667 42 75.334 63 134.001 63z" />
    <glyph glyph-name="uni045C" unicode="&#x45c;" horiz-adv-x="550" 
d="M436 700l-116 -150h-174l80 150h210zM550 0h-205l-120 200v-200h-185v500h185v-194l105 194h210l-152 -250z" />
    <glyph glyph-name="uni045E" unicode="&#x45e;" horiz-adv-x="570" 
d="M466 699v-150h-350v150h350zM360 500h210l-166 -485c-26 -76.667 -67.167 -132.5 -123.5 -167.5s-123.5 -50.833 -201.5 -47.5v175c34 0 60 2.5 78 7.5s32.333 14.167 43 27.5l-200 490h210l89 -267z" />
    <glyph glyph-name="uni045F" unicode="&#x45f;" horiz-adv-x="570" 
d="M345 500h185v-500h-157v-134h-175v134h-158v500h185v-324h120v324z" />
    <glyph glyph-name="uni0490" unicode="&#x490;" horiz-adv-x="480" 
d="M280 820h200v-314h-230v-506h-200v700h230v120z" />
    <glyph glyph-name="uni0491" unicode="&#x491;" horiz-adv-x="420" 
d="M235 604h175v-280h-185v-324h-185v500h195v104z" />
    <glyph glyph-name="Wgrave" unicode="&#x1e80;" horiz-adv-x="1010" 
d="M630 750l-80 150h-210l116 -150h174zM198 0l-198 700h220l95 -385l113 385h154l113 -385l95 385h220l-198 -700h-197l-110 374l-110 -374h-197z" />
    <glyph glyph-name="wgrave" unicode="&#x1e81;" horiz-adv-x="830" 
d="M515 550h-174l-116 150h210zM615 500h195l-145 -500h-188l-62 235l-62 -235h-188l-145 500h195l58 -277l72 277h140l72 -277z" />
    <glyph glyph-name="Wacute" unicode="&#x1e82;" horiz-adv-x="1010" 
d="M420 750h174l116 150h-210zM198 0l-198 700h220l95 -385l113 385h154l113 -385l95 385h220l-198 -700h-197l-110 374l-110 -374h-197z" />
    <glyph glyph-name="wacute" unicode="&#x1e83;" horiz-adv-x="830" 
d="M595 700l-116 -150h-174l80 150h210zM615 500h195l-145 -500h-188l-62 235l-62 -235h-188l-145 500h195l58 -277l72 277h140l72 -277z" />
    <glyph glyph-name="Wdieresis" unicode="&#x1e84;" horiz-adv-x="1010" 
d="M430 730c-23.333 0 -43.333 8.33301 -60 25s-25 36.667 -25 60s8.33301 43.333 25 60s36.667 25 60 25s43.333 -8.33301 60 -25s25 -36.667 25 -60s-8.33301 -43.333 -25 -60s-36.667 -25 -60 -25zM630 730c-23.333 0 -43.333 8.33301 -60 25s-25 36.667 -25 60
s8.33301 43.333 25 60s36.667 25 60 25s43.333 -8.33301 60 -25s25 -36.667 25 -60s-8.33301 -43.333 -25 -60s-36.667 -25 -60 -25zM198 0l-198 700h220l95 -385l113 385h154l113 -385l95 385h220l-198 -700h-197l-110 374l-110 -374h-197z" />
    <glyph glyph-name="wdieresis" unicode="&#x1e85;" horiz-adv-x="830" 
d="M315 530c-23.333 0 -43.333 8.33301 -60 25s-25 36.667 -25 60s8.33301 43.333 25 60s36.667 25 60 25s43.333 -8.33301 60 -25s25 -36.667 25 -60s-8.33301 -43.333 -25 -60s-36.667 -25 -60 -25zM515 530c-23.333 0 -43.333 8.33301 -60 25s-25 36.667 -25 60
s8.33301 43.333 25 60s36.667 25 60 25s43.333 -8.33301 60 -25s25 -36.667 25 -60s-8.33301 -43.333 -25 -60s-36.667 -25 -60 -25zM615 500h195l-145 -500h-188l-62 235l-62 -235h-188l-145 500h195l58 -277l72 277h140l72 -277z" />
    <glyph glyph-name="Ygrave" unicode="&#x1ef2;" horiz-adv-x="674" 
d="M437 750h-174l-116 150h210zM674 700l-237 -434v-266h-200v266l-237 434h222l115 -246l115 246h222z" />
    <glyph glyph-name="ygrave" unicode="&#x1ef3;" horiz-adv-x="570" 
d="M391 550h-174l-116 150h210zM360 500h210l-170 -499c-24.667 -72.667 -63 -125.167 -115 -157.5s-120.667 -46.833 -206 -43.5v175c34 0 60 2.5 78 7.5s32.333 14.167 43 27.5l-200 490h210l89 -267z" />
    <glyph glyph-name="endash" unicode="&#x2013;" horiz-adv-x="640" 
d="M50 217v174h540v-174h-540z" />
    <glyph glyph-name="emdash" unicode="&#x2014;" horiz-adv-x="740" 
d="M50 217v174h640v-174h-640z" />
    <glyph glyph-name="quoteleft" unicode="&#x2018;" horiz-adv-x="315" 
d="M35 365l90 335h150l-30 -335h-210z" />
    <glyph glyph-name="quoteright" unicode="&#x2019;" horiz-adv-x="315" 
d="M280 700l-90 -335h-150l30 335h210z" />
    <glyph glyph-name="quotesinglbase" unicode="&#x201a;" horiz-adv-x="315" 
d="M280 195l-90 -335h-150l30 335h210z" />
    <glyph glyph-name="quotedblleft" unicode="&#x201c;" horiz-adv-x="565" 
d="M35 365l90 335h150l-30 -335h-210zM285 365l90 335h150l-30 -335h-210z" />
    <glyph glyph-name="quotedblright" unicode="&#x201d;" horiz-adv-x="565" 
d="M280 700l-90 -335h-150l30 335h210zM530 700l-90 -335h-150l30 335h210z" />
    <glyph glyph-name="quotedblbase" unicode="&#x201e;" horiz-adv-x="565" 
d="M280 195l-90 -335h-150l30 335h210zM530 195l-90 -335h-150l30 335h210z" />
    <glyph glyph-name="dagger" unicode="&#x2020;" horiz-adv-x="460" 
d="M430 590v-174h-107v-416h-185v416h-108v174h108v110h185v-110h107z" />
    <glyph glyph-name="daggerdbl" unicode="&#x2021;" horiz-adv-x="460" 
d="M430 416h-107v-132h107v-174h-107v-110h-185v110h-108v174h108v132h-108v174h108v110h185v-110h107v-174z" />
    <glyph glyph-name="bullet" unicode="&#x2022;" horiz-adv-x="420" 
d="M211 170c-50 0 -92.667 17.667 -128 53s-53 78 -53 128c0 49.333 17.667 91.5 53 126.5s78 52.5 128 52.5c49.333 0 91.5 -17.5 126.5 -52.5s52.5 -77.167 52.5 -126.5c0 -50 -17.5 -92.667 -52.5 -128s-77.167 -53 -126.5 -53z" />
    <glyph glyph-name="ellipsis" unicode="&#x2026;" horiz-adv-x="820" 
d="M150 -15c-32 0 -59.167 11.167 -81.5 33.5s-33.5 49.5 -33.5 81.5s11.167 59.167 33.5 81.5s49.5 33.5 81.5 33.5s59.167 -11.167 81.5 -33.5s33.5 -49.5 33.5 -81.5s-11.167 -59.167 -33.5 -81.5s-49.5 -33.5 -81.5 -33.5zM410 -15c-32 0 -59.167 11.167 -81.5 33.5
s-33.5 49.5 -33.5 81.5s11.167 59.167 33.5 81.5s49.5 33.5 81.5 33.5s59.167 -11.167 81.5 -33.5s33.5 -49.5 33.5 -81.5s-11.167 -59.167 -33.5 -81.5s-49.5 -33.5 -81.5 -33.5zM670 -15c-32 0 -59.167 11.167 -81.5 33.5s-33.5 49.5 -33.5 81.5s11.167 59.167 33.5 81.5
s49.5 33.5 81.5 33.5s59.167 -11.167 81.5 -33.5s33.5 -49.5 33.5 -81.5s-11.167 -59.167 -33.5 -81.5s-49.5 -33.5 -81.5 -33.5z" />
    <glyph glyph-name="perthousand" unicode="&#x2030;" horiz-adv-x="1283" 
d="M225 336c-55.333 0 -101.666 18.5 -138.999 55.5s-56 81.833 -56 134.5s18.667 97.5 56 134.5s83.666 55.5 138.999 55.5c54.667 0 100.5 -18.5 137.5 -55.5s55.5 -81.833 55.5 -134.5s-18.5 -97.5 -55.5 -134.5s-82.833 -55.5 -137.5 -55.5zM157 111l470 498l73 -42
l-471 -497zM224 476c14 0 25.667 5 35 15s14 21.667 14 35c0 14 -4.66699 25.833 -14 35.5s-21 14.5 -35 14.5s-25.5 -4.83301 -34.5 -14.5s-13.5 -21.5 -13.5 -35.5s4.5 -25.833 13.5 -35.5s20.5 -14.5 34.5 -14.5zM645 -16c-55.333 0 -101.666 18.5 -138.999 55.5
s-56 81.833 -56 134.5s18.667 97.5 56 134.5s83.666 55.5 138.999 55.5c54.667 0 100.5 -18.5 137.5 -55.5s55.5 -81.833 55.5 -134.5s-18.5 -97.5 -55.5 -134.5s-82.833 -55.5 -137.5 -55.5zM1060 -16c-55.333 0 -101.666 18.5 -138.999 55.5s-56 81.833 -56 134.5
s18.667 97.5 56 134.5s83.666 55.5 138.999 55.5c54.667 0 100.5 -18.5 137.5 -55.5s55.5 -81.833 55.5 -134.5s-18.5 -97.5 -55.5 -134.5s-82.833 -55.5 -137.5 -55.5zM644 124c14 0 25.667 5 35 15s14 21.667 14 35c0 14 -4.66699 25.833 -14 35.5s-21 14.5 -35 14.5
s-25.5 -4.83301 -34.5 -14.5s-13.5 -21.5 -13.5 -35.5s4.5 -25.833 13.5 -35.5s20.5 -14.5 34.5 -14.5zM1059 124c14 0 25.667 5 35 15s14 21.667 14 35c0 14 -4.66699 25.833 -14 35.5s-21 14.5 -35 14.5s-25.5 -4.83301 -34.5 -14.5s-13.5 -21.5 -13.5 -35.5
s4.5 -25.833 13.5 -35.5s20.5 -14.5 34.5 -14.5z" />
    <glyph glyph-name="guilsinglleft" unicode="&#x2039;" horiz-adv-x="367" 
d="M317 509l-115 -200l115 -200h-152l-115 200l115 200h152z" />
    <glyph glyph-name="guilsinglright" unicode="&#x203a;" horiz-adv-x="367" 
d="M202 509l115 -200l-115 -200h-152l115 200l-115 200h152z" />
    <glyph glyph-name="fraction" unicode="&#x2044;" horiz-adv-x="180" 
d="M-50 0h-130l410 700h130z" />
    <glyph glyph-name="Euro" unicode="&#x20ac;" horiz-adv-x="643" 
d="M462 246l171 -97c-52.667 -110 -138.667 -165 -258 -165c-78 0 -142.667 23.333 -194 70s-85 110.667 -101 192h-70v84h60v20v18h-60v84h69c16 82 49.667 146.5 101 193.5s116.333 70.5 195 70.5c117.333 0 201.666 -52.333 252.999 -157l-167 -96
c-21.333 39.333 -50 59 -86 59c-43.333 0 -73.333 -23.333 -90 -70h140v-84h-155v-18v-20h155v-84h-139c16.667 -45.333 46.334 -68 89.001 -68c37.333 0 66.333 22.667 87 68z" />
    <glyph glyph-name="uni20BD" unicode="&#x20bd;" horiz-adv-x="615" 
d="M350 233l-80.002 0.00195312v-39h200v-100h-200v-93h-200v93h-60v100h60v39h-60v180h60v288h280c72.667 0 133.334 -20.833 182.001 -62.5s73 -97.834 73 -168.501c0 -78.667 -23.667 -137.834 -71 -177.501s-108.666 -59.5 -183.999 -59.5zM269.998 507.002v-94h80
c36.667 0 55 15.667 55 47s-18.333 47 -55 47h-80z" />
    <glyph glyph-name="uni2116" unicode="&#x2116;" horiz-adv-x="1066" 
d="M863 356c-52 0 -95.5029 17.5 -130.503 52.5s-52.5 77.5 -52.5 127.5c0 50.667 17.333 93.334 52 128.001s78.334 52 131.001 52s96.334 -17.333 131.001 -52s52 -77.334 52 -128.001c0 -50 -17.167 -92.5 -51.5 -127.5s-78.166 -52.5 -131.499 -52.5zM429.997 700h200
v-700h-160l-220 320v-320h-200v700h160l220 -320v320zM862.997 496c12 0 21.499 3.66699 28.499 11s10.5 17 10.5 29c0 11.333 -3.66699 20.833 -11 28.5s-16.666 11.5 -27.999 11.5s-20.666 -3.83301 -27.999 -11.5s-11 -17.167 -11 -28.5s3.66699 -20.833 11 -28.5
s16.666 -11.5 27.999 -11.5zM695.996 146v180h334v-180h-334z" />
    <glyph glyph-name="trademark" unicode="&#x2122;" horiz-adv-x="486" 
d="M203 700v-77h-46v-123h-80v123h-47v77h173zM379 700h77v-200h-77v87l-37 -58h-8l-37 58v-87h-77v200h77l41 -64z" />
    <glyph glyph-name="estimated" unicode="&#x212e;" horiz-adv-x="780" 
d="M390 710c108.667 0 197.499 -34.668 266.499 -104.001s103.5 -154.666 103.5 -255.999c0 -10 -5 -15 -15 -15h-560c-10 0 -15 -5 -15 -15v-192c0 -7.33301 2.33301 -13.666 7 -18.999c56 -59.333 133.667 -89 233 -89c96.667 0 173.667 32.333 231 97
c4.66699 6 10.667 9 18 9h37c6.66699 0 11 -2 13 -6s0.666992 -8.33301 -4 -13c-72.667 -78 -171 -117 -295 -117c-117.333 0 -211.666 34.5 -282.999 103.5s-107 154.5 -107 256.5c0 101.333 34.5 186.666 103.5 255.999s157.833 104 266.5 104zM609.999 571.999
c0 7.33301 -2.33301 13.666 -7 18.999c-56 59.333 -127 89 -213 89s-157 -29.667 -213 -89c-4.66699 -5.33301 -7 -11.666 -7 -18.999v-192c0 -10 5 -15 15 -15h410c10 0 15 5 15 15v192z" />
    <glyph glyph-name="oneeighth" unicode="&#x215b;" horiz-adv-x="803" 
d="M111 300v251l-78 -19l-33 120l132 48h121v-400h-142zM509 700h130l-410 -700h-130zM734 209c39.333 -22.667 59 -55.667 59 -99c0 -38 -14.5 -68.167 -43.5 -90.5s-68.5 -33.5 -118.5 -33.5s-89.5 11.167 -118.5 33.5s-43.5 52.5 -43.5 90.5
c0 43.333 19.667 76.333 59 99c-30 20.667 -45 48.334 -45 83.001c0 37.333 14 67 42 89s63.333 33 106 33s78 -11 106 -33s42 -51.667 42 -89c0 -34.667 -15 -62.334 -45 -83.001zM631 303c-16.667 0 -25 -7.66699 -25 -23c0 -14 8.33301 -21 25 -21s25 7 25 21
c0 15.333 -8.33301 23 -25 23zM631 98c21.333 0 32 9.66699 32 29c0 18.667 -10.667 28 -32 28s-32 -9.33301 -32 -28c0 -19.333 10.667 -29 32 -29z" />
    <glyph glyph-name="threeeighths" unicode="&#x215c;" horiz-adv-x="847" 
d="M328 429c0 -45.333 -15.167 -80.5 -45.5 -105.5s-69.833 -37.5 -118.5 -37.5c-79.333 0 -134 32.667 -164 98l114 65c10 -26.667 26.667 -40 50 -40c18.667 0 28 6.66699 28 20c0 12.667 -7.66699 19 -23 19h-32l-50 75l48 54h-114v123h292v-89l-64 -72
c52.667 -20 79 -56.667 79 -110zM553 700h130l-410 -700h-130zM778 209c39.333 -22.667 59 -55.667 59 -99c0 -38 -14.5 -68.167 -43.5 -90.5s-68.5 -33.5 -118.5 -33.5s-89.5 11.167 -118.5 33.5s-43.5 52.5 -43.5 90.5c0 43.333 19.667 76.333 59 99
c-30 20.667 -45 48.334 -45 83.001c0 37.333 14 67 42 89s63.333 33 106 33s78 -11 106 -33s42 -51.667 42 -89c0 -34.667 -15 -62.334 -45 -83.001zM675 303c-16.667 0 -25 -7.66699 -25 -23c0 -14 8.33301 -21 25 -21s25 7 25 21c0 15.333 -8.33301 23 -25 23zM675 98
c21.333 0 32 9.66699 32 29c0 18.667 -10.667 28 -32 28s-32 -9.33301 -32 -28c0 -19.333 10.667 -29 32 -29z" />
    <glyph glyph-name="fiveeighths" unicode="&#x215d;" horiz-adv-x="854" 
d="M320 423c0 -45.333 -14.667 -79.5 -44 -102.5s-67.333 -34.5 -114 -34.5c-78.667 0 -132.667 32.667 -162 98l115 55c8.66699 -23.333 23.667 -35 45 -35c19.333 0 29 7 29 21s-8.66699 21 -26 21h-136l17 254h261v-123h-144l-1 -24h8c46.667 0 83.667 -10.833 111 -32.5
s41 -54.167 41 -97.5zM560 700h130l-410 -700h-130zM785 209c39.333 -22.667 59 -55.667 59 -99c0 -38 -14.5 -68.167 -43.5 -90.5s-68.5 -33.5 -118.5 -33.5s-89.5 11.167 -118.5 33.5s-43.5 52.5 -43.5 90.5c0 43.333 19.667 76.333 59 99
c-30 20.667 -45 48.334 -45 83.001c0 37.333 14 67 42 89s63.333 33 106 33s78 -11 106 -33s42 -51.667 42 -89c0 -34.667 -15 -62.334 -45 -83.001zM682 303c-16.667 0 -25 -7.66699 -25 -23c0 -14 8.33301 -21 25 -21s25 7 25 21c0 15.333 -8.33301 23 -25 23zM682 98
c21.333 0 32 9.66699 32 29c0 18.667 -10.667 28 -32 28s-32 -9.33301 -32 -28c0 -19.333 10.667 -29 32 -29z" />
    <glyph glyph-name="seveneighths" unicode="&#x215e;" horiz-adv-x="834" 
d="M193 300h-145l101 277h-149v123h300v-106zM540 700h130l-410 -700h-130zM765 209c39.333 -22.667 59 -55.667 59 -99c0 -38 -14.5 -68.167 -43.5 -90.5s-68.5 -33.5 -118.5 -33.5s-89.5 11.167 -118.5 33.5s-43.5 52.5 -43.5 90.5c0 43.333 19.667 76.333 59 99
c-30 20.667 -45 48.334 -45 83.001c0 37.333 14 67 42 89s63.333 33 106 33s78 -11 106 -33s42 -51.667 42 -89c0 -34.667 -15 -62.334 -45 -83.001zM662 303c-16.667 0 -25 -7.66699 -25 -23c0 -14 8.33301 -21 25 -21s25 7 25 21c0 15.333 -8.33301 23 -25 23zM662 98
c21.333 0 32 9.66699 32 29c0 18.667 -10.667 28 -32 28s-32 -9.33301 -32 -28c0 -19.333 10.667 -29 32 -29z" />
    <glyph glyph-name="arrowleft" unicode="&#x2190;" horiz-adv-x="780" 
d="M750 437v-175h-394l212 -212h-238l-300 300l300 300h238l-213 -213h395z" />
    <glyph glyph-name="arrowup" unicode="&#x2191;" horiz-adv-x="660" 
d="M630 400v-238l-207 207v-369h-185v370l-208 -208v238l300 300z" />
    <glyph glyph-name="arrowright" unicode="&#x2192;" horiz-adv-x="780" 
d="M450 650l300 -300l-300 -300h-238l212 212h-394v175h395l-213 213h238z" />
    <glyph glyph-name="arrowdown" unicode="&#x2193;" horiz-adv-x="660" 
d="M423 331l207 207v-238l-300 -300l-300 300v238l208 -208v370h185v-369z" />
    <glyph glyph-name="arrowboth" unicode="&#x2194;" horiz-adv-x="1180" 
d="M860 640l290 -290l-290 -290h-238l202 202h-468l202 -202h-238l-290 290l290 290h238l-203 -203h470l-203 203h238z" />
    <glyph glyph-name="arrowupdn" unicode="&#x2195;" horiz-adv-x="640" 
d="M610 372l-197 197v-438l197 197v-238l-290 -290l-290 290v238l198 -198v440l-198 -198v238l290 290l290 -290v-238z" />
    <glyph glyph-name="uni2196" unicode="&#x2196;" horiz-adv-x="660" 
d="M630 163l-131 -131l-301 301v-293l-168 168v424h424l168 -168h-294z" />
    <glyph glyph-name="uni2197" unicode="&#x2197;" horiz-adv-x="660" 
d="M206 632h424v-424l-168 -168v293l-301 -301l-131 131l302 301h-294z" />
    <glyph glyph-name="uni2198" unicode="&#x2198;" horiz-adv-x="660" 
d="M462 654l168 -168v-424h-424l-168 168h294l-302 301l131 131l301 -301v293z" />
    <glyph glyph-name="uni2199" unicode="&#x2199;" horiz-adv-x="660" 
d="M630 531l-302 -301h294l-168 -168h-424v424l168 168v-293l301 301z" />
    <glyph glyph-name="partialdiff" unicode="&#x2202;" horiz-adv-x="581" 
d="M237 716c86 0 158.168 -33.499 216.501 -100.499s87.5 -155.5 87.5 -265.5c0 -118.667 -26.5 -209.334 -79.5 -272.001s-124.833 -94 -215.5 -94c-68.667 0 -123.5 20.667 -164.5 62s-61.5 92.666 -61.5 153.999c0 68.667 21.167 125 63.5 169s98.166 66 167.499 66
c32 0 63.333 -6 94 -18c-14.667 81.333 -57.667 123 -129 125c-42 0.666992 -82 -9.66602 -120 -30.999v169c37.333 24 84.333 36 141 36zM260.001 154.001c44 0 71.999 34.667 83.999 104c-22.667 11.333 -47 17 -73 17c-19.333 0 -35.166 -6 -47.499 -18
s-18.5 -27.667 -18.5 -47c0 -16 5.33301 -29.333 16 -40s23.667 -16 39 -16z" />
    <glyph glyph-name="emptyset" unicode="&#x2205;" horiz-adv-x="804" 
d="M659 605c70 -71.333 105 -156.333 105 -255c0 -100 -35.333 -185.333 -106 -256s-156 -106 -256 -106c-58.667 0 -114 13.333 -166 40l-36 -48h-140l85 115c-70 71.333 -105 156.333 -105 255c0 100 35.333 185.333 106 256s156 106 256 106
c58.667 0 114 -13.333 166 -40l36 48h140zM170 350c0 -56.667 17.667 -106.334 53 -149.001l268 365c-27.333 12 -57 18 -89 18c-64.667 0 -119.5 -22.667 -164.5 -68s-67.5 -100.666 -67.5 -165.999zM402 116c64.667 0 119.499 22.667 164.499 68
s67.5 100.666 67.5 165.999c0 56.667 -17.667 106.334 -53 149.001l-268 -365c26.667 -12 56.334 -18 89.001 -18z" />
    <glyph glyph-name="product" unicode="&#x220f;" horiz-adv-x="620" 
d="M50 -200v900h520v-900h-185v724h-150v-724h-185z" />
    <glyph glyph-name="summation" unicode="&#x2211;" horiz-adv-x="550" 
d="M20 -200v155l186 305l-171 284v156h470v-184h-238l154 -256l-168 -276h267v-184h-500z" />
    <glyph glyph-name="minus" unicode="&#x2212;" horiz-adv-x="560" 
d="M30 260v180h500v-180h-500z" />
    <glyph glyph-name="radical" unicode="&#x221a;" horiz-adv-x="700" 
d="M241 0l-108 172h-113v172h218l77 -133l195 589h190l-280 -800h-179z" />
    <glyph glyph-name="infinity" unicode="&#x221e;" horiz-adv-x="830" 
d="M597 555c58.667 0 107.167 -19.167 145.5 -57.5s57.5 -87.5 57.5 -147.5s-19.167 -109.167 -57.5 -147.5s-86.833 -57.5 -145.5 -57.5c-66 0 -126.667 30.333 -182 91c-55.333 -60.667 -116 -91 -182 -91c-58.667 0 -107.167 19.167 -145.5 57.5s-57.5 87.5 -57.5 147.5
s19.167 109.167 57.5 147.5s86.833 57.5 145.5 57.5c66 0 126.667 -30.333 182 -91c55.333 60.667 116 91 182 91zM258 315c22.667 0 45.334 11.667 68.001 35c-22.667 23.333 -45.334 35 -68.001 35c-10 0 -18.833 -3 -26.5 -9s-11.5 -14.667 -11.5 -26
s3.83301 -20 11.5 -26s16.5 -9 26.5 -9zM572 315c10 0 18.833 3 26.5 9s11.5 14.667 11.5 26s-3.83301 20 -11.5 26s-16.5 9 -26.5 9c-22.667 0 -45.334 -11.667 -68.001 -35c22.667 -23.333 45.334 -35 68.001 -35z" />
    <glyph glyph-name="integral" unicode="&#x222b;" horiz-adv-x="482" 
d="M0 -204v180c22.667 -9.33301 43.834 -9.16602 63.501 0.500977s31.834 26.834 36.501 51.501l86 505c8.66699 50 27.834 90 57.501 120s64.834 47.833 105.501 53.5s85 4.16699 133 -4.5v-180c-22.667 9.33301 -43.834 9.16602 -63.501 -0.500977
s-31.834 -26.834 -36.501 -51.501l-86 -505c-8.66699 -50 -27.834 -90 -57.501 -120s-64.834 -47.833 -105.501 -53.5s-85 -4.16699 -133 4.5z" />
    <glyph glyph-name="approxequal" unicode="&#x2248;" horiz-adv-x="578" 
d="M289 372c-28.667 12.667 -54.834 20.1689 -78.501 22.502s-43.667 0.833008 -60 -4.5s-34.166 -14.333 -53.499 -27l-67 50c14.667 76 45.5 127 92.5 153s102.5 24 166.5 -6c32.667 -14.667 56.667 -23.834 72 -27.501s27.333 -2.33398 36 3.99902s15.667 19.833 21 40.5
l130 -59c-14.667 -76 -45.5 -126.833 -92.5 -152.5s-102.5 -23.5 -166.5 6.5zM160 119.002l-130 58.998c14.667 76 45.5 126.833 92.5 152.5s102.5 23.5 166.5 -6.5c28.667 -12.667 54.834 -20.167 78.501 -22.5s43.667 -0.833008 60 4.5s34.166 14.333 53.499 27l67 -50
c-14.667 -76 -45.5 -127 -92.5 -153s-102.5 -24 -166.5 6c-32.667 14.667 -56.667 23.834 -72 27.501s-27.333 2.33398 -36 -3.99902s-15.667 -19.833 -21 -40.5z" />
    <glyph glyph-name="notequal" unicode="&#x2260;" horiz-adv-x="500" 
d="M470 375h-169l-22 -50h191v-180h-269l-41 -95h-80l41 95h-91v180h169l22 50h-191v180h269l41 95h80l-41 -95h91v-180z" />
    <glyph glyph-name="lessequal" unicode="&#x2264;" horiz-adv-x="510" 
d="M480 700v-194l-280 -56l280 -56v-194l-450 145v210zM30 0v180h450v-180h-450z" />
    <glyph glyph-name="greaterequal" unicode="&#x2265;" horiz-adv-x="510" 
d="M30 700l450 -145v-210l-450 -145v194l280 56l-280 56v194zM30 0v180h450v-180h-450z" />
    <glyph glyph-name="lozenge" unicode="&#x25ca;" horiz-adv-x="620" 
d="M216 0l-186 350l186 350h188l186 -350l-186 -350h-188zM310 212l73 138l-73 138l-73 -138z" />
    <glyph glyph-name=".null" horiz-adv-x="0" 
 />
    <glyph glyph-name="nonmarkingreturn" horiz-adv-x="333" 
 />
    <glyph glyph-name="i.loclTRK" horiz-adv-x="265" 
d="M131 540c-26 0 -48.333 9.33301 -67 28s-28 41 -28 67s9.33301 48.333 28 67s41 28 67 28s48.333 -9.33301 67 -28s28 -41 28 -67s-9.33301 -48.333 -28 -67s-41 -28 -67 -28zM40 0v500h185v-500h-185z" />
    <glyph glyph-name="f_f_j" horiz-adv-x="860" 
d="M820 500v-500c0 -78.667 -20.167 -135.5 -60.5 -170.5s-103.5 -50.167 -189.5 -45.5v166c43.333 -4 65 12.667 65 50v324h-97v-324h-185v324h-100v-324h-185v324h-58v176h58c0 72 22.333 127.167 67 165.5s109.667 55.166 195 50.499v-166
c-24 2 -42.833 -1.66699 -56.5 -11s-20.5 -22.333 -20.5 -39h100v10c0 70.667 22 124.334 66 161.001s109.333 55 196 55c48 0 93 -5.33301 135 -16v-152c-44.667 6.66699 -84.667 10 -120 10c-61.333 0 -92 -19.333 -92 -58v-10h282z" />
    <glyph glyph-name="f_j" 
d="M535 500v-500.001c0 -78.667 -20.167 -135.5 -60.5 -170.5s-103.5 -50.167 -189.5 -45.5v166c43.333 -4 65 12.667 65 50v324h-97v-324h-185v324h-58v176h58c0 70.667 22 124.334 66 161.001s109.333 55 196 55c48 0 93 -5.33301 135 -16v-152
c-44.667 6.66699 -84.667 10 -120 10c-61.333 0 -92 -19.333 -92 -58h282z" />
    <glyph glyph-name="uni0414.loclBGR" horiz-adv-x="740" 
d="M654 194h81v-328h-200v134h-330v-134h-200v328h81l172 506h224zM290 194h160l-80 281z" />
    <glyph glyph-name="uni041B.loclBGR" horiz-adv-x="670" 
d="M223 700h224l223 -700h-220l-115 445l-115 -445h-220z" />
    <glyph glyph-name="uni0424.loclBGR" horiz-adv-x="874" 
d="M849 350c0 -94 -28.667 -172.5 -86 -235.5s-134.333 -102.5 -231 -118.5v-96h-190v96c-96.667 16 -173.667 55.5 -231 118.5s-86 141.5 -86 235.5s28.667 172.5 86 235.5s134.333 102.5 231 118.5v96h190v-96c96.667 -16 173.667 -55.5 231 -118.5s86 -141.5 86 -235.5z
M225 350c0 -86 39 -140.667 117 -164v328c-78 -23.333 -117 -78 -117 -164zM532 186c78 23.333 117 78 117 164s-39 140.667 -117 164v-328z" />
    <glyph glyph-name="uni0414.ss01" horiz-adv-x="715" 
d="M630 194l75 -0.000976562v-194h-700v194h74c28 50.667 42 121.334 42 212.001v294h509v-506zM286 193.999h144v322h-109v-112c0 -86.667 -11.667 -156.667 -35 -210z" />
    <glyph glyph-name="uni0426.ss01" horiz-adv-x="715" 
d="M620 194h85v-194h-655v700h210v-506h150v506h210v-506z" />
    <glyph glyph-name="uni0429.ss01" horiz-adv-x="1005" 
d="M910 194h85v-194h-945v700h200v-506h130v506h200v-506h130v506h200v-506z" />
    <glyph glyph-name="uni0414.loclBGR.ss01" horiz-adv-x="740" 
d="M654 194h81v-194h-730v194h81l172 506h224zM290 194h160l-80 281z" />
    <glyph glyph-name="uni0432.loclBGR" horiz-adv-x="558" 
d="M440 405c66.667 -34.667 100.001 -97 100.001 -187c0 -71.333 -22.833 -127.833 -68.5 -169.5s-107.834 -62.5 -186.501 -62.5c-74 0 -133.333 21.833 -178 65.5s-67 102.5 -67 176.5v239c0 76 21.833 136.167 65.5 180.5s102.167 66.5 175.5 66.5
c64.667 0 115.667 -17 153 -51s56 -79 56 -135c0 -46.667 -16.667 -87.667 -50 -123zM270.001 544c-30 0 -45 -20.667 -45 -62v-61l9 2c12.667 2.66699 25.667 4.66699 39 6c24 22 36 44.667 36 68c0 31.333 -13 47 -39 47zM290.001 160c20 0 35.833 5.16797 47.5 15.501
s17.5 24.5 17.5 42.5c0 23.333 -8.16699 40.166 -24.5 50.499s-38.833 12.5 -67.5 6.5l-38 -8v-39c0 -20.667 5.83301 -37.167 17.5 -49.5s27.5 -18.5 47.5 -18.5z" />
    <glyph glyph-name="uni0433.loclBGR" horiz-adv-x="479" 
d="M318 177l150.999 -71.999c-35.333 -79.333 -113.333 -119 -234 -119c-26 0 -50.667 2.83301 -74 8.5s-46 14.667 -68 27s-39.667 30.333 -53 54s-20 51.5 -20 83.5c0 30.667 6 56.834 18 78.501s27.167 37.5 45.5 47.5s38 18.333 59 25s40.667 11.167 59 13.5
s33.5 5.83301 45.5 10.5s18 11 18 19c0 14 -10.333 21 -31 21c-25.333 0 -44 -14 -56 -42l-153 55c35.333 84.667 109 127 221 127c54.667 0 102.167 -15 142.5 -45s60.5 -72.333 60.5 -127c0 -34 -8.16699 -62.333 -24.5 -85s-36 -38.834 -59 -48.501
s-46 -17.334 -69 -23.001s-42.667 -11.167 -59 -16.5s-24.5 -12.333 -24.5 -21c0 -14.667 11.333 -22 34 -22c34.667 0 58.334 17 71.001 51z" />
    <glyph glyph-name="uni0434.loclBGR" horiz-adv-x="613" 
d="M388 500l184.999 0.00195312v-485c0 -40 -7.5 -75.333 -22.5 -106s-35.167 -54.834 -60.5 -72.501s-53.166 -30.834 -83.499 -39.501s-62.166 -13 -95.499 -13c-58.667 0 -110.667 10.667 -156 32s-79 51.333 -101 90l150 87c24 -32.667 56.333 -49 97 -49
c23.333 0 43.666 5.83301 60.999 17.5s26 29.5 26 53.5v50c-32 -39.333 -76.667 -59 -134 -59c-66.667 0 -121.5 24.333 -164.5 73s-64.5 109 -64.5 181s21.5 132.333 64.5 181s97.833 73 164.5 73c57.333 0 102 -19.667 134 -59v45zM298.999 170.002
c26.667 0 48.167 8.66699 64.5 26s24.5 38.666 24.5 63.999s-8.16699 46.666 -24.5 63.999s-37.833 26 -64.5 26s-48.167 -8.66699 -64.5 -26s-24.5 -38.666 -24.5 -63.999s8.16699 -46.666 24.5 -63.999s37.833 -26 64.5 -26z" />
    <glyph glyph-name="uni0436.loclBGR" horiz-adv-x="789" 
d="M789 0h-202l-100 192v-192h-185v192l-100 -192h-202l144 250l-134 250h202l90 -187v387h185v-387l90 187h202l-134 -250z" />
    <glyph glyph-name="uni0438.loclBGR" 
d="M350 500l185.001 -0.000976562v-500h-185v49c-30.667 -42 -75.334 -63 -134.001 -63c-54.667 0 -98.5 18.833 -131.5 56.5s-49.5 93.834 -49.5 168.501v289h185v-269c0 -44.667 20.667 -67 62 -67c22 0 38.833 7 50.5 21s17.5 33.333 17.5 58v257z" />
    <glyph glyph-name="uni0439.loclBGR" 
d="M460 699v-150h-350v150h350zM350 500l185.001 -0.000976562v-500h-185v49c-30.667 -42 -75.334 -63 -134.001 -63c-54.667 0 -98.5 18.833 -131.5 56.5s-49.5 93.834 -49.5 168.501v289h185v-269c0 -44.667 20.667 -67 62 -67c22 0 38.833 7 50.5 21s17.5 33.333 17.5 58
v257z" />
    <glyph glyph-name="uni043A.loclBGR" horiz-adv-x="550" 
d="M550 0h-205l-120 200v-200h-185v700h185v-394l105 194h210l-152 -250z" />
    <glyph glyph-name="uni043B.loclBGR" horiz-adv-x="570" 
d="M570 0h-205l-80 250l-80 -250h-205l190 500h190z" />
    <glyph glyph-name="uni043F.loclBGR" 
d="M359 514c54.667 0 98.499 -18.832 131.499 -56.499s49.5 -93.834 49.5 -168.501v-289h-185v269c0 44.667 -20.667 67 -62 67c-22 0 -38.833 -7 -50.5 -21s-17.5 -33.333 -17.5 -58v-257h-185v500h185v-49c30.667 42 75.334 63 134.001 63z" />
    <glyph glyph-name="uni0442.loclBGR" horiz-adv-x="850" 
d="M630 514c58 0 103.333 -18.168 136 -54.501s49 -88.166 49 -155.499v-304h-185v279c0 38 -17 57 -51 57c-39.333 0 -59 -24.667 -59 -74v-262h-185v279c0 38 -17 57 -51 57c-39.333 0 -59 -24.667 -59 -74v-262h-185v500h185v-47c32.667 40.667 78 61 136 61
c57.333 0 99 -20.667 125 -62c36 41.333 84 62 144 62z" />
    <glyph glyph-name="uni0446.loclBGR" horiz-adv-x="620" 
d="M565 166l45.001 -0.000976562v-300h-170v148c-25.333 10 -45.333 25.333 -60 46c-34.667 -49.333 -89.334 -74 -164.001 -74c-54.667 0 -98.5 18.833 -131.5 56.5s-49.5 93.834 -49.5 168.501v289h185v-269c0 -44.667 20.667 -67 62 -67c22 0 38.833 7 50.5 21
s17.5 33.333 17.5 58v257h185v-304c0 -20 10 -30 30 -30z" />
    <glyph glyph-name="uni0448.loclBGR" horiz-adv-x="850" 
d="M625 500l185 0.000976562v-500h-185v47c-32.667 -40.667 -78 -61 -136 -61c-57.333 0 -99 20.667 -125 62c-36 -41.333 -84 -62 -144 -62c-58 0 -103.333 18.167 -136 54.5s-49 88.166 -49 155.499v304h185v-279c0 -38 17 -57 51 -57c39.333 0 59 24.667 59 74v262h185
v-279c0 -38 17 -57 51 -57c39.333 0 59 24.667 59 74v262z" />
    <glyph glyph-name="uni0449.loclBGR" horiz-adv-x="895" 
d="M840 166l45 0.000976562v-300h-170v148c-24.667 10 -44.334 24.667 -59.001 44c-36.667 -48 -89 -72 -157 -72c-59.333 0 -103.666 21.667 -132.999 65c-35.333 -43.333 -84 -65 -146 -65c-58 0 -103.333 18.167 -136 54.5s-49 88.166 -49 155.499v304h185v-279
c0 -38 17 -57 51 -57c39.333 0 59 24.667 59 74v262h185v-279c0 -38 17 -57 51 -57c39.333 0 59 24.667 59 74v262h185v-304c0 -20 10 -30 30 -30z" />
    <glyph glyph-name="uni044C.loclBGR" horiz-adv-x="495" 
d="M270 378c70 0 123.332 -18 159.999 -54s55 -84 55 -144c0 -57.333 -20 -104.333 -60 -141s-95 -55 -165 -55c-73.333 0 -129.166 18.167 -167.499 54.5s-57.5 86.833 -57.5 151.5v310h180v-122h55zM259.999 149c30 0 45 12.667 45 38c0 26.667 -15 40 -45 40h-45v-32
c0 -30.667 15 -46 45 -46z" />
    <glyph glyph-name="uni044A.loclBGR" horiz-adv-x="570" 
d="M345 378c70 0 123.332 -18 159.999 -54s55 -84 55 -144c0 -57.333 -20 -104.333 -60 -141s-95 -55 -165 -55c-73.333 0 -129.166 18.167 -167.499 54.5s-57.5 86.833 -57.5 151.5v140h-110v170h290v-122h55zM334.999 149c30 0 45 12.667 45 38c0 26.667 -15 40 -45 40
h-45v-32c0 -30.667 15 -46 45 -46z" />
    <glyph glyph-name="uni044E.loclBGR" horiz-adv-x="798" 
d="M511 514c75.333 0 139 -25.3311 191 -75.998s78 -113.334 78 -188.001s-26 -137.334 -78 -188.001s-115.667 -76 -191 -76c-58 0 -109 16.167 -153 48.5s-74.667 74.833 -92 127.5h-41v-162h-185v700h185v-362h40c17.333 52.667 48 95.167 92 127.5s95.333 48.5 154 48.5
zM511 162.002c24.667 0 44.834 8.16699 60.501 24.5s23.5 37.5 23.5 63.5s-7.83301 47.167 -23.5 63.5s-35.834 24.5 -60.501 24.5s-44.834 -8.16699 -60.501 -24.5s-23.5 -37.5 -23.5 -63.5s7.83301 -47.167 23.5 -63.5s35.834 -24.5 60.501 -24.5z" />
    <glyph glyph-name="zero.sinf" horiz-adv-x="410" 
d="M205 -174c-56.667 0 -102.5 19.333 -137.5 58s-52.5 90.667 -52.5 156s17.5 117.333 52.5 156s80.833 58 137.5 58s102.5 -19.333 137.5 -58s52.5 -90.667 52.5 -156s-17.5 -117.333 -52.5 -156s-80.833 -58 -137.5 -58zM205 -33c28.667 0 43 24.333 43 73
s-14.333 73 -43 73s-43 -24.333 -43 -73s14.333 -73 43 -73z" />
    <glyph glyph-name="one.sinf" horiz-adv-x="283" 
d="M132 240h121v-400h-142v251l-78 -19l-33 120z" />
    <glyph glyph-name="two.sinf" horiz-adv-x="349" 
d="M23 -160v101.998l140 131c18 16.667 27 30.334 27 41.001c0 12 -6.66699 18 -20 18c-15.333 0 -28.333 -14 -39 -42l-116 66c33.333 65.333 87.333 98 162 98c40.667 0 76 -12.167 106 -36.5s45 -56.166 45 -95.499c0 -42 -23.333 -83.667 -70 -125l-36 -32h107v-125
h-306z" />
    <glyph glyph-name="three.sinf" horiz-adv-x="338" 
d="M249 79c52.667 -20 79 -56.667 79 -110c0 -45.333 -15.167 -80.5 -45.5 -105.5s-69.833 -37.5 -118.5 -37.5c-79.333 0 -134 32.667 -164 98l114 65c10 -26.667 26.667 -40 50 -40c18.667 0 28 6.66699 28 20c0 12.667 -7.66699 19 -23 19h-32l-50 75l48 54h-114v123h292
v-89z" />
    <glyph glyph-name="four.sinf" horiz-adv-x="366" 
d="M356 11v-120h-33v-51h-128v51h-190v120l110 229h147l-104 -229h37v66h128v-66h33z" />
    <glyph glyph-name="five.sinf" horiz-adv-x="330" 
d="M168 93c46.667 0 83.667 -10.833 111 -32.5s41 -54.167 41 -97.5c0 -45.333 -14.667 -79.5 -44 -102.5s-67.333 -34.5 -114 -34.5c-78.667 0 -132.667 32.667 -162 98l115 55c8.66699 -23.333 23.667 -35 45 -35c19.333 0 29 7 29 21s-8.66699 21 -26 21h-136l17 254h261
v-123h-144l-1 -24h8z" />
    <glyph glyph-name="six.sinf" horiz-adv-x="344" 
d="M218 115c36.667 -8 65.167 -24.667 85.5 -50s30.5 -56 30.5 -92c0 -44 -14.5 -79.5 -43.5 -106.5s-68.5 -40.5 -118.5 -40.5s-89.5 13.5 -118.5 40.5s-43.5 62.5 -43.5 106.5c0 30 7.33301 57 22 81l110 186h148zM172 -57c20.667 0 31 10 31 30s-10.333 30 -31 30
s-31 -10 -31 -30s10.333 -30 31 -30z" />
    <glyph glyph-name="seven.sinf" horiz-adv-x="310" 
d="M0 240h300v-106l-107 -294h-145l101 277h-149v123z" />
    <glyph glyph-name="eight.sinf" horiz-adv-x="344" 
d="M275 49c39.333 -22.667 59 -55.667 59 -99c0 -38 -14.5 -68.167 -43.5 -90.5s-68.5 -33.5 -118.5 -33.5s-89.5 11.167 -118.5 33.5s-43.5 52.5 -43.5 90.5c0 43.333 19.667 76.333 59 99c-30 20.667 -45 48.334 -45 83.001c0 37.333 14 67 42 89s63.333 33 106 33
s78 -11 106 -33s42 -51.667 42 -89c0 -34.667 -15 -62.334 -45 -83.001zM172 143c-16.667 0 -25 -7.66699 -25 -23c0 -14 8.33301 -21 25 -21s25 7 25 21c0 15.333 -8.33301 23 -25 23zM172 -62c21.333 0 32 9.66699 32 29c0 18.667 -10.667 28 -32 28s-32 -9.33301 -32 -28
c0 -19.333 10.667 -29 32 -29z" />
    <glyph glyph-name="nine.sinf" horiz-adv-x="344" 
d="M334 107c0 -30 -7.33301 -57 -22 -81l-110 -186h-148l72 125c-36.667 8 -65.167 24.667 -85.5 50s-30.5 56 -30.5 92c0 44 14.5 79.5 43.5 106.5s68.5 40.5 118.5 40.5s89.5 -13.5 118.5 -40.5s43.5 -62.5 43.5 -106.5zM172 137c-20.667 0 -31 -10 -31 -30
s10.333 -30 31 -30s31 10 31 30s-10.333 30 -31 30z" />
    <glyph glyph-name="zero.tf" horiz-adv-x="600" 
d="M300 -16c-94 0 -166.667 33.167 -218 99.5s-77 155.166 -77 266.499s25.667 200.166 77 266.499s124 99.5 218 99.5s166.667 -33.167 218 -99.5s77 -155.166 77 -266.499s-25.667 -200.166 -77 -266.499s-124 -99.5 -218 -99.5zM300 178c63.333 0 95 57.333 95 172
s-31.667 172 -95 172s-95 -57.333 -95 -172s31.667 -172 95 -172z" />
    <glyph glyph-name="one.tf" horiz-adv-x="600" 
d="M417 194h168v-194h-560v194h192v297l-121 -29l-46 167l197 71h170v-506z" />
    <glyph glyph-name="two.tf" horiz-adv-x="600" 
d="M32 0v146l268 237c38.667 34.667 58 63.667 58 87c0 16 -5.83301 28.667 -17.5 38s-26.834 14 -45.501 14c-47.333 0 -81.333 -29.667 -102 -89l-173 100c21.333 60 56.833 105.5 106.5 136.5s105.834 46.5 168.501 46.5c72 0 133.833 -21 185.5 -63
s77.5 -100.333 77.5 -175c0 -40 -8.33301 -75.333 -25 -106s-43 -62 -79 -94l-94 -84h213v-194h-541z" />
    <glyph glyph-name="three.tf" horiz-adv-x="600" 
d="M419 414c49.333 -12.667 87.667 -35.5 115 -68.5s41 -74.833 41 -125.5c0 -78 -25 -136.833 -75 -176.5s-116.667 -59.5 -200 -59.5c-68.667 0 -128.667 15.833 -180 47.5s-86.333 78.5 -105 140.5l176 100c16 -62.667 52.333 -94 109 -94c50 0 75 17.333 75 52
c0 17.333 -6.33301 30 -19 38s-33 12 -61 12h-37l-81 119l99 107h-229v194h490v-154z" />
    <glyph glyph-name="four.tf" horiz-adv-x="600" 
d="M585 282v-180h-70v-102h-196v102h-314v180l213 418h227l-213 -418h87v108h196v-108h70z" />
    <glyph glyph-name="five.tf" horiz-adv-x="600" 
d="M310 453c84 0 150 -18.499 198 -55.499s72 -94.833 72 -173.5c0 -76.667 -25.833 -135.834 -77.5 -177.501s-119.167 -62.5 -202.5 -62.5c-66 0 -124.167 14.833 -174.5 44.5s-85.833 73.167 -106.5 130.5l178 96c14.667 -51.333 49 -77 103 -77c53.333 0 80 17 80 51
c0 31.333 -26.667 47 -80 47h-243l29 424h449v-194h-264l-3 -53h42z" />
    <glyph glyph-name="six.tf" horiz-adv-x="600" 
d="M355 484c71.333 -9.33301 127.5 -36.5 168.5 -81.5s61.5 -100.5 61.5 -166.5c0 -74 -25.5 -134.5 -76.5 -181.5s-120.5 -70.5 -208.5 -70.5s-157.5 23.5 -208.5 70.5s-76.5 107.5 -76.5 181.5c0 53.333 13 99.333 39 138l1 2l2 2l218 322h225zM300 163
c26.667 0 47.5 6.5 62.5 19.5s22.5 30.833 22.5 53.5s-7.5 40.5 -22.5 53.5s-35.833 19.5 -62.5 19.5s-47.5 -6.5 -62.5 -19.5s-22.5 -30.833 -22.5 -53.5s7.5 -40.5 22.5 -53.5s35.833 -19.5 62.5 -19.5z" />
    <glyph glyph-name="seven.tf" horiz-adv-x="600" 
d="M20 700h550v-164l-238 -536h-220l222 506h-314v194z" />
    <glyph glyph-name="eight.tf" horiz-adv-x="600" 
d="M482 366c66.667 -38.667 100.002 -95 100.002 -169c0 -65.333 -24.333 -116.833 -73 -154.5s-118.334 -56.5 -209.001 -56.5s-160.334 18.833 -209.001 56.5s-73 89.167 -73 154.5c0 74 33.333 130.333 100 169c-50.667 34 -76 80.667 -76 140
c0 64.667 24 115.5 72 152.5s110 55.5 186 55.5s138 -18.5 186 -55.5s72 -87.833 72 -152.5c0 -59.333 -25.333 -106 -76 -140zM300.002 538c-52 0 -78 -17 -78 -51s26 -51 78 -51s78 17 78 51s-26 51 -78 51zM300.002 166c54.667 0 82 19.667 82 59s-27.333 59 -82 59
s-82 -19.667 -82 -59s27.333 -59 82 -59z" />
    <glyph glyph-name="nine.tf" horiz-adv-x="600" 
d="M546 326l-1 -2l-2 -2l-218 -322h-225l145 216c-71.333 9.33301 -127.5 36.5 -168.5 81.5s-61.5 100.5 -61.5 166.5c0 74 25.5 134.5 76.5 181.5s120.5 70.5 208.5 70.5s157.5 -23.5 208.5 -70.5s76.5 -107.5 76.5 -181.5c0 -53.333 -13 -99.333 -39 -138zM215 464
c0 -22.667 7.5 -40.5 22.5 -53.5s35.833 -19.5 62.5 -19.5s47.5 6.5 62.5 19.5s22.5 30.833 22.5 53.5s-7.5 40.5 -22.5 53.5s-35.833 19.5 -62.5 19.5s-47.5 -6.5 -62.5 -19.5s-22.5 -30.833 -22.5 -53.5z" />
    <glyph glyph-name="zero.dnom" horiz-adv-x="410" 
d="M205 -14c-56.667 0 -102.5 19.333 -137.5 58s-52.5 90.667 -52.5 156s17.5 117.333 52.5 156s80.833 58 137.5 58s102.5 -19.333 137.5 -58s52.5 -90.667 52.5 -156s-17.5 -117.333 -52.5 -156s-80.833 -58 -137.5 -58zM205 127c28.667 0 43 24.333 43 73
s-14.333 73 -43 73s-43 -24.333 -43 -73s14.333 -73 43 -73z" />
    <glyph glyph-name="one.dnom" horiz-adv-x="279" 
d="M132 400h121v-400h-142v251l-78 -19l-33 120z" />
    <glyph glyph-name="two.dnom" horiz-adv-x="351" 
d="M23 0v101.998l140 131c18 16.667 27 30.334 27 41.001c0 12 -6.66699 18 -20 18c-15.333 0 -28.333 -14 -39 -42l-116 66c33.333 65.333 87.333 98 162 98c40.667 0 76 -12.167 106 -36.5s45 -56.166 45 -95.499c0 -42 -23.333 -83.667 -70 -125l-36 -32h107v-125h-306z
" />
    <glyph glyph-name="three.dnom" horiz-adv-x="323" 
d="M249 239c52.667 -20 79 -56.667 79 -110c0 -45.333 -15.167 -80.5 -45.5 -105.5s-69.833 -37.5 -118.5 -37.5c-79.333 0 -134 32.667 -164 98l114 65c10 -26.667 26.667 -40 50 -40c18.667 0 28 6.66699 28 20c0 12.667 -7.66699 19 -23 19h-32l-50 75l48 54h-114v123
h292v-89z" />
    <glyph glyph-name="four.dnom" horiz-adv-x="366" 
d="M356 171v-120h-33v-51h-128v51h-190v120l110 229h147l-104 -229h37v66h128v-66h33z" />
    <glyph glyph-name="five.dnom" horiz-adv-x="330" 
d="M168 253c46.667 0 83.667 -10.833 111 -32.5s41 -54.167 41 -97.5c0 -45.333 -14.667 -79.5 -44 -102.5s-67.333 -34.5 -114 -34.5c-78.667 0 -132.667 32.667 -162 98l115 55c8.66699 -23.333 23.667 -35 45 -35c19.333 0 29 7 29 21s-8.66699 21 -26 21h-136l17 254
h261v-123h-144l-1 -24h8z" />
    <glyph glyph-name="six.dnom" horiz-adv-x="344" 
d="M218 275c36.667 -8 65.167 -24.667 85.5 -50s30.5 -56 30.5 -92c0 -44 -14.5 -79.5 -43.5 -106.5s-68.5 -40.5 -118.5 -40.5s-89.5 13.5 -118.5 40.5s-43.5 62.5 -43.5 106.5c0 30 7.33301 57 22 81l110 186h148zM172 103c20.667 0 31 10 31 30s-10.333 30 -31 30
s-31 -10 -31 -30s10.333 -30 31 -30z" />
    <glyph glyph-name="seven.dnom" horiz-adv-x="310" 
d="M0 400h300v-106l-107 -294h-145l101 277h-149v123z" />
    <glyph glyph-name="eight.dnom" horiz-adv-x="344" 
d="M275 209c39.333 -22.667 59 -55.667 59 -99c0 -38 -14.5 -68.167 -43.5 -90.5s-68.5 -33.5 -118.5 -33.5s-89.5 11.167 -118.5 33.5s-43.5 52.5 -43.5 90.5c0 43.333 19.667 76.333 59 99c-30 20.667 -45 48.334 -45 83.001c0 37.333 14 67 42 89s63.333 33 106 33
s78 -11 106 -33s42 -51.667 42 -89c0 -34.667 -15 -62.334 -45 -83.001zM172 303c-16.667 0 -25 -7.66699 -25 -23c0 -14 8.33301 -21 25 -21s25 7 25 21c0 15.333 -8.33301 23 -25 23zM172 98c21.333 0 32 9.66699 32 29c0 18.667 -10.667 28 -32 28s-32 -9.33301 -32 -28
c0 -19.333 10.667 -29 32 -29z" />
    <glyph glyph-name="nine.dnom" horiz-adv-x="344" 
d="M329 267c0 -30 -7.33301 -57 -22 -81l-110 -186h-148l72 125c-36.667 8 -65.167 24.667 -85.5 50s-30.5 56 -30.5 92c0 44 14.5 79.5 43.5 106.5s68.5 40.5 118.5 40.5s89.5 -13.5 118.5 -40.5s43.5 -62.5 43.5 -106.5zM167 297c-20.667 0 -31 -10 -31 -30
s10.333 -30 31 -30s31 10 31 30s-10.333 30 -31 30z" />
    <glyph glyph-name="zero.numr" horiz-adv-x="410" 
d="M205 286c-56.667 0 -102.5 19.333 -137.5 58s-52.5 90.667 -52.5 156s17.5 117.333 52.5 156s80.833 58 137.5 58s102.5 -19.333 137.5 -58s52.5 -90.667 52.5 -156s-17.5 -117.333 -52.5 -156s-80.833 -58 -137.5 -58zM205 427c28.667 0 43 24.333 43 73
s-14.333 73 -43 73s-43 -24.333 -43 -73s14.333 -73 43 -73z" />
    <glyph glyph-name="one.numr" horiz-adv-x="279" 
d="M132 700h121v-400h-142v251l-78 -19l-33 120z" />
    <glyph glyph-name="two.numr" horiz-adv-x="351" 
d="M23 300v101.998l140 131c18 16.667 27 30.334 27 41.001c0 12 -6.66699 18 -20 18c-15.333 0 -28.333 -14 -39 -42l-116 66c33.333 65.333 87.333 98 162 98c40.667 0 76 -12.167 106 -36.5s45 -56.166 45 -95.499c0 -42 -23.333 -83.667 -70 -125l-36 -32h107v-125h-306
z" />
    <glyph glyph-name="three.numr" horiz-adv-x="323" 
d="M249 539c52.667 -20 79 -56.667 79 -110c0 -45.333 -15.167 -80.5 -45.5 -105.5s-69.833 -37.5 -118.5 -37.5c-79.333 0 -134 32.667 -164 98l114 65c10 -26.667 26.667 -40 50 -40c18.667 0 28 6.66699 28 20c0 12.667 -7.66699 19 -23 19h-32l-50 75l48 54h-114v123
h292v-89z" />
    <glyph glyph-name="four.numr" horiz-adv-x="366" 
d="M356 471v-120h-33v-51h-128v51h-190v120l110 229h147l-104 -229h37v66h128v-66h33z" />
    <glyph glyph-name="five.numr" horiz-adv-x="330" 
d="M168 553c46.667 0 83.667 -10.833 111 -32.5s41 -54.167 41 -97.5c0 -45.333 -14.667 -79.5 -44 -102.5s-67.333 -34.5 -114 -34.5c-78.667 0 -132.667 32.667 -162 98l115 55c8.66699 -23.333 23.667 -35 45 -35c19.333 0 29 7 29 21s-8.66699 21 -26 21h-136l17 254
h261v-123h-144l-1 -24h8z" />
    <glyph glyph-name="six.numr" horiz-adv-x="344" 
d="M218 575c36.667 -8 65.167 -24.667 85.5 -50s30.5 -56 30.5 -92c0 -44 -14.5 -79.5 -43.5 -106.5s-68.5 -40.5 -118.5 -40.5s-89.5 13.5 -118.5 40.5s-43.5 62.5 -43.5 106.5c0 30 7.33301 57 22 81l110 186h148zM172 403c20.667 0 31 10 31 30s-10.333 30 -31 30
s-31 -10 -31 -30s10.333 -30 31 -30z" />
    <glyph glyph-name="seven.numr" horiz-adv-x="310" 
d="M0 700h300v-106l-107 -294h-145l101 277h-149v123z" />
    <glyph glyph-name="eight.numr" horiz-adv-x="344" 
d="M275 509c39.333 -22.667 59 -55.667 59 -99c0 -38 -14.5 -68.167 -43.5 -90.5s-68.5 -33.5 -118.5 -33.5s-89.5 11.167 -118.5 33.5s-43.5 52.5 -43.5 90.5c0 43.333 19.667 76.333 59 99c-30 20.667 -45 48.334 -45 83.001c0 37.333 14 67 42 89s63.333 33 106 33
s78 -11 106 -33s42 -51.667 42 -89c0 -34.667 -15 -62.334 -45 -83.001zM172 603c-16.667 0 -25 -7.66699 -25 -23c0 -14 8.33301 -21 25 -21s25 7 25 21c0 15.333 -8.33301 23 -25 23zM172 398c21.333 0 32 9.66699 32 29c0 18.667 -10.667 28 -32 28s-32 -9.33301 -32 -28
c0 -19.333 10.667 -29 32 -29z" />
    <glyph glyph-name="nine.numr" horiz-adv-x="344" 
d="M329 567c0 -30 -7.33301 -57 -22 -81l-110 -186h-148l72 125c-36.667 8 -65.167 24.667 -85.5 50s-30.5 56 -30.5 92c0 44 14.5 79.5 43.5 106.5s68.5 40.5 118.5 40.5s89.5 -13.5 118.5 -40.5s43.5 -62.5 43.5 -106.5zM167 597c-20.667 0 -31 -10 -31 -30
s10.333 -30 31 -30s31 10 31 30s-10.333 30 -31 30z" />
    <glyph glyph-name="zero.sups" horiz-adv-x="410" 
d="M205 446c-56.667 0 -102.5 19.333 -137.5 58s-52.5 90.667 -52.5 156s17.5 117.333 52.5 156s80.833 58 137.5 58s102.5 -19.333 137.5 -58s52.5 -90.667 52.5 -156s-17.5 -117.333 -52.5 -156s-80.833 -58 -137.5 -58zM205 587c28.667 0 43 24.333 43 73
s-14.333 73 -43 73s-43 -24.333 -43 -73s14.333 -73 43 -73z" />
    <glyph glyph-name="one.sups" horiz-adv-x="279" 
d="M132 860h121v-400h-142v251l-78 -19l-33 120z" />
    <glyph glyph-name="two.sups" horiz-adv-x="351" 
d="M23 460v101.998l140 131c18 16.667 27 30.334 27 41.001c0 12 -6.66699 18 -20 18c-15.333 0 -28.333 -14 -39 -42l-116 66c33.333 65.333 87.333 98 162 98c40.667 0 76 -12.167 106 -36.5s45 -56.166 45 -95.499c0 -42 -23.333 -83.667 -70 -125l-36 -32h107v-125h-306
z" />
    <glyph glyph-name="three.sups" horiz-adv-x="323" 
d="M249 699c52.667 -20 79 -56.667 79 -110c0 -45.333 -15.167 -80.5 -45.5 -105.5s-69.833 -37.5 -118.5 -37.5c-79.333 0 -134 32.667 -164 98l114 65c10 -26.667 26.667 -40 50 -40c18.667 0 28 6.66699 28 20c0 12.667 -7.66699 19 -23 19h-32l-50 75l48 54h-114v123
h292v-89z" />
    <glyph glyph-name="four.sups" horiz-adv-x="366" 
d="M356 631v-120h-33v-51h-128v51h-190v120l110 229h147l-104 -229h37v66h128v-66h33z" />
    <glyph glyph-name="five.sups" horiz-adv-x="330" 
d="M168 713c46.667 0 83.667 -10.833 111 -32.5s41 -54.167 41 -97.5c0 -45.333 -14.667 -79.5 -44 -102.5s-67.333 -34.5 -114 -34.5c-78.667 0 -132.667 32.667 -162 98l115 55c8.66699 -23.333 23.667 -35 45 -35c19.333 0 29 7 29 21s-8.66699 21 -26 21h-136l17 254
h261v-123h-144l-1 -24h8z" />
    <glyph glyph-name="six.sups" horiz-adv-x="344" 
d="M218 735c36.667 -8 65.167 -24.667 85.5 -50s30.5 -56 30.5 -92c0 -44 -14.5 -79.5 -43.5 -106.5s-68.5 -40.5 -118.5 -40.5s-89.5 13.5 -118.5 40.5s-43.5 62.5 -43.5 106.5c0 30 7.33301 57 22 81l110 186h148zM172 563c20.667 0 31 10 31 30s-10.333 30 -31 30
s-31 -10 -31 -30s10.333 -30 31 -30z" />
    <glyph glyph-name="seven.sups" horiz-adv-x="310" 
d="M0 860h300v-106l-107 -294h-145l101 277h-149v123z" />
    <glyph glyph-name="eight.sups" horiz-adv-x="344" 
d="M275 669c39.333 -22.667 59 -55.667 59 -99c0 -38 -14.5 -68.167 -43.5 -90.5s-68.5 -33.5 -118.5 -33.5s-89.5 11.167 -118.5 33.5s-43.5 52.5 -43.5 90.5c0 43.333 19.667 76.333 59 99c-30 20.667 -45 48.334 -45 83.001c0 37.333 14 67 42 89s63.333 33 106 33
s78 -11 106 -33s42 -51.667 42 -89c0 -34.667 -15 -62.334 -45 -83.001zM172 763c-16.667 0 -25 -7.66699 -25 -23c0 -14 8.33301 -21 25 -21s25 7 25 21c0 15.333 -8.33301 23 -25 23zM172 558c21.333 0 32 9.66699 32 29c0 18.667 -10.667 28 -32 28s-32 -9.33301 -32 -28
c0 -19.333 10.667 -29 32 -29z" />
    <glyph glyph-name="nine.sups" horiz-adv-x="344" 
d="M329 727c0 -30 -7.33301 -57 -22 -81l-110 -186h-148l72 125c-36.667 8 -65.167 24.667 -85.5 50s-30.5 56 -30.5 92c0 44 14.5 79.5 43.5 106.5s68.5 40.5 118.5 40.5s89.5 -13.5 118.5 -40.5s43.5 -62.5 43.5 -106.5zM167 757c-20.667 0 -31 -10 -31 -30
s10.333 -30 31 -30s31 10 31 30s-10.333 30 -31 30z" />
    <glyph glyph-name="cent.tf" horiz-adv-x="600" 
d="M333 264c32.667 1.33301 56.333 15.667 71 43l156 -90c-22 -40.667 -53.5 -72.667 -94.5 -96s-86.167 -35 -135.5 -35c-16.667 0 -34.334 1.66699 -53.001 5l-29 -91h-65l35 109c-47.333 20 -85 51.5 -113 94.5s-42 91.833 -42 146.5c0 75.333 25.333 138.166 76 188.499
s114.334 75.5 191.001 75.5c12 0 28.667 -1.33301 50 -4l29 90h65l-35 -108c52.667 -23.333 93 -59.666 121 -108.999l-156 -89c-5.33301 9.33301 -12.333 17.333 -21 24zM247.999 350.001c0 -27.333 9 -49 27 -65l49 151c-22 -1.33301 -40.167 -10 -54.5 -26
s-21.5 -36 -21.5 -60z" />
    <glyph glyph-name="dollar.tf" horiz-adv-x="600" 
d="M580 208c0 -65.333 -21.335 -117.333 -64.002 -156s-101.334 -61 -176.001 -67v-85h-70v85c-66.667 4.66699 -121.667 21.834 -165 51.501s-73.333 69.167 -90 118.5l176 95c12.667 -41.333 39 -67.333 79 -78v95c-80.667 26 -139.667 55.167 -177 87.5
s-56 78.166 -56 137.499c0 65.333 21.167 117.666 63.5 156.999s98.833 61.333 169.5 66v85h70v-86c106.667 -11.333 182.334 -65 227.001 -161l-171 -92c-9.33301 32.667 -28 54.667 -56 66v-99c0.666992 0 1.66699 -0.333008 3 -1s2.33301 -1 3 -1
c30 -10 55.333 -19 76 -27s41.834 -18.333 63.501 -31s38.834 -26 51.501 -40s23 -31.167 31 -51.5s12 -43.166 12 -68.499zM231.998 493c0 -16 12.667 -29.667 38 -41v80c-25.333 -6 -38 -19 -38 -39zM339.998 167c30 4 45 15.667 45 35c0 16 -15 30 -45 42v-77z" />
    <glyph glyph-name="Euro.tf" horiz-adv-x="600" 
d="M426 236l169 -96.998c-20.667 -47.333 -51.667 -85 -93 -113s-90.333 -42 -147 -42c-74 0 -135.5 23.333 -184.5 70s-81.167 110.667 -96.5 192h-69v84h60v20v18h-60v84h69c14.667 81.333 46.167 145.666 94.5 192.999s108.833 71 181.5 71
c110.667 0 190.667 -53.333 240 -160l-169 -97c-8 21.333 -17.333 37.166 -28 47.499s-25 15.5 -43 15.5c-34 0 -58 -23.333 -72 -70h117v-84h-130v-18v-20h130v-84h-116c14.667 -45.333 40 -68 76 -68c30 0 53.667 19.333 71 58z" />
    <glyph glyph-name="florin.tf" horiz-adv-x="600" 
d="M590 527c-37.333 9.33301 -68.166 9.33203 -92.499 -0.000976562s-39.5 -26.333 -45.5 -51l-9 -38h107v-176h-147l-68 -292c-8.66699 -37.333 -24.167 -69.333 -46.5 -96s-48 -46 -77 -58s-61.167 -19.667 -96.5 -23s-70.333 -0.666016 -105 8.00098v180
c73.333 -18 116.333 -0.666992 129 52l57 229h-106v176h150l25 100c18.667 73.333 58.667 123.833 120 151.5s129.666 33.5 204.999 17.5v-180z" />
    <glyph glyph-name="uni20BD.tf" horiz-adv-x="600" 
d="M335 233l-70.002 0.00195312v-39h190v-100h-190v-93h-200v93h-55v100h55v39h-55v180h55v288h270c72.667 0 133.334 -20.833 182.001 -62.5s73 -97.834 73 -168.501c0 -78.667 -23.667 -137.834 -71 -177.501s-108.666 -59.5 -183.999 -59.5zM264.998 507.002v-94h70
c36.667 0 55 15.667 55 47s-18.333 47 -55 47h-70z" />
    <glyph glyph-name="sterling.tf" horiz-adv-x="600" 
d="M277 194h312.999v-194h-570v194h57v81h-47v140h47v62c0 75.333 23.833 134 71.5 176s104.834 63 171.501 63c62.667 0 115.167 -13.167 157.5 -39.5s76.833 -67.833 103.5 -124.5l-173 -93c-7.33301 24 -16.5 41.5 -27.5 52.5s-25.833 16.5 -44.5 16.5
c-20 0 -34.833 -6.16699 -44.5 -18.5s-14.5 -27.5 -14.5 -45.5v-49h203v-140h-203v-81z" />
    <glyph glyph-name="yen.tf" horiz-adv-x="600" 
d="M600 700l-166 -323h116v-100h-150v-42h150v-100h-150v-135h-200v135h-150v100h150v42h-150v100h116l-166 323h222l78 -190l78 190h222z" />
    <glyph glyph-name="brevecy" horiz-adv-x="430" 
d="M40 549v150h350v-150h-350z" />
    </font>
</defs>
</svg>
